<svg width="121" height="56" viewBox="0 0 121 56" fill="none" xmlns="http://www.w3.org/2000/svg">
<g clip-path="url(#clip0_44_3414)">
<path d="M21.0316 55.0934C32.6471 55.0934 42.0633 53.3905 42.0633 51.2898C42.0633 49.1892 32.6471 47.4862 21.0316 47.4862C9.41619 47.4862 0 49.1892 0 51.2898C0 53.3905 9.41619 55.0934 21.0316 55.0934Z" fill="#E6E6E6"/>
<path d="M42.6847 33.3831C42.4657 36.6754 40.1578 38.2536 38.2257 38.9983C36.9845 39.4585 35.6826 39.7352 34.3614 39.8199L34.0359 39.022L34.0063 38.9481L37.3854 37.6359L37.4741 37.6861C37.9602 37.9307 38.5079 38.0264 39.0483 37.961L39.0157 37.9432C38.9288 37.9012 38.8456 37.8517 38.7672 37.7955L38.7376 37.7748C38.3693 37.4975 38.0795 37.1295 37.8964 36.7068C37.7133 36.2841 37.6432 35.8211 37.6931 35.3632C37.8055 33.9948 38.8086 33.1378 39.6341 32.7358C39.7318 32.7151 39.8324 32.7004 39.93 32.6885C40.9008 32.598 41.8733 32.8431 42.6847 33.3831Z" fill="#143FFD"/>
<path d="M18.7744 45.5593V45.6361H18.7505L18.7684 45.5593H18.7744Z" fill="black"/>
<path d="M30.6331 35.4016L30.7315 35.3809L30.6331 35.4016Z" fill="black"/>
<path d="M44.6997 34.6214C44.3741 33.7505 43.7433 33.027 42.9244 32.5851C41.3798 31.6985 39.2435 31.6128 37.8469 32.8304C36.8439 33.6727 36.1722 35.2923 36.5776 36.5927C35.6899 37.299 34.1424 37.8398 33.6424 38.0024L32.4174 34.979C36.5894 33.7968 40.291 31.2109 41.294 26.6507C41.7459 24.5049 41.6882 22.2831 41.1254 20.1636L41.1047 20.0808C40.918 19.3557 40.6858 18.643 40.4093 17.947C39.7578 16.274 38.9053 14.6862 37.8706 13.2184C37.9517 10.768 37.728 8.31695 37.2048 5.92151C36.7864 4.13932 36.1845 2.40512 35.4088 0.746601C35.2791 0.470873 35.0455 0.257496 34.7591 0.152887C34.4726 0.0482788 34.1563 0.0609187 33.8791 0.188044C31.6137 1.23662 29.5191 2.61944 27.6655 4.29014C27.0502 3.98955 26.4144 3.73276 25.7629 3.52173C22.1371 2.35862 18.2032 2.62509 14.7678 4.26649C12.9211 2.60432 10.8344 1.22942 8.57779 0.188044C8.30101 0.0610415 7.9852 0.0484863 7.6992 0.153122C7.41319 0.257757 7.18021 0.471082 7.05104 0.746601C5.28317 4.52135 4.43453 8.66034 4.57447 12.8253H4.60997C3.6498 14.1043 2.84616 15.4933 2.21622 16.9629C1.83761 17.8348 1.52799 18.735 1.29013 19.6553C1.29013 19.6848 1.29011 19.7144 1.26644 19.7439C0.693382 21.9187 0.629595 24.1961 1.08003 26.3995C2.06829 30.9833 5.55978 33.72 9.79688 34.9967L7.4771 40.7243C6.91196 40.9726 5.04786 41.9065 4.29335 43.6147C3.89391 44.522 3.83768 45.9436 4.14245 47.4183C4.25193 47.9384 4.65139 49.6082 5.4562 50.1727C5.4562 50.2112 5.45618 50.2466 5.43547 50.285C5.36088 50.8495 5.4721 51.4228 5.75231 51.9186C6.03252 52.4144 6.46651 52.8057 6.98888 53.0335C7.57389 53.3046 8.19794 53.4822 8.83817 53.5596C9.46856 53.6438 10.1074 53.6438 10.7378 53.5596C11.6325 53.4597 12.4807 53.1093 13.1848 52.5488C13.4648 52.916 13.8305 53.2092 14.25 53.403C15.4335 53.9793 16.9544 54.1152 18.135 53.4355C18.5251 53.1989 18.8289 52.8436 19.0019 52.4218H23.2597C23.6917 53.4473 24.8042 53.8286 25.8635 53.8404C26.663 53.8341 27.4485 53.6311 28.1507 53.2493C28.4767 53.0593 28.7615 52.8061 28.9881 52.5045C30.1716 53.5389 31.8789 53.7665 33.3997 53.5596C34.04 53.4822 34.664 53.3046 35.249 53.0335C35.772 52.8065 36.2066 52.4153 36.4869 51.9193C36.7673 51.4234 36.878 50.8496 36.8024 50.285C36.8024 50.2466 36.8025 50.2112 36.7818 50.1727C37.5836 49.6082 37.986 47.9384 38.0925 47.4183C38.3884 45.9406 38.344 44.522 37.9416 43.6147C37.7485 43.1816 37.4867 42.7825 37.1664 42.4325L37.3232 42.4118C37.5599 42.3705 37.915 42.3202 38.1547 42.267C39.8353 41.9272 41.5071 41.345 42.8445 40.2367C43.4558 39.7457 43.9575 39.1323 44.3173 38.436C44.677 37.7397 44.8869 36.9759 44.9335 36.1937C44.9335 36.1434 44.9335 36.0932 44.9335 36.04C44.9305 35.5578 44.8516 35.0791 44.6997 34.6214ZM3.99747 30.3952C3.04597 29.1671 2.37809 27.7441 2.04166 26.2281C2.02095 26.1365 2.00321 26.0419 1.98249 25.9503C1.92924 25.6813 1.88779 25.4124 1.85229 25.1405C1.85229 25.0489 1.83158 24.9573 1.8227 24.8656C1.79016 24.5701 1.76945 24.248 1.75762 23.9376C1.75762 23.846 1.75762 23.7544 1.75762 23.6628C1.75762 23.2815 1.75761 22.8973 1.78424 22.5131C1.8293 21.8185 1.91925 21.1274 2.0535 20.4444C2.0535 20.4148 2.05348 20.3852 2.06828 20.3557C2.65451 17.679 3.71143 15.1274 5.1899 12.8194C5.23724 12.7396 5.28754 12.6598 5.33784 12.583C5.76392 11.9033 6.22551 11.2412 6.67822 10.597C6.19944 11.0141 5.74869 11.4623 5.32896 11.9387C5.33313 8.19172 6.15718 4.49091 7.7434 1.09535C7.78447 1.00858 7.85821 0.94154 7.94856 0.908874C8.03891 0.876208 8.13855 0.880561 8.2257 0.920977C10.3216 1.88831 12.2668 3.15244 14.0014 4.67434C13.5555 4.9278 13.1247 5.20707 12.7114 5.51072L12.9066 5.46638C15.6662 4.18379 18.684 3.55182 21.727 3.61926C24.3773 3.71862 26.9817 4.34034 29.3905 5.44865C29.4793 5.46934 29.5651 5.49594 29.6509 5.51958C29.2479 5.22119 28.8269 4.94779 28.3904 4.70093C29.35 3.85465 30.3761 3.08674 31.4587 2.40459C32.338 1.85506 33.2512 1.36151 34.1927 0.926894C34.2799 0.886477 34.3795 0.882124 34.4699 0.91479C34.5602 0.947456 34.634 1.01448 34.675 1.10125C36.3035 4.58608 37.1276 8.3917 37.0865 12.2372C36.6005 11.6334 36.0756 11.0618 35.5153 10.526C37.125 12.979 38.6014 15.4822 39.5719 18.2455C39.849 19.0327 40.0734 19.8373 40.2436 20.6542C40.2436 20.6837 40.2436 20.7103 40.2614 20.7399C40.2791 20.7694 40.288 20.8699 40.2999 20.9379C40.3117 21.0059 40.3206 21.0443 40.3294 21.0975C40.6478 22.744 40.6618 24.4347 40.3709 26.0862C40.3531 26.1778 40.3353 26.2665 40.3146 26.3581C40.3146 26.3581 40.3146 26.3581 40.3146 26.3758C40.1416 27.1705 39.8734 27.9415 39.5157 28.6722C37.7878 32.1359 34.2253 34.0953 30.5711 35.0854L30.1213 35.2036C29.8905 35.3396 29.642 35.4755 29.3787 35.6115C26.885 36.903 24.1188 37.5819 21.3098 37.5916H21.2447C18.5083 37.5928 15.8092 36.9562 13.3623 35.7326C13.1463 35.6262 12.9392 35.5169 12.7439 35.4075C12.448 35.3396 12.1521 35.2657 11.8562 35.1888C8.83228 34.3613 5.92073 32.8984 3.99747 30.3952ZM37.1901 43.9221C37.8972 45.5298 37.1398 48.5591 36.4533 49.3718C36.3885 49.2617 36.3164 49.156 36.2373 49.0556C36.2202 49.0326 36.2014 49.0109 36.1811 48.9906L36.0805 48.8753C35.967 48.7639 35.8421 48.6648 35.7077 48.5798C35.6262 48.5292 35.54 48.4866 35.4503 48.4527C35.5559 48.6639 35.6469 48.8821 35.7225 49.1058C36.0598 50.1461 36.0627 50.9914 35.5568 51.5913C35.5337 51.6212 35.509 51.6498 35.4828 51.677C35.4184 51.7451 35.3481 51.8074 35.2727 51.8632C35.2727 51.8071 35.2461 51.748 35.2313 51.6918C35.2258 51.6649 35.2189 51.6382 35.2106 51.612C35.1168 51.2443 34.9586 50.896 34.7431 50.5835C34.6223 50.4139 34.4632 50.2752 34.2786 50.1786C34.4157 50.318 34.5172 50.4883 34.5744 50.6751C34.661 50.9855 34.695 51.3081 34.675 51.6297C34.675 51.6563 34.675 51.6829 34.675 51.7095C34.6629 51.8851 34.6402 52.0598 34.607 52.2326C34.4781 52.2826 34.3467 52.326 34.2134 52.3627C33.8803 52.4471 33.5424 52.5112 33.2015 52.5548C33.1423 52.3834 33.0772 52.2119 33.0003 52.0435C32.937 51.905 32.8649 51.7708 32.7843 51.6416L32.7192 51.547C32.6248 51.4112 32.5002 51.2989 32.3553 51.2189C32.4266 51.3006 32.48 51.3962 32.5121 51.4997L32.5387 51.5883L32.5565 51.6593C32.6177 51.9726 32.6346 52.2929 32.6068 52.6109C31.4889 52.7125 30.3696 52.4322 29.4319 51.8159C29.7199 51.3235 29.9673 50.8086 30.1716 50.2762L30.2042 50.1964C30.29 49.9777 30.3728 49.756 30.4557 49.5344C30.6658 48.9433 30.8551 48.3522 31.0297 47.7611C31.0297 47.7316 31.0297 47.702 31.0534 47.6725C31.1688 47.2764 31.2753 46.8775 31.3789 46.4903C31.6497 45.4663 31.865 44.4284 32.0239 43.3812C32.2016 42.3346 32.2878 41.2746 32.2813 40.213C31.8582 41.4454 31.5239 42.7517 31.0978 43.99C31.0386 44.1733 30.9202 44.5545 30.867 44.7377C30.5711 45.846 30.2752 46.9632 29.9408 48.0596L29.9142 48.1394C29.6715 48.9244 29.382 49.6942 29.0473 50.4446L28.9674 50.619C28.6715 51.2514 28.3223 51.9075 27.7838 52.3272C27.7014 52.3846 27.6131 52.4332 27.5205 52.472L27.3962 52.5311C27.4185 52.2249 27.3946 51.9171 27.3252 51.6179V51.5677L27.2986 51.4908C27.2476 51.3351 27.1639 51.192 27.053 51.0711C27.1172 51.2194 27.1494 51.3796 27.1477 51.5411C27.1491 51.5696 27.1491 51.5982 27.1477 51.6268C27.1026 52.0208 26.981 52.4023 26.7896 52.7498C26.3725 52.8732 25.9361 52.9183 25.5025 52.8828C25.5333 52.5406 25.5194 52.1959 25.4611 51.8573C25.4611 51.8307 25.4611 51.8041 25.4463 51.7775C25.4449 51.7667 25.4449 51.7558 25.4463 51.745C25.4109 51.5718 25.3326 51.4103 25.2185 51.2751C25.2679 51.4308 25.278 51.5963 25.2481 51.7568C25.2481 51.7834 25.2481 51.8071 25.2333 51.8337C25.1605 52.1508 25.0482 52.4576 24.8989 52.7469H24.8723C24.6849 52.6925 24.5127 52.5953 24.3695 52.4629C24.2262 52.3306 24.1157 52.1668 24.0468 51.9844C24.0202 51.9123 23.9994 51.8382 23.9846 51.7627C23.9846 51.7155 23.9639 51.6711 23.9551 51.6209L23.9373 51.5352C23.6745 50.1978 23.5486 48.8372 23.5615 47.4744C23.5615 47.4449 23.5615 47.4153 23.5615 47.3858C23.5615 47.2764 23.5615 47.1671 23.5615 47.0577C23.5672 46.5824 23.5295 46.1076 23.4491 45.6391C23.4491 45.6155 23.4491 45.5889 23.4491 45.5623L23.4313 45.4707H23.4136L23.3603 45.5623C23.3603 45.5889 23.3307 45.6155 23.3189 45.6421C22.9791 46.3763 22.8179 47.1804 22.8484 47.9887V48.2251C22.8484 48.3522 22.8484 48.4822 22.8484 48.6093V48.6891C22.8563 49.6789 22.9374 50.6667 23.0911 51.6445H19.2031C19.3504 50.6475 19.4226 49.6408 19.4191 48.633C19.4191 48.6152 19.4191 48.5945 19.4191 48.5738V48.4911C19.4191 48.3758 19.4191 48.2635 19.4191 48.1483C19.4206 48.1207 19.4206 48.0931 19.4191 48.0655C19.3984 47.1789 19.3185 46.2923 18.8687 45.4796C18.8614 45.5028 18.8555 45.5265 18.851 45.5505V45.6303H18.8303C18.7335 46.1038 18.6879 46.5863 18.6942 47.0696C18.6942 47.1109 18.6942 47.1523 18.6942 47.1966C18.6957 47.2242 18.6957 47.2518 18.6942 47.2794C18.7155 48.7321 18.5786 50.1829 18.2859 51.6061L18.2681 51.7036C18.2617 51.7269 18.2568 51.7506 18.2533 51.7745C18.2385 51.8519 18.2178 51.928 18.1912 52.0021C18.1227 52.1926 18.0101 52.3642 17.8625 52.5029C17.7149 52.6416 17.5365 52.7434 17.342 52.8001C17.1839 52.5053 17.0646 52.1914 16.9869 51.8662C16.9869 51.8366 16.9869 51.81 16.9869 51.7834C16.9584 51.618 16.9675 51.4483 17.0135 51.2869C16.9041 51.4258 16.8273 51.5874 16.7887 51.7598C16.7796 51.7846 16.7737 51.8104 16.7709 51.8366C16.7038 52.2011 16.6898 52.5734 16.7295 52.9419C16.3116 52.9869 15.889 52.9529 15.4838 52.8415C15.2099 52.4091 15.0717 51.9047 15.0873 51.3933C15.0859 51.3667 15.0859 51.3401 15.0873 51.3135C15.1037 51.2298 15.1275 51.1478 15.1583 51.0682C15.1014 51.1335 15.0518 51.2049 15.0104 51.281C14.9962 51.3034 14.9843 51.3272 14.9749 51.3519C14.8085 51.7504 14.7503 52.1857 14.8062 52.6139L14.6464 52.54C13.9807 52.2652 13.38 51.2869 12.8711 50.0929L12.7942 49.9156C12.6019 49.4427 12.4184 48.9433 12.2527 48.4379L12.2231 48.3492C11.7586 46.9306 11.4124 45.518 11.2171 44.7525C11.1195 44.3713 10.9212 43.6147 10.8177 43.2364C10.575 42.3498 10.2466 41.0553 9.93001 40.2012C9.92072 40.5955 9.93158 40.9901 9.96256 41.3834C10.0129 42.0424 10.072 42.7074 10.143 43.3635C10.2328 44.4226 10.42 45.4713 10.7023 46.4962C10.7822 46.7918 10.8768 47.1405 10.9982 47.5247L11.0218 47.6074C11.2897 48.5764 11.6148 49.5287 11.9953 50.4594C12.0074 50.4835 12.0182 50.5081 12.0278 50.5333C12.2222 50.9895 12.4476 51.4318 12.7025 51.8573C11.7797 52.4304 10.6959 52.6896 9.61339 52.5961C9.57621 52.2674 9.59422 51.9348 9.66667 51.612C9.66667 51.5854 9.66666 51.5558 9.69033 51.5293C9.72934 51.4117 9.78843 51.3017 9.86493 51.2042C9.71059 51.2942 9.57819 51.4174 9.4773 51.5647C9.45591 51.5921 9.43616 51.6207 9.41813 51.6504C9.2496 51.9284 9.11639 52.2262 9.02162 52.5371C8.68095 52.4908 8.34314 52.4257 8.00971 52.342C7.8749 52.3072 7.74247 52.2637 7.61323 52.212C7.61323 52.1617 7.59546 52.1115 7.58954 52.0642C7.56883 51.8898 7.54814 51.7095 7.53926 51.5263V51.4435C7.51659 51.2139 7.53965 50.9821 7.6072 50.7614C7.67475 50.5408 7.78542 50.3356 7.93278 50.1579C7.51356 50.4233 7.21023 50.8371 7.08358 51.3165C7.07435 51.3407 7.06647 51.3653 7.05992 51.3904C7.01161 51.5379 6.97111 51.6878 6.9386 51.8396C6.68271 51.6516 6.48482 51.3956 6.36752 51.1007C6.3526 51.0654 6.34073 51.0288 6.33202 50.9914C6.32339 50.9662 6.31649 50.9406 6.31132 50.9145C6.18492 50.1053 6.32071 49.2769 6.69892 48.5502L6.76108 48.4231L6.69595 48.4497C6.48819 48.5472 6.29975 48.6814 6.13968 48.8457L6.07756 48.9078C5.95533 49.0426 5.84819 49.1902 5.75802 49.3482C5.07156 48.5325 4.31705 45.5061 5.02422 43.8984C5.28985 43.3336 5.67916 42.8357 6.16338 42.4414L6.29948 42.3291C6.79544 41.9322 7.34412 41.606 7.92982 41.3597L8.08961 41.2977L10.5691 35.177L11.0632 35.2982C11.2792 35.3484 11.4953 35.3928 11.7113 35.4371L11.9391 35.4814C11.9391 35.5642 11.9391 35.6794 11.9391 35.8242L12.0219 35.8715C14.8285 37.494 18.0139 38.3483 21.2566 38.3482H21.3128C24.5598 38.3386 27.7466 37.472 30.5504 35.8361L30.6303 35.7888C30.6303 35.706 30.6302 35.5287 30.6598 35.3809L30.7545 35.3632C31.0504 35.3041 31.3463 35.2391 31.6422 35.1652L34.0714 41.1528L34.1365 41.3124L34.2933 41.3745C34.7083 41.5483 35.1048 41.7632 35.4769 42.0158C35.5686 42.0808 35.6662 42.1488 35.7728 42.2197C36.3817 42.6583 36.8694 43.244 37.1901 43.9221ZM43.7321 37.6536C43.6966 37.7364 43.6582 37.8191 43.6197 37.8989C43.0327 39.0037 42.1066 39.8914 40.9774 40.4317C39.902 40.9623 38.7562 41.3365 37.5747 41.543C37.1989 41.6139 36.7788 41.6789 36.3912 41.7321C35.8825 41.3285 35.3248 40.9909 34.7312 40.7273V40.7066L34.6987 40.6238L34.4028 39.8998L34.3703 39.8229L34.0478 39.022L34.0182 38.9511L33.9324 38.7383C35.0042 38.3981 36.0231 37.9096 36.9593 37.2872C37.0867 37.425 37.2343 37.5425 37.3972 37.6359L37.486 37.6862C37.9718 37.9318 38.5194 38.0285 39.0601 37.964L39.0275 37.9462C38.9406 37.9042 38.8575 37.8547 38.779 37.7985L38.7494 37.7778C38.3667 37.6332 38.0069 37.4341 37.6813 37.1867C36.8528 36.5631 37.0037 35.3898 37.3854 34.5268C37.5873 34.0718 37.8941 33.671 38.2808 33.3571C38.6676 33.0433 39.1232 32.8253 39.6104 32.7211H39.64C39.7406 32.7004 39.8412 32.6856 39.9359 32.6738C40.9057 32.5841 41.8769 32.8293 42.6876 33.3683L42.7616 33.4186C43.1284 33.6556 43.4352 33.9743 43.658 34.3497C43.8808 34.725 44.0135 35.1468 44.0458 35.5819C44.1116 36.2877 44.0039 36.9988 43.7321 37.6536Z" fill="black"/>
<path d="M5.47985 45.8224C5.52439 46.8838 5.71149 47.9345 6.03612 48.9462C5.91461 49.0798 5.80843 49.2265 5.71953 49.3836C5.03012 48.5679 4.27561 45.5416 4.98278 43.9368C5.2494 43.371 5.63969 42.8721 6.1249 42.4768C5.66196 43.5297 5.44152 44.673 5.47985 45.8224Z" fill="#0630C9"/>
<path d="M38.7375 37.7777C38.3547 37.6332 37.995 37.4341 37.6693 37.1867C36.8408 36.5631 36.9917 35.3868 37.3734 34.5268C37.5755 34.0722 37.8825 33.6718 38.2692 33.3585C38.656 33.0452 39.1115 32.8277 39.5985 32.724H39.6311C38.8055 33.1259 37.8025 33.983 37.69 35.3514C37.6378 35.8119 37.707 36.2781 37.8908 36.7037C38.0745 37.1292 38.3664 37.4995 38.7375 37.7777Z" fill="#0630C9"/>
<path d="M37.3853 37.6388L34.0062 38.951L33.9204 38.7383C34.9933 38.4007 36.0125 37.9121 36.9473 37.2871C37.0766 37.4237 37.224 37.542 37.3853 37.6388Z" fill="#0630C9"/>
<path d="M43.7143 37.6566C43.6788 37.7393 43.6434 37.8191 43.6019 37.9019C43.0141 39.0059 42.0883 39.8934 40.9597 40.4346C39.8842 40.9643 38.7383 41.3375 37.557 41.5429C37.1812 41.6168 36.761 41.6818 36.3734 41.7321C35.8637 41.33 35.3062 40.9925 34.7135 40.7272V40.7065L34.678 40.6267C35.684 40.7213 37.9653 40.8661 39.4566 40.4051C41.1201 39.9371 42.6039 38.9793 43.7143 37.6566Z" fill="#E6E6E6"/>
<path d="M43.7143 37.6566C42.6055 38.9783 41.1239 39.9361 39.4624 40.4051C37.983 40.8661 35.6899 40.7213 34.6839 40.6267L34.388 39.8997L34.3584 39.8229C35.6796 39.7382 36.9815 39.4614 38.2227 39.0013C40.1548 38.2536 42.4627 36.6754 42.6817 33.386L42.7557 33.4392C43.1227 33.6753 43.4298 33.9934 43.6526 34.3683C43.8755 34.7432 44.008 35.1648 44.0398 35.5996C44.1002 36.3015 43.9884 37.0075 43.7143 37.6566Z" fill="white"/>
<path d="M18.7744 45.5593V45.6361H18.7505L18.7684 45.5593H18.7744Z" fill="black"/>
<path d="M30.0977 35.2065C29.8639 35.3425 29.6154 35.4784 29.355 35.6144C26.8611 36.9082 24.0934 37.5872 21.2832 37.5945H21.2269C18.4905 37.5957 15.7915 36.9592 13.3445 35.7356C13.1285 35.6292 12.9214 35.5198 12.7231 35.4134C12.7942 35.4341 14.8683 36.1109 19.428 36.2498H19.6321H19.8688H20.1854H20.5878H21.0761C26.8104 36.2734 30 35.2391 30.0977 35.2065Z" fill="white"/>
<path d="M40.2969 26.3581C40.2969 26.3581 40.2969 26.3581 40.2969 26.3758C40.1225 27.1711 39.8543 27.9429 39.498 28.6751C37.7671 32.1388 34.2046 34.0953 30.5504 35.0854L30.1036 35.2036C30.0059 35.2361 26.8163 36.2705 21.0938 36.2705H20.6056H19.8866H19.6499H19.4458C14.8862 36.1316 12.812 35.4548 12.741 35.4341C12.4451 35.3691 12.1492 35.2952 11.8533 35.2154C8.83526 34.3968 5.93556 32.9338 4.00342 30.4306C3.04852 29.2046 2.38028 27.7808 2.04761 26.2635V26.2458C2.73111 27.5018 4.16614 29.7568 6.35866 31.3113C9.61342 33.6195 16.5047 34.4381 21.4105 34.4381C26.4672 34.4381 33.3051 33.3417 36.0154 31.3113C37.7645 29.9677 39.2212 28.2824 40.2969 26.3581Z" fill="#E6E6E6"/>
<path d="M18.6201 47.2025V47.2853C17.8551 47.0175 17.0601 46.8448 16.253 46.771C15.4998 46.7314 14.7474 46.8614 14.0513 47.1514C13.3553 47.4415 12.7335 47.8842 12.2319 48.4467C12.2319 48.4172 12.2111 48.3876 12.2023 48.3581C11.7377 46.9395 11.3916 45.5268 11.1933 44.7643C11.0957 44.383 10.8974 43.6235 10.7939 43.2452C10.5512 42.3586 10.2228 41.0641 9.90622 40.21C9.87959 40.5706 9.92692 41.0316 9.93876 41.3922C9.98906 42.0512 10.0482 42.7192 10.1192 43.3753C10.2107 44.4342 10.3979 45.4827 10.6785 46.508C10.7584 46.8035 10.856 47.1493 10.9744 47.5335L10.998 47.6163C10.495 47.5483 8.15751 47.3207 6.67512 48.5768C6.69287 48.5324 6.71357 48.4911 6.73428 48.4467L6.66919 48.4763C6.46048 48.5724 6.27099 48.7056 6.10996 48.8693L6.04784 48.9344C5.72321 47.9227 5.53611 46.872 5.49157 45.8105C5.45324 44.6612 5.67365 43.5179 6.13658 42.465L6.27272 42.3527C6.77011 41.9594 7.31729 41.6335 7.90009 41.3833L8.05985 41.3213L10.5394 35.2036L11.0335 35.3218C11.2495 35.372 11.4655 35.4193 11.6845 35.4607L11.9123 35.505C11.9123 35.5878 11.9123 35.703 11.9123 35.8479C11.9754 37.3965 12.2268 38.9318 12.6609 40.4199C13.0126 41.7173 13.6482 42.9205 14.522 43.9427C14.9811 44.4638 15.5447 44.8827 16.1762 45.1724C16.8078 45.4621 17.4932 45.6161 18.1881 45.6243H18.7502C18.6544 46.0979 18.6098 46.5805 18.6171 47.0636C18.6171 47.1168 18.6201 47.1729 18.6201 47.2025Z" fill="#143FFD"/>
<path d="M19.1499 51.6504C19.2961 50.6533 19.3673 49.6466 19.3629 48.6389V48.5797C19.9653 48.7763 20.5934 48.8829 21.227 48.896H21.2803C21.7897 48.8715 22.2963 48.8063 22.7952 48.7009C22.8008 49.6906 22.8809 50.6786 23.0349 51.6563L19.1499 51.6504Z" fill="#143FFD"/>
<path d="M22.7952 48.2369C22.7952 48.364 22.7952 48.494 22.7952 48.6241C22.7952 48.6507 22.7952 48.6773 22.7952 48.7039C22.2963 48.8092 21.7897 48.8745 21.2803 48.8989H21.227C20.5934 48.8858 19.9653 48.7793 19.3629 48.5827C19.3614 48.5541 19.3614 48.5255 19.3629 48.497C19.3629 48.3847 19.3629 48.2694 19.3629 48.1542C19.9184 47.9433 20.5057 47.8283 21.0998 47.8143C21.6812 47.7923 22.2613 47.8847 22.8071 48.0862L22.7952 48.2369Z" fill="#E6E6E6"/>
<path d="M30.6036 35.8272C30.577 36.9089 30.287 42.4118 26.9819 44.8293C26.9819 44.8293 25.9256 45.6568 23.5378 45.6568H23.4165C23.4165 45.6302 23.4165 45.6036 23.4165 45.577L23.3958 45.4884H23.378L23.3248 45.577C23.3248 45.6036 23.2982 45.6302 23.2834 45.6568C22.9444 46.3913 22.7843 47.1954 22.8159 48.0034C22.8144 48.031 22.8144 48.0586 22.8159 48.0862C22.2701 47.8847 21.69 47.7923 21.1086 47.8143C20.5145 47.8283 19.9272 47.9433 19.3717 48.1542V48.0596C19.3481 47.173 19.2711 46.2863 18.8214 45.4766H18.8036L18.7859 45.5475L18.7681 45.6243H18.2059C17.511 45.6161 16.8256 45.4621 16.1941 45.1724C15.5626 44.8828 14.999 44.4638 14.5399 43.9427C13.6661 42.9205 13.0304 41.7173 12.6788 40.4199C12.2447 38.9318 11.9933 37.3965 11.9302 35.8479L12.0101 35.8952C14.8169 37.5168 18.0021 38.3711 21.2447 38.3718H21.3039C24.5508 38.3614 27.7374 37.4948 30.5415 35.8597L30.6036 35.8272Z" fill="white"/>
<path d="M25.1918 51.8602C25.1212 52.1771 25.0087 52.4832 24.8574 52.7705H24.8308C24.6434 52.7161 24.4712 52.6189 24.328 52.4865C24.1847 52.3542 24.0742 52.1903 24.0053 52.008C23.9801 51.9364 23.9594 51.8634 23.9432 51.7893C23.9432 51.742 23.9254 51.6947 23.9136 51.6474C24.3335 51.7511 24.7609 51.8222 25.1918 51.8602Z" fill="#E6E6E6"/>
<path d="M27.115 51.6297V51.6445C27.0689 52.0387 26.9463 52.4202 26.7541 52.7676C26.3383 52.8925 25.9025 52.9376 25.4699 52.9005C25.4981 52.5582 25.4832 52.2137 25.4255 51.875H25.6534C25.8747 51.8765 26.0957 51.8567 26.3132 51.8159C26.5835 51.7677 26.8512 51.7056 27.115 51.6297Z" fill="#E6E6E6"/>
<path d="M28.9555 50.616C28.6596 51.2514 28.3104 51.9075 27.7719 52.3242C27.6879 52.3815 27.5987 52.431 27.5056 52.472L27.3843 52.5281C27.4055 52.2227 27.3806 51.9159 27.3103 51.6179V51.5647C27.9155 51.3589 28.4744 51.0366 28.9555 50.616Z" fill="#E6E6E6"/>
<path d="M36.4473 49.3865C36.3843 49.2744 36.312 49.1676 36.2313 49.0674C36.9186 47.78 37.1282 46.2915 36.8231 44.8648C36.6752 43.9191 36.3073 43.0213 35.749 42.2433C36.3633 42.6772 36.8572 43.2599 37.1841 43.9368C37.8912 45.5416 37.1367 48.5709 36.4473 49.3865Z" fill="#0630C9"/>
<path d="M36.2314 49.0674L36.1782 49.0023C36.1456 48.9639 36.1101 48.9255 36.0746 48.89C35.963 48.7766 35.8378 48.6773 35.7018 48.5945C35.6203 48.5439 35.5341 48.5013 35.4444 48.4674C34.6535 47.9181 33.7231 47.6035 32.7607 47.5601C32.172 47.5587 31.5855 47.6312 31.015 47.7759L31.0416 47.6902C31.157 47.2941 31.2635 46.8981 31.367 46.508C31.6364 45.4836 31.8518 44.4458 32.0121 43.3989C32.1888 42.3522 32.274 41.2922 32.2666 40.2307C31.8434 41.4631 31.5091 42.7694 31.083 44.0077C31.0238 44.191 30.9084 44.5752 30.8552 44.7584C30.5593 45.8637 30.2634 46.9809 29.9261 48.0773C29.9261 48.1039 29.9261 48.1305 29.9024 48.1571C29.0004 47.4556 27.9431 46.9803 26.8193 46.771C25.4966 46.5819 24.1563 47.1789 23.5201 47.5099V47.4212C23.5201 47.3119 23.5201 47.2025 23.5201 47.0961C23.5245 46.6209 23.487 46.1462 23.4077 45.6775H23.529C25.9168 45.6775 26.9613 44.8589 26.9731 44.85C30.2782 42.4325 30.5682 36.9295 30.5948 35.8479V35.8301C30.5948 35.7474 30.5948 35.573 30.6244 35.4252L30.722 35.4075C31.0179 35.3484 31.3138 35.2834 31.6097 35.2095L34.0359 41.2001L34.101 41.3567L34.2608 41.4188C34.6754 41.5933 35.0719 41.8081 35.4444 42.0601C35.5391 42.1222 35.6337 42.1902 35.7403 42.264C36.2986 43.042 36.6664 43.9398 36.8143 44.8855C37.1171 46.3046 36.9108 47.7848 36.2314 49.0674Z" fill="#143FFD"/>
<path d="M29.9054 48.1364C29.6619 48.9211 29.3724 49.6909 29.0385 50.4416C29.0089 50.5007 28.9823 50.5599 28.9556 50.616C28.4707 51.0404 27.9066 51.3648 27.2957 51.5706C27.2892 51.5446 27.2813 51.5189 27.272 51.4938C27.218 51.3394 27.1347 51.1968 27.0265 51.0741C27.0883 51.223 27.1195 51.3828 27.1182 51.544C27.1196 51.5726 27.1196 51.6011 27.1182 51.6297C26.8544 51.7075 26.5868 51.7717 26.3163 51.8218C26.0988 51.8626 25.8778 51.8824 25.6565 51.8809H25.4287C25.4252 51.8541 25.4202 51.8274 25.4139 51.8011C25.4155 51.7913 25.4155 51.7814 25.4139 51.7716C25.3784 51.5975 25.3001 51.435 25.186 51.2987C25.2384 51.4538 25.2486 51.6201 25.2156 51.7804C25.2121 51.8073 25.2072 51.8339 25.2008 51.8602C24.7697 51.8193 24.3423 51.7452 23.9226 51.6386L23.9048 51.5528C23.6416 50.2146 23.5167 48.8529 23.532 47.4892C24.1563 47.1582 25.5085 46.5612 26.8312 46.7503C27.9519 46.9609 29.006 47.4362 29.9054 48.1364Z" fill="#FAFBFB"/>
<path d="M34.6573 51.7154C34.645 51.8919 34.6223 52.0676 34.5893 52.2415C34.4605 52.2908 34.3291 52.3332 34.1957 52.3685C33.8627 52.4539 33.5247 52.5191 33.1838 52.5636C33.1265 52.3889 33.0603 52.2173 32.9856 52.0494C32.9211 51.9115 32.849 51.7773 32.7695 51.6474C33.0395 51.7003 33.314 51.727 33.5891 51.7272C34.0152 51.7272 34.3673 51.7213 34.6573 51.7154Z" fill="#E6E6E6"/>
<path d="M32.5921 52.6168C31.475 52.7198 30.3562 52.4394 29.4202 51.8218C29.7058 51.3282 29.9531 50.8134 30.1599 50.282C30.8277 50.9089 31.6412 51.3598 32.527 51.5942C32.5352 51.6175 32.5421 51.6411 32.5477 51.6652C32.6053 51.9789 32.6202 52.2991 32.5921 52.6168Z" fill="#E6E6E6"/>
<path d="M35.4768 51.6829C35.4124 51.7519 35.3422 51.8152 35.2667 51.872C35.2667 51.8129 35.2401 51.7538 35.2283 51.6977L35.4768 51.6829Z" fill="#E6E6E6"/>
<path d="M35.5538 51.6061C35.5297 51.6351 35.5041 51.6627 35.4769 51.6888H35.2284C35.2284 51.6622 35.2284 51.6356 35.2047 51.609C35.1114 51.2426 34.9542 50.8954 34.7401 50.5835C34.6199 50.4123 34.4594 50.2732 34.2727 50.1786C34.4118 50.3164 34.5136 50.4873 34.5685 50.6751C34.6543 50.9846 34.6873 51.3063 34.6662 51.6268C34.6676 51.6533 34.6676 51.68 34.6662 51.7066C34.3703 51.7066 34.0241 51.7066 33.598 51.7066C33.3229 51.7063 33.0484 51.6796 32.7784 51.6268C32.7594 51.5951 32.7387 51.5645 32.7163 51.5352C32.6217 51.3984 32.4959 51.286 32.3494 51.2071C32.4215 51.2876 32.4759 51.3822 32.5091 51.4849C32.5207 51.5136 32.5297 51.5433 32.5358 51.5736C31.65 51.3392 30.8365 50.8882 30.1687 50.2614L30.1983 50.1816C30.287 49.9629 30.3699 49.7442 30.4527 49.5225C30.6638 48.9314 30.8542 48.3404 31.0238 47.7493C31.5944 47.6046 32.1809 47.5321 32.7695 47.5335C33.7319 47.5769 34.6623 47.8915 35.4532 48.4408C35.5604 48.6528 35.6523 48.872 35.7284 49.0969C36.0568 50.155 36.0568 51.015 35.5538 51.6061Z" fill="white"/>
<path d="M18.2563 51.7095C18.2563 51.7331 18.2563 51.7568 18.2415 51.7834C18.2259 51.8593 18.2062 51.9343 18.1823 52.008C18.1129 52.1988 17.9997 52.3706 17.8517 52.5097C17.7037 52.6488 17.525 52.7513 17.3302 52.8089C17.1726 52.5129 17.0533 52.1981 16.9751 51.8721C17.0875 51.8721 17.1911 51.8721 17.2888 51.8721C17.6189 51.8835 17.948 51.8282 18.2563 51.7095Z" fill="#E6E6E6"/>
<path d="M16.7029 52.9508C16.2851 52.9926 15.863 52.9586 15.4572 52.8503C15.1849 52.4161 15.0469 51.9113 15.0608 51.3992C15.606 51.602 16.1699 51.7505 16.7444 51.8425C16.6787 52.2082 16.6648 52.5812 16.7029 52.9508Z" fill="#E6E6E6"/>
<path d="M14.7913 52.6198L14.6286 52.5459C13.9628 52.271 13.3652 51.2957 12.8533 50.1017C13.4719 50.6452 14.1849 51.0709 14.957 51.3578C14.7916 51.7566 14.7344 52.1919 14.7913 52.6198Z" fill="#E6E6E6"/>
<path d="M18.2859 51.6061C18.2859 51.6386 18.2859 51.6711 18.2652 51.7036C17.9579 51.8273 17.6288 51.8877 17.2976 51.8809C17.2 51.8809 17.0964 51.8809 16.9839 51.8809C16.9825 51.8534 16.9825 51.8257 16.9839 51.7982C16.9564 51.6325 16.9665 51.4628 17.0135 51.3016C16.9031 51.4402 16.8252 51.6018 16.7857 51.7745L16.768 51.8513C16.1935 51.7593 15.6296 51.6108 15.0844 51.408C15.0829 51.3815 15.0829 51.3548 15.0844 51.3283C15.0988 51.2444 15.1216 51.1622 15.1524 51.0829C15.0955 51.1493 15.0459 51.2217 15.0045 51.2987L14.969 51.3667C14.1969 51.0797 13.4839 50.654 12.8652 50.1106L12.7913 49.9304C12.596 49.4575 12.4155 48.958 12.2498 48.4527C12.7514 47.8901 13.3732 47.4474 14.0693 47.1574C14.7653 46.8673 15.5177 46.7373 16.2709 46.7769C17.078 46.8507 17.873 47.0234 18.6379 47.2912C18.6756 48.7379 18.5576 50.1845 18.2859 51.6061Z" fill="#FAFBFB"/>
<path d="M12.664 51.8809C11.7409 52.453 10.6572 52.7112 9.57497 52.6168C9.54074 52.289 9.55869 51.9578 9.62821 51.6356C10.4926 51.4696 11.3044 51.0987 11.9953 50.554C12.186 51.0118 12.4094 51.4553 12.664 51.8809Z" fill="#E6E6E6"/>
<path d="M9.38254 51.674C9.21111 51.9508 9.07682 52.2489 8.9831 52.5606C8.64224 52.5156 8.30432 52.4504 7.97115 52.3656C7.84096 52.3301 7.70782 52.2888 7.57467 52.2385C7.57467 52.1853 7.5569 52.1351 7.55098 52.0878C7.53027 51.9134 7.50958 51.7332 7.50366 51.5499C7.82782 51.6238 8.15724 51.6722 8.48895 51.6947C8.59843 51.6947 8.70494 51.6947 8.8085 51.6947C9.00008 51.7 9.19183 51.693 9.38254 51.674Z" fill="#E6E6E6"/>
<path d="M7.0215 51.4199C6.97416 51.5676 6.93569 51.7154 6.90314 51.8691C6.64628 51.6801 6.44743 51.4232 6.3291 51.1273C6.55119 51.2442 6.78284 51.3421 7.0215 51.4199Z" fill="#E6E6E6"/>
<path d="M9.65766 51.5499C9.69445 51.4329 9.75266 51.3236 9.8293 51.2277C9.67473 51.3151 9.54294 51.4376 9.44463 51.5854C9.42061 51.6125 9.39978 51.6422 9.38251 51.674C9.19211 51.698 9.00037 51.7098 8.80847 51.7095C8.70491 51.7095 8.5984 51.7095 8.48892 51.7095C8.15721 51.6869 7.82779 51.6385 7.50363 51.5647V51.4849C7.48128 51.2553 7.50451 51.0235 7.57204 50.8029C7.63957 50.5823 7.75007 50.3771 7.89715 50.1993C7.47832 50.4637 7.17501 50.8765 7.04795 51.3548L7.02426 51.4317C6.7855 51.3529 6.55389 51.2541 6.33189 51.1361C6.33189 51.1007 6.30527 51.0652 6.29639 51.0298C6.28751 50.9943 6.29641 50.9765 6.27569 50.9529C6.15124 50.1434 6.28802 49.3153 6.66625 48.5886C8.14568 47.3266 10.4861 47.5601 10.9892 47.6281C11.2585 48.597 11.5846 49.5493 11.9656 50.48C11.9656 50.5037 11.9863 50.5303 11.9981 50.5539C11.3072 51.0987 10.4954 51.4696 9.63104 51.6356C9.63678 51.6061 9.6457 51.5774 9.65766 51.5499Z" fill="#FAFBFB"/>
<path d="M19.8838 9.40001C19.9104 9.51822 19.9341 9.63644 19.9577 9.75466C19.9429 9.67486 19.9252 9.59211 19.9074 9.51232C19.8897 9.43252 19.8926 9.43843 19.8838 9.40001ZM19.8127 9.07492C19.8364 9.18132 19.863 9.29066 19.8838 9.40001C19.8838 9.36159 19.8689 9.32612 19.8601 9.29066C19.8512 9.25519 19.8275 9.14585 19.8127 9.07492Z" fill="#FF9600"/>
<path d="M23.8278 4.59747H24.1H23.8278ZM20.9162 4.55609H20.8452H20.5493H20.2327L19.6084 4.5886C20.9014 4.52062 22.3128 4.50289 23.7242 4.57086C23.2478 4.54722 22.7774 4.53246 22.3158 4.52654C21.8542 4.52063 21.3808 4.54723 20.9162 4.55609Z" fill="#FF9600"/>
<path d="M40.2347 20.6335C40.0645 19.8167 39.8401 19.012 39.563 18.2248C38.5925 15.4615 37.116 12.9583 35.5064 10.5053C36.0667 11.0411 36.5915 11.6127 37.0776 12.2165C37.1186 8.37101 36.2945 4.56539 34.6661 1.08057C34.625 0.993795 34.5513 0.926771 34.4609 0.894105C34.3706 0.861439 34.2709 0.865791 34.1838 0.906208C33.2422 1.34082 32.3291 1.83437 31.4498 2.38391C30.3671 3.06605 29.341 3.83396 28.3815 4.68024C28.818 4.92711 29.2389 5.20051 29.6419 5.49889C29.5561 5.47525 29.4703 5.44866 29.3816 5.42797L29.2987 5.40432L29.3786 5.43978C27.6801 4.98863 25.9403 4.71039 24.1858 4.60932H24.1H23.8278H23.739C23.3839 4.59158 23.0289 4.57976 22.6797 4.57089H22.3306H21.1943H20.9162H20.8452H20.5493H20.2327L19.6084 4.60342H19.3125L19.1143 4.61819H18.919H18.706L18.2888 4.6507H18.2059C16.4171 4.80012 14.6387 5.05473 12.8799 5.41319L12.9302 5.38955H12.8829L12.6876 5.43388C13.1009 5.13023 13.5317 4.85096 13.9777 4.5975C12.2431 3.0756 10.2978 1.81147 8.20198 0.844138C8.11483 0.803722 8.01519 0.799369 7.92484 0.832035C7.83449 0.864701 7.76075 0.931743 7.71968 1.01852C6.13346 4.41407 5.30941 8.11488 5.30524 11.8619C5.72497 11.3855 6.17568 10.9373 6.65446 10.5201C6.18992 11.1644 5.7402 11.8264 5.31412 12.5062C5.26382 12.583 5.21352 12.6628 5.16618 12.7426C3.68771 15.0506 2.63079 17.6022 2.04456 20.2789C2.04456 20.3084 2.04458 20.338 2.02979 20.3675C4.11395 22.0485 6.58187 23.1886 9.21389 23.6864C9.97561 23.8323 10.7492 23.9075 11.5248 23.911C13.1649 23.9478 14.7785 23.4939 16.1584 22.6077H16.1939C19.3781 21.4941 22.8385 21.4454 26.0528 22.4688H26.0824C27.2364 23.2372 28.7454 23.7692 30.7012 23.9672C30.9391 23.9909 31.1781 24.0028 31.4173 24.0027C34.3939 24.0027 37.7581 22.2678 40.2376 20.6601C40.2465 20.6896 40.2436 20.6631 40.2347 20.6335ZM7.57766 8.04941C7.48902 8.10508 7.3865 8.13477 7.28178 8.13511C7.19511 8.13493 7.10977 8.11363 7.03321 8.07305C6.94516 8.03057 6.87081 7.96432 6.81852 7.88179C6.76622 7.79927 6.73808 7.70376 6.73732 7.6061C6.74549 6.18592 6.9022 4.77049 7.20484 3.38284C7.31581 2.95658 7.49569 2.55129 7.73742 2.18294C7.80275 2.08253 7.88741 1.99608 7.98646 1.9286C8.08551 1.86113 8.19698 1.81397 8.31442 1.78987C8.55335 1.74009 8.80228 1.78685 9.00679 1.91991C9.49204 2.24205 10.0838 2.67649 10.646 3.10207C11.2082 3.52765 11.7408 3.96209 12.1254 4.26354C12.1837 4.30921 12.2299 4.36828 12.2603 4.4357C12.2907 4.50312 12.3044 4.57688 12.3 4.6507C12.2973 4.72427 12.2771 4.79615 12.2411 4.86039C12.2051 4.92463 12.1543 4.97937 12.0929 5.02012C11.1579 5.65849 8.8411 7.21598 7.57766 8.04941ZM10.359 13.9868C10.4093 13.2332 11.5159 12.6894 12.8208 12.778C14.1256 12.8667 15.1523 13.5465 15.102 14.3001C15.0759 14.4927 15.0007 14.6754 14.8836 14.8306C14.7665 14.9859 14.6115 15.1085 14.4333 15.1867C13.9632 15.4272 13.4405 15.547 12.9125 15.5354H12.6403C11.3325 15.4231 10.2968 14.7404 10.359 13.9868ZM16.0518 19.4839C16.0255 20.2432 15.7674 20.9764 15.3121 21.5851C15.1438 21.824 14.923 22.0212 14.6665 22.1616C14.4101 22.302 14.1248 22.3818 13.8327 22.3949H13.7499C13.4422 22.3671 13.1461 22.2637 12.888 22.0941C12.6299 21.9245 12.4178 21.6938 12.2704 21.4226C11.8854 20.7686 11.7089 20.0129 11.7644 19.2563C11.8532 17.5894 12.8888 16.3009 14.0694 16.3482C15.25 16.3955 16.1436 17.817 16.0518 19.4839ZM29.6212 21.4137C29.4739 21.685 29.2617 21.9156 29.0036 22.0852C28.7455 22.2549 28.4495 22.3582 28.1418 22.3861H28.0589C26.9109 22.3861 25.9226 21.1064 25.8339 19.4779C25.8339 19.3981 25.8339 19.3213 25.8339 19.2445C25.8339 17.6811 26.6919 16.3984 27.8193 16.3363C28.1268 16.334 28.4304 16.4065 28.7036 16.5476C28.9769 16.6886 29.2116 16.8941 29.3875 17.1461C29.8296 17.7608 30.0863 18.489 30.1272 19.2447C30.1681 20.0005 29.9915 20.7521 29.6183 21.4108L29.6212 21.4137ZM30.8965 15.0005C30.4018 15.3051 29.8377 15.479 29.2573 15.5059H28.9792C28.4906 15.5142 28.0063 15.4132 27.5618 15.2103C27.0914 14.9828 26.8192 14.6547 26.7955 14.2853C26.7718 13.9159 26.9967 13.5524 27.4317 13.2657C27.9272 12.9606 28.4923 12.7867 29.0738 12.7603C30.3816 12.6746 31.4853 13.2155 31.5356 13.9691C31.5622 14.3503 31.3344 14.7138 30.8965 15.0005ZM35.2105 8.13511C35.1058 8.13477 35.0033 8.10508 34.9146 8.04941C33.6571 7.21894 31.3344 5.65849 30.3965 5.02604C30.3351 4.98529 30.2842 4.93053 30.2482 4.86629C30.2122 4.80205 30.192 4.73019 30.1893 4.65661C30.185 4.5828 30.1986 4.50903 30.229 4.44161C30.2594 4.37419 30.3057 4.31512 30.3639 4.26946C31.1036 3.67838 32.4972 2.55828 33.4707 1.90514C33.5714 1.83919 33.6841 1.79375 33.8024 1.77144C33.9208 1.74912 34.0423 1.75036 34.1601 1.7751C34.2776 1.7992 34.389 1.84635 34.4881 1.91383C34.5871 1.98131 34.6718 2.06774 34.7371 2.16815C34.9788 2.5365 35.1587 2.94181 35.2697 3.36806C35.5724 4.75572 35.729 6.17115 35.7372 7.59132C35.7364 7.68898 35.7083 7.78448 35.656 7.867C35.6037 7.94953 35.5294 8.0158 35.4413 8.05828C35.3712 8.10105 35.2923 8.12731 35.2105 8.13511Z" fill="#143FFD"/>
<path d="M14.0695 16.357C12.886 16.295 11.8533 17.5983 11.7616 19.2651C11.7057 20.0218 11.8822 20.7776 12.2676 21.4315C12.4156 21.7024 12.6278 21.933 12.8858 22.103C13.1437 22.273 13.4394 22.3773 13.747 22.4067H13.8328C14.1251 22.3942 14.4106 22.3147 14.6671 22.1743C14.9237 22.0338 15.1444 21.8363 15.3122 21.597C15.7658 20.9884 16.0237 20.2567 16.0519 19.4986C16.1377 17.8288 15.2501 16.4368 14.0695 16.357ZM15.1199 18.9903C15.1066 19.2406 15.0281 19.483 14.8921 19.6937C14.8463 19.7723 14.7818 19.8384 14.7045 19.8863C14.6271 19.9343 14.5391 19.9625 14.4483 19.9685H14.4216C14.0754 19.9449 13.8299 19.4661 13.8654 18.9016C13.8787 18.6518 13.9583 18.4101 14.0961 18.2012C14.1427 18.1175 14.211 18.0479 14.2937 17.9995C14.3765 17.9512 14.4708 17.9259 14.5666 17.9263C14.9098 17.95 15.1584 18.4288 15.1199 18.9903Z" fill="black"/>
<path d="M15.1198 18.9903C15.1064 19.2406 15.0279 19.483 14.8919 19.6937C14.8461 19.7723 14.7817 19.8384 14.7043 19.8863C14.6269 19.9343 14.539 19.9625 14.4481 19.9685H14.4215C14.0753 19.9449 13.8297 19.4661 13.8652 18.9016C13.8786 18.6518 13.9582 18.4101 14.096 18.2012C14.1426 18.1175 14.2108 18.0479 14.2936 17.9995C14.3764 17.9512 14.4706 17.9259 14.5665 17.9263C14.9097 17.95 15.1582 18.4288 15.1198 18.9903Z" fill="white"/>
<path d="M15.0961 14.3148C15.0669 14.5041 14.9907 14.6831 14.8744 14.8354C14.7581 14.9877 14.6054 15.1085 14.4304 15.1867C13.9595 15.4248 13.4372 15.5436 12.9095 15.5325H12.6344C11.3266 15.4468 10.3057 14.7611 10.356 14.0075C10.4063 13.2539 11.51 12.7101 12.8178 12.7987C14.1256 12.8874 15.1464 13.5612 15.0961 14.3148Z" fill="white"/>
<path d="M12.3001 4.66841C12.2966 4.74254 12.2757 4.81483 12.2393 4.87949C12.2028 4.94415 12.1517 4.99938 12.09 5.04079C11.155 5.67029 8.83526 7.22778 7.57182 8.0612C7.48444 8.11997 7.38127 8.15089 7.27594 8.14988C7.18791 8.15003 7.10129 8.12764 7.0244 8.08485C6.9368 8.04259 6.86273 7.97679 6.81047 7.89483C6.75821 7.81288 6.72982 7.71801 6.72852 7.62085C6.73569 6.20045 6.89342 4.78482 7.199 3.39759C7.30811 2.97069 7.48812 2.5651 7.73158 2.1977C7.79741 2.09733 7.88242 2.01091 7.9817 1.94337C8.08099 1.87583 8.1926 1.82849 8.3102 1.80406C8.42781 1.77964 8.54908 1.77861 8.6671 1.80101C8.78511 1.82342 8.89755 1.86883 8.99798 1.93466C9.48324 2.25384 10.075 2.68829 10.6372 3.11682C11.1994 3.54535 11.732 3.97684 12.1166 4.27829C12.1763 4.32381 12.2242 4.38305 12.2561 4.45095C12.2881 4.51886 12.3031 4.59344 12.3001 4.66841Z" fill="#0630C9"/>
<path d="M40.3146 21.0886C40.3146 21.0354 40.2968 20.9822 40.285 20.929L40.2495 20.7428C37.7699 22.3505 34.4057 24.0854 31.4291 24.0854C31.1865 24.0854 30.9468 24.0735 30.7101 24.0499C28.7306 23.8519 27.2216 23.311 26.0617 22.5308C22.8474 21.5074 19.3869 21.5561 16.2027 22.6697C14.8167 23.5714 13.1903 24.0339 11.5366 23.9967C10.761 23.9933 9.98742 23.9181 9.22573 23.7721C6.59221 23.2761 4.12285 22.1358 2.03862 20.4532C1.9068 21.1366 1.81785 21.8275 1.77232 22.522C1.74865 22.9032 1.73978 23.2845 1.74274 23.6598V23.9346C1.74274 24.2479 1.77235 24.5582 1.8049 24.8626C1.8049 24.9543 1.82561 25.0459 1.83744 25.1375C1.86999 25.4064 1.91435 25.6724 1.96465 25.9354C1.98536 26.03 2.00314 26.1216 2.02385 26.2133C2.70735 27.4693 4.14239 29.7243 6.33491 31.2788C9.58966 33.587 16.4809 34.4056 21.3867 34.4056C26.4434 34.4056 33.2813 33.3092 35.9916 31.2788C37.7436 29.9436 39.2053 28.2664 40.2879 26.3492C40.3086 26.2605 40.3264 26.1689 40.3442 26.0773C40.6405 24.4266 40.6305 22.7356 40.3146 21.0886Z" fill="white"/>
<path d="M25.9493 28.0663C25.6183 28.522 25.1377 28.8472 24.5912 28.9854L24.4876 29.012C24.1207 29.68 23.0792 31.1695 21.1293 31.0808C20.4502 31.0443 19.7931 30.8276 19.2257 30.4531C18.6583 30.0785 18.2011 29.5597 17.9012 28.95L17.8006 28.9204C17.3581 28.8139 16.9588 28.5748 16.6563 28.2351C16.3538 27.8954 16.1625 27.4715 16.1081 27.0201V26.9492C16.1081 26.893 16.1081 26.8398 16.1081 26.7866C16.0996 26.5751 16.1195 26.3634 16.1673 26.1571C16.3892 27.5018 17.0875 28.4623 18.4989 28.5214C18.9947 28.5539 19.4918 28.4813 19.9576 28.3086C20.1949 28.2124 20.4081 28.0654 20.5824 27.878C20.7567 27.6906 20.8879 27.4674 20.9666 27.224V27.2033L21.008 25.8557C19.209 25.7079 18.6794 23.914 18.6794 23.914C18.6794 23.914 18.9013 22.7318 21.1708 22.7318C23.4402 22.7318 23.7568 23.846 23.7568 23.846C23.7568 23.846 23.2805 25.6931 21.4844 25.8439L21.4637 27.1738C21.5608 27.4963 21.7431 27.7868 21.9914 28.0146C22.2398 28.2424 22.5451 28.3991 22.8751 28.4683C23.0829 28.5235 23.2963 28.5552 23.5112 28.5628C24.0027 28.6134 24.4982 28.5199 24.9374 28.2939C25.1709 28.1577 25.3727 27.9733 25.5292 27.753C25.7318 27.5472 25.8961 27.3071 26.0144 27.0437C26.1462 26.7645 26.2283 26.4645 26.257 26.1571H26.2748C26.2748 26.2015 26.2748 26.2458 26.2926 26.2931C26.3103 26.3403 26.2926 26.4468 26.3103 26.5266C26.3342 27.0632 26.2093 27.596 25.9493 28.0663Z" fill="white"/>
<path d="M23.7064 29.08C23.5422 29.0772 23.3782 29.0654 23.2153 29.0445L22.9697 29.0091C22.8046 28.9779 22.6423 28.9335 22.4844 28.8761C21.9501 28.6982 21.4962 28.337 21.2032 27.8565C21.1388 27.9666 21.0656 28.0714 20.9843 28.1697C20.3659 28.9027 19.351 29.0859 18.4426 29.012C18.2599 28.9996 18.0787 28.9709 17.9011 28.9263C18.2005 29.5364 18.6576 30.0556 19.2251 30.4302C19.7926 30.8048 20.45 31.0213 21.1293 31.0572C23.0792 31.1577 24.1177 29.6681 24.4876 28.9884C24.2325 29.0541 23.9698 29.0849 23.7064 29.08ZM23.2094 29.8189C22.6699 30.3304 21.953 30.6132 21.2092 30.608C20.4618 30.609 19.7407 30.3331 19.1853 29.8336L19.1675 29.8159V29.7893C19.3576 29.4251 19.6459 29.1212 20 28.9123C20.354 28.7034 20.7596 28.5976 21.1707 28.6071H21.1885C21.5984 28.5974 22.0031 28.6999 22.3589 28.9036C22.7146 29.1073 23.0077 29.4045 23.2064 29.7627V29.7864L23.2094 29.8189Z" fill="black"/>
<path d="M23.2183 29.7745C23.0196 29.4163 22.7265 29.1192 22.3708 28.9155C22.015 28.7118 21.6103 28.6092 21.2003 28.619H21.1826C20.7715 28.6095 20.3659 28.7152 20.0119 28.9241C19.6578 29.133 19.3695 29.4369 19.1794 29.8011V29.8277L19.1972 29.8455C19.7526 30.3449 20.4737 30.6208 21.2211 30.6198C21.9649 30.625 22.6818 30.3422 23.2213 29.8307L23.239 29.81L23.2183 29.7745ZM22.7833 30.0701C22.3163 30.378 21.7688 30.5414 21.2092 30.54C20.6524 30.5402 20.1068 30.3835 19.6351 30.0878C19.6103 30.0738 19.5866 30.058 19.5641 30.0405C19.5966 29.8455 19.7742 28.9973 20.434 28.9973C20.6012 28.9889 20.7664 29.0367 20.9032 29.1332C21.04 29.2296 21.1404 29.369 21.1885 29.5292C21.2391 29.3693 21.3403 29.2301 21.4769 29.1326C21.6135 29.035 21.7781 28.9844 21.946 28.9884C22.2026 29.0081 22.4416 29.1267 22.6122 29.3192C22.7828 29.5117 22.8718 29.763 22.8603 30.0198L22.7833 30.0701Z" fill="#E2817A"/>
<path d="M22.8601 30.008L22.7832 30.0582C22.3162 30.3662 21.7687 30.5296 21.2091 30.5281C20.6523 30.5284 20.1067 30.3717 19.635 30.076C19.6102 30.0619 19.5865 30.0461 19.564 30.0287C19.5965 29.8336 19.7741 28.9854 20.4339 28.9854C20.6011 28.9771 20.7663 29.0249 20.9031 29.1214C21.0399 29.2178 21.1403 29.3572 21.1884 29.5174C21.239 29.3575 21.3402 29.2183 21.4768 29.1207C21.6134 29.0232 21.778 28.9726 21.9459 28.9766C22.2025 28.9963 22.4414 29.1149 22.6121 29.3074C22.7827 29.4999 22.8717 29.7511 22.8601 30.008Z" fill="#FCA89F"/>
<path d="M25.9492 28.0574C25.6171 28.5114 25.1368 28.8355 24.5911 28.9736C24.5573 28.9852 24.5226 28.9941 24.4875 29.0002C24.2319 29.0619 23.9691 29.0887 23.7063 29.08C23.5421 29.0772 23.3781 29.0654 23.2152 29.0445L22.9696 29.0091C22.8045 28.9779 22.6422 28.9334 22.4843 28.8761C21.95 28.6982 21.4961 28.3369 21.2031 27.8565C21.1387 27.9666 21.0655 28.0714 20.9842 28.1697C20.3658 28.9027 19.3509 29.0859 18.4425 29.012C18.2598 28.9996 18.0786 28.9709 17.901 28.9263L17.8004 28.8997C17.2746 28.7632 16.8118 28.4501 16.4897 28.0131C16.3086 27.7429 16.1848 27.4387 16.1258 27.119C16.0667 26.7994 16.0738 26.471 16.1464 26.1541C16.3683 27.4988 17.0666 28.4594 18.478 28.5185C18.9738 28.5509 19.4709 28.4783 19.9367 28.3057C20.174 28.2094 20.3872 28.0624 20.5615 27.875C20.7358 27.6876 20.867 27.4644 20.9457 27.221V27.2003L20.9871 25.8409C19.1881 25.6931 18.6585 23.8992 18.6585 23.8992C18.6585 23.8992 18.8804 22.717 21.1499 22.717C23.4193 22.717 23.7359 23.8312 23.7359 23.8312C23.7359 23.8312 23.2566 25.6783 21.4635 25.8291L21.4399 27.1678C21.5376 27.4909 21.7204 27.7817 21.9692 28.01C22.218 28.2382 22.5236 28.3955 22.8542 28.4653C23.062 28.5205 23.2754 28.5522 23.4903 28.5598C23.9818 28.6104 24.4774 28.5169 24.9165 28.2909C25.1501 28.1547 25.3518 27.9704 25.5083 27.7501C25.7109 27.5443 25.8752 27.3041 25.9936 27.0408C26.1253 26.7615 26.2074 26.4615 26.2362 26.1541H26.2539C26.3643 26.8048 26.2572 27.4736 25.9492 28.0574Z" fill="black"/>
<path d="M29.3787 5.44567C27.6802 4.99452 25.9404 4.71628 24.1858 4.61521H24.1001C23.6237 4.5827 23.1473 4.56496 22.6798 4.5561H22.3307H21.1944H20.9163H20.8453H20.5494C20.4429 4.5561 20.3364 4.5561 20.2328 4.5561C19.9162 4.5561 19.6055 4.58566 19.3008 4.60339L19.1025 4.61817H18.9072H18.6942L18.277 4.65067H18.1941C16.4053 4.80009 14.6269 5.0547 12.8682 5.41317L12.9185 5.38952C15.6631 4.12072 18.662 3.49597 21.6856 3.56309C24.3075 3.66031 26.8849 4.26977 29.2722 5.35701L29.3787 5.44567Z" fill="#0630C9"/>
<path d="M30.1212 19.2622C30.0934 18.5031 29.8354 17.7703 29.3815 17.1609C29.2064 16.9083 28.9717 16.7026 28.6983 16.5619C28.4248 16.4212 28.1209 16.3498 27.8133 16.3541C26.6889 16.4132 25.8279 17.6958 25.8279 19.2592C25.8279 19.3361 25.8279 19.4159 25.8279 19.4927C25.9137 21.1211 26.9049 22.4038 28.05 22.4038H28.1329C28.44 22.3742 28.7354 22.2701 28.9932 22.1007C29.251 21.9312 29.4635 21.7015 29.6123 21.4315C29.9985 20.7768 30.176 20.0201 30.1212 19.2622ZM27.4582 19.9656H27.4286C27.0943 19.9656 26.7984 19.5341 26.757 18.9873C26.757 18.946 26.757 18.9075 26.757 18.8662C26.757 18.3578 26.9937 17.9441 27.3162 17.9204C27.6387 17.8968 27.9731 18.3342 28.0145 18.8987C28.0559 19.4632 27.8103 19.939 27.4582 19.9656Z" fill="black"/>
<path d="M27.4583 19.9656H27.4287C27.0944 19.9656 26.7985 19.5341 26.7571 18.9873C26.7571 18.946 26.7571 18.9075 26.7571 18.8662C26.7571 18.3578 26.9938 17.9441 27.3163 17.9204C27.6388 17.8968 27.9732 18.3342 28.0146 18.8987C28.056 19.4632 27.8104 19.939 27.4583 19.9656Z" fill="white"/>
<path d="M30.8935 15.0123C30.3986 15.3187 29.8331 15.4927 29.2513 15.5177H28.9732C28.4848 15.5242 28.0009 15.4233 27.5559 15.2222C27.0854 14.9916 26.8132 14.6636 26.7896 14.2942C26.795 14.0826 26.8571 13.8764 26.9696 13.6971C27.082 13.5177 27.2405 13.3718 27.4287 13.2745C27.9233 12.97 28.4874 12.7961 29.0679 12.7692C30.3786 12.6835 31.4823 13.2243 31.5297 13.9809C31.5563 14.368 31.3285 14.7256 30.8935 15.0123Z" fill="white"/>
<path d="M35.7433 7.62085C35.7425 7.76091 35.6865 7.89502 35.5873 7.99406C35.4882 8.0931 35.3539 8.1491 35.2137 8.14988C35.1083 8.15089 35.0052 8.11997 34.9178 8.0612C33.6573 7.23073 31.3376 5.67029 30.3967 5.04079C30.3354 4.99923 30.2847 4.9439 30.2487 4.87922C30.2127 4.81455 30.1925 4.74233 30.1895 4.66841C30.1859 4.59469 30.1998 4.52116 30.2302 4.45386C30.2605 4.38656 30.3064 4.32741 30.3641 4.28125C31.1068 3.69017 32.4974 2.57303 33.4709 1.93466C33.5713 1.86883 33.6838 1.82342 33.8018 1.80101C33.9198 1.77861 34.0411 1.77964 34.1587 1.80406C34.2763 1.82849 34.3879 1.87583 34.4872 1.94337C34.5865 2.01091 34.6715 2.09733 34.7373 2.1977C34.9808 2.5651 35.1608 2.97069 35.2699 3.39759C35.5778 4.78449 35.7365 6.20027 35.7433 7.62085Z" fill="#0630C9"/>
<path d="M21.5939 40.7332C21.0327 40.7332 20.4841 40.5669 20.0174 40.2555C19.5508 39.9441 19.1871 39.5014 18.9723 38.9835C18.7576 38.4656 18.7014 37.8958 18.8109 37.346C18.9204 36.7962 19.1906 36.2912 19.5874 35.8948C19.9843 35.4985 20.4899 35.2285 21.0403 35.1192C21.5908 35.0098 22.1613 35.0659 22.6798 35.2804C23.1983 35.495 23.6415 35.8582 23.9532 36.3243C24.265 36.7904 24.4315 37.3384 24.4315 37.8989C24.4307 38.6504 24.1315 39.3708 23.5995 39.9022C23.0675 40.4335 22.3462 40.7324 21.5939 40.7332Z" fill="black"/>
<path d="M21.5939 35.7385C21.1654 35.7385 20.7465 35.8655 20.3903 36.1033C20.034 36.3412 19.7564 36.6792 19.5926 37.0747C19.4287 37.4702 19.386 37.9053 19.4698 38.325C19.5536 38.7448 19.7602 39.1302 20.0634 39.4327C20.3666 39.7351 20.7528 39.9409 21.1731 40.024C21.5935 40.1072 22.0291 40.0639 22.4248 39.8997C22.8205 39.7355 23.1586 39.4578 23.3962 39.1016C23.6338 38.7455 23.7604 38.3269 23.7598 37.8989C23.759 37.3257 23.5305 36.7762 23.1244 36.3711C22.7183 35.966 22.1678 35.7385 21.5939 35.7385Z" fill="#143FFD"/>
<path d="M53.156 23.9376C52.7475 23.9322 52.3573 23.7676 52.0688 23.4788C51.7802 23.19 51.6161 22.7999 51.6115 22.3919V6.76083C51.6089 6.55955 51.6468 6.35981 51.7231 6.17348C51.7993 5.98715 51.9123 5.81804 52.0553 5.6762C52.3435 5.38595 52.7349 5.22127 53.1442 5.2181L58.6447 5.19151C60.184 5.15373 61.6773 5.71668 62.8078 6.76083C63.3488 7.24274 63.7797 7.83526 64.0712 8.49817C64.3627 9.16109 64.5081 9.87889 64.4973 10.6029C64.5029 11.3134 64.363 12.0176 64.0862 12.6722C63.8094 13.3268 63.4016 13.918 62.8877 14.4094C63.502 14.8875 63.9969 15.5015 64.3332 16.203C64.6695 16.9046 64.8381 17.6746 64.8258 18.4524C64.8323 19.184 64.6811 19.9084 64.3824 20.5764C64.0837 21.2445 63.6446 21.8405 63.0948 22.324C61.9816 23.3869 60.4921 23.966 58.9524 23.9347L53.156 23.9376ZM54.7005 13.0529H58.6565C59.3697 13.0637 60.061 12.8075 60.5946 12.3347C60.8479 12.1232 61.0518 11.8588 61.1919 11.5601C61.3319 11.2614 61.4048 10.9356 61.4053 10.6058C61.4074 10.2886 61.3365 9.97517 61.1979 9.68973C61.0594 9.40429 60.857 9.1545 60.6064 8.95965C60.0621 8.50148 59.368 8.25951 58.6565 8.27991L54.7005 8.30354V13.0529ZM54.7005 20.8492H58.9583C59.6784 20.8659 60.3788 20.6141 60.923 20.1429C61.1773 19.9413 61.3825 19.6847 61.5229 19.3924C61.6634 19.1 61.7355 18.7796 61.7337 18.4554C61.734 18.1401 61.6622 17.829 61.5237 17.5458C61.3853 17.2625 61.1839 17.0146 60.9349 16.821C60.3906 16.3628 59.6965 16.1209 58.985 16.1413H54.7005V20.8492Z" fill="white"/>
<path d="M69.6637 5.17969C70.0724 5.18353 70.4633 5.34722 70.7526 5.63562C71.0419 5.92403 71.2065 6.31419 71.2111 6.72242V20.8492H78.1379C78.3429 20.8465 78.5463 20.8858 78.7356 20.9646C78.9249 21.0434 79.0961 21.16 79.2386 21.3073C79.5232 21.5973 79.6826 21.9873 79.6826 22.3934C79.6826 22.7996 79.5232 23.1895 79.2386 23.4795C79.0961 23.6269 78.9249 23.7435 78.7356 23.8223C78.5463 23.901 78.3429 23.9403 78.1379 23.9376H69.6637C69.2552 23.9322 68.865 23.7676 68.5764 23.4788C68.2878 23.19 68.1237 22.8 68.1191 22.392V6.72833C68.1238 6.32061 68.288 5.93087 68.5766 5.64255C68.8653 5.35423 69.2555 5.19021 69.6637 5.1856V5.17969Z" fill="white"/>
<path d="M93.311 5.1797C93.7138 5.17969 94.1002 5.33934 94.3854 5.62358C94.6705 5.90783 94.831 6.29345 94.8318 6.69582V17.2377C94.8318 19.0123 94.126 20.7142 92.8698 21.969C91.6135 23.2238 89.9096 23.9288 88.133 23.9288C86.3563 23.9288 84.6524 23.2238 83.3961 21.969C82.1399 20.7142 81.4341 19.0123 81.4341 17.2377V6.684C81.4514 6.2931 81.619 5.92393 81.902 5.65342C82.1851 5.38291 82.5617 5.23192 82.9535 5.23192C83.3452 5.23192 83.7218 5.38291 84.0049 5.65342C84.2879 5.92393 84.4555 6.2931 84.4728 6.684V17.2259C84.4728 18.1955 84.8585 19.1254 85.5449 19.811C86.2313 20.4966 87.1622 20.8817 88.133 20.8817C89.1037 20.8817 90.0346 20.4966 90.721 19.811C91.4074 19.1254 91.7931 18.1955 91.7931 17.2259V6.684C91.7927 6.48479 91.8317 6.28747 91.9078 6.10335C91.984 5.91923 92.0957 5.75194 92.2368 5.61108C92.3778 5.47022 92.5453 5.35855 92.7297 5.2825C92.914 5.20644 93.1115 5.16749 93.311 5.16788V5.1797Z" fill="white"/>
<path d="M109.768 20.8374C109.971 20.8334 110.172 20.8718 110.359 20.9501C110.546 21.0285 110.715 21.1452 110.854 21.2925C111.002 21.4347 111.118 21.6057 111.197 21.7948C111.276 21.9839 111.315 22.1871 111.313 22.3919C111.308 22.7999 111.144 23.19 110.855 23.4788C110.567 23.7676 110.177 23.9322 109.768 23.9376H100.3C99.8907 23.933 99.4998 23.7687 99.2105 23.4798C98.9213 23.1909 98.7568 22.8005 98.7522 22.3919V6.70763C98.7485 6.50312 98.7874 6.30006 98.8663 6.11132C98.9453 5.92259 99.0626 5.75228 99.2108 5.61117C99.35 5.46275 99.5188 5.34524 99.7064 5.26632C99.894 5.18739 100.096 5.14882 100.3 5.15309L109.768 5.17968C109.973 5.17662 110.176 5.21542 110.365 5.29368C110.555 5.37195 110.726 5.48804 110.869 5.63482C111.012 5.7794 111.125 5.9511 111.202 6.13988C111.278 6.32865 111.316 6.5307 111.313 6.73422C111.308 7.14223 111.144 7.53227 110.855 7.82107C110.567 8.10986 110.177 8.27454 109.768 8.27991L101.856 8.2533V12.9997H107.567C107.771 12.997 107.973 13.0351 108.162 13.1117C108.351 13.1884 108.523 13.302 108.667 13.4459C108.813 13.5897 108.928 13.7607 109.006 13.9491C109.085 14.1376 109.126 14.3397 109.126 14.5439C109.126 14.748 109.085 14.9502 109.006 15.1386C108.928 15.3271 108.813 15.4981 108.667 15.6418C108.523 15.7863 108.352 15.9003 108.163 15.977C107.973 16.0536 107.771 16.0914 107.567 16.0881H101.856V20.8374H109.768Z" fill="white"/>
<path d="M63.5564 31.2759C63.761 31.2734 63.9639 31.3128 64.1527 31.3916C64.3415 31.4703 64.5121 31.5868 64.6541 31.7339C64.7988 31.8778 64.9129 32.0493 64.9897 32.2382C65.0665 32.4271 65.1043 32.6295 65.1009 32.8333C65.0956 33.2408 64.9311 33.6301 64.6426 33.9183C64.3541 34.2065 63.9644 34.3707 63.5564 34.3761L55.6474 34.3495V39.0988H61.358C61.5616 39.0955 61.7638 39.1333 61.9524 39.21C62.1411 39.2867 62.3123 39.4007 62.4557 39.5451C62.6009 39.6888 62.7162 39.8598 62.7948 40.0482C62.8735 40.2367 62.914 40.4388 62.914 40.643C62.914 40.8472 62.8735 41.0493 62.7948 41.2378C62.7162 41.4262 62.6009 41.5972 62.4557 41.7409C62.3123 41.8853 62.1411 41.9993 61.9524 42.076C61.7638 42.1526 61.5616 42.1905 61.358 42.1872H55.6474V48.4911C55.6509 48.6938 55.6118 48.895 55.5329 49.0818C55.4539 49.2686 55.3367 49.4368 55.1887 49.5757C55.0471 49.7241 54.8761 49.8415 54.6866 49.9204C54.4971 49.9993 54.2933 50.0379 54.088 50.0338C53.6801 50.0284 53.2903 49.8641 53.0018 49.576C52.7133 49.2878 52.5489 48.8985 52.5435 48.4911V32.8067C52.5394 32.6017 52.578 32.3981 52.657 32.2089C52.736 32.0196 52.8535 31.8488 53.0021 31.7073C53.1412 31.5597 53.3097 31.4427 53.4967 31.3638C53.6837 31.285 53.8851 31.2459 54.088 31.2492L63.5564 31.2759Z" fill="white"/>
<path d="M68.7227 31.2759C69.1312 31.2813 69.5214 31.4459 69.81 31.7347C70.0986 32.0235 70.2627 32.4135 70.2673 32.8215V46.9484H77.1969C77.4017 46.9447 77.605 46.9835 77.794 47.0623C77.9829 47.1412 78.1534 47.2584 78.2947 47.4064C78.5813 47.6949 78.7421 48.0847 78.7421 48.4911C78.7421 48.8974 78.5813 49.2873 78.2947 49.5757C78.1534 49.7238 77.9829 49.841 77.794 49.9198C77.605 49.9987 77.4017 50.0375 77.1969 50.0338H68.7227C68.3148 50.0284 67.925 49.8642 67.6365 49.576C67.348 49.2879 67.1836 48.8986 67.1782 48.4911V32.8275C67.1828 32.4195 67.3469 32.0294 67.6355 31.7406C67.9241 31.4518 68.3143 31.2872 68.7227 31.2818V31.2759Z" fill="white"/>
<path d="M89.0026 50.0338C86.826 50.0353 84.7161 49.283 83.0325 47.905C81.3488 46.527 80.1956 44.6086 79.7692 42.4766C79.3428 40.3446 79.6697 38.1308 80.6941 36.2125C81.7185 34.2942 83.3772 32.79 85.3874 31.9562C87.3976 31.1223 89.6351 31.0104 91.7187 31.6395C93.8022 32.2685 95.603 33.5997 96.8142 35.4062C98.0254 37.2126 98.572 39.3827 98.361 41.5465C98.1501 43.7104 97.1945 45.7343 95.6571 47.2735C94.7972 48.1654 93.7626 48.8709 92.6177 49.3458C91.4728 49.8207 90.2422 50.0549 89.0026 50.0338ZM89.0026 34.3377C87.5451 34.3402 86.1334 34.8473 85.0081 35.7726C83.8827 36.6979 83.1133 37.9842 82.8308 39.4125C82.5482 40.8408 82.7701 42.3227 83.4586 43.606C84.1471 44.8892 85.2596 45.8945 86.6067 46.4505C87.9538 47.0065 89.4522 47.079 90.8467 46.6555C92.2413 46.2321 93.4458 45.3389 94.2552 44.1281C95.0645 42.9172 95.4287 41.4636 95.2856 40.0148C95.1426 38.5659 94.5011 37.2114 93.4705 36.1818C92.8923 35.5848 92.1972 35.113 91.4286 34.7957C90.6599 34.4784 89.8342 34.3225 89.0026 34.3377Z" fill="white"/>
<path d="M103.232 49.9156C102.827 49.914 102.439 49.7525 102.152 49.4663C101.866 49.1801 101.704 48.7924 101.702 48.3876V32.8452C101.704 32.4404 101.866 32.0527 102.152 31.7665C102.439 31.4803 102.827 31.3188 103.232 31.3172C103.435 31.3144 103.637 31.3533 103.824 31.4316C104.011 31.5099 104.18 31.6259 104.321 31.7724C104.464 31.912 104.576 32.079 104.653 32.2634C104.729 32.4478 104.767 32.6457 104.765 32.8452V39.7283L112.257 31.864C112.394 31.7156 112.56 31.5965 112.745 31.5137C112.929 31.4309 113.128 31.3862 113.331 31.3823C113.532 31.3755 113.732 31.4104 113.919 31.4846C114.106 31.5589 114.275 31.6709 114.417 31.8137C114.71 32.093 114.88 32.477 114.89 32.8815C114.9 33.2859 114.749 33.6778 114.47 33.9712L108.182 40.5765L114.718 47.4448C114.858 47.5913 114.967 47.7638 115.039 47.9525C115.111 48.1412 115.145 48.3424 115.139 48.5443C115.129 48.8464 115.031 49.1391 114.856 49.3857C114.681 49.6323 114.437 49.8218 114.155 49.9307C113.872 50.0395 113.564 50.0627 113.269 49.9975C112.973 49.9322 112.703 49.7814 112.493 49.5639L106.061 42.8019L104.765 44.1732V48.3876C104.767 48.5871 104.729 48.785 104.653 48.9694C104.576 49.1537 104.464 49.3208 104.321 49.4604C104.18 49.6069 104.011 49.7229 103.824 49.8012C103.637 49.8795 103.435 49.9184 103.232 49.9156Z" fill="white"/>
<path d="M119.455 50.0338C119.047 50.0292 118.656 49.8653 118.367 49.577C118.078 49.2888 117.913 48.8991 117.908 48.4911V32.8865C117.925 32.4887 118.096 32.1129 118.384 31.8375C118.672 31.5622 119.055 31.4084 119.454 31.4084C119.853 31.4084 120.236 31.5622 120.524 31.8375C120.812 32.1129 120.983 32.4887 121 32.8865V48.4911C120.995 48.8986 120.83 49.2878 120.542 49.576C120.253 49.8642 119.863 50.0284 119.455 50.0338Z" fill="white"/>
</g>
<defs>
<clipPath id="clip0_44_3414">
<rect width="121" height="55" fill="white" transform="translate(0 0.0934448)"/>
</clipPath>
</defs>
</svg>
