<?xml version="1.0" encoding="utf-8"?>
<!-- Generator: Adobe Illustrator 25.4.1, SVG Export Plug-In . SVG Version: 6.00 Build 0)  -->
<svg version="1.1" id="Ebene_1" xmlns="http://www.w3.org/2000/svg" xmlns:xlink="http://www.w3.org/1999/xlink" x="0px" y="0px"
	 viewBox="0 0 228 40" style="enable-background:new 0 0 228 40;" xml:space="preserve">
<style type="text/css">
	.st0{fill:#18171F;}
	.st1{fill:#E70C00;}
	.st2{fill:#DBBDBF;}
	.st3{fill:#A50400;}
	.st4{fill:#FF3E39;}
	.st5{fill:#FF9C9C;}
	.st6{fill:#E06E6E;}
	.st7{fill:#FFFFFF;}
	.st8{fill:#113CFC;}
	.st9{fill:#193498;}
	.st10{fill:#1597E5;}
</style>
<path class="st0" d="M23.4,24.1c-0.7-1.4-1.6-2-2.2-2.4c-0.7-0.3-1.2-0.3-1.2-0.3s-2,0-3.4,2.7c-1.5,2.8-4.6,5-8.4,3.8
	c-1.9-0.6-3.1-1.4-4.2-1.7c0.7,3.9,3,6.6,6,8.4c3,1.8,6.7,2.6,10,2.6c6.6,0,14.7-3.4,16-11.1c-1.1,0.4-2.3,1.1-4.2,1.7
	C28,29.1,24.9,26.9,23.4,24.1z M24.5,33L24.5,33c-0.2,0.5-0.5,0.9-0.8,1.3c-0.6,0.8-1.8,1.8-3.8,1.8c-2,0-3.2-1-3.8-1.8
	c-0.3-0.4-0.5-0.8-0.7-1.3h-0.1c-2.9,0-2.7-2.4-2.7-2.4s1,1.1,3.2,0.8c2.2-0.3,2.8-1,2.8-1.3c0.1-0.3,0-0.9,0-0.9s-2.2-0.6-2.3-2.9
	c0-0.1,0-0.1,0-0.2c0-1.4,1.6-2.5,3.5-2.5c1.9,0,3.5,1.1,3.5,2.5c0,0.1,0,0.1,0,0.2c-0.2,2.3-2.3,2.9-2.3,2.9s-0.1,0.6,0,0.9
	c0.1,0.3,0.7,1,2.8,1.3s3.2-0.8,3.2-0.8S27.4,33,24.5,33L24.5,33z"/>
<path d="M21.3,33.4c-0.1,0-0.3-0.1-0.4,0C21,33.3,21.2,33.3,21.3,33.4z"/>
<path d="M18.3,33.6c0.2-0.2,0.5-0.3,0.8-0.3C18.8,33.3,18.5,33.4,18.3,33.6z"/>
<path class="st1" d="M37.9,14.2c-0.3-3-1-6.4-2.3-9c-0.1-0.2-0.2-0.4-0.3-0.6c-0.2-0.4-0.5-0.9-0.8-1.3c0,0,0,0,0,0v0l0,0
	c-0.1-0.1-0.1-0.1-0.2-0.2c-0.5-0.5-1.1-0.9-1.9-1.1c-1.5-0.3-3.8,0.2-7,4c0.1,0.1,0.2,0.3,0.2,0.4l0,0c0,0.1,0.1,0.1,0.1,0.1
	c0.1,0.1,0.1,0.1,0.2,0.2c0.1,0.1,0.2,0.3,0.3,0.4c0,0-0.8-0.6-2.8-0.9c-0.6-0.1-1.2-0.2-1.9-0.2C21.2,6,20.6,6,20,6h0
	c-0.1,0-0.2,0-0.3,0h-0.1c-0.1,0-0.2,0-0.3,0l-0.1,0c-0.1,0-0.2,0-0.3,0l-0.1,0c-0.1,0-0.2,0-0.3,0l-0.1,0l-0.3,0l-0.1,0
	c-0.1,0-0.2,0-0.3,0l-0.1,0c-0.1,0-0.2,0-0.2,0l-0.1,0c-0.1,0-0.2,0-0.2,0l-0.1,0c-0.1,0-0.2,0-0.2,0l-0.1,0c-0.1,0-0.1,0-0.2,0
	l-0.1,0c-0.1,0-0.1,0-0.2,0l-0.1,0c-0.1,0-0.1,0-0.2,0l-0.1,0c-0.1,0-0.1,0-0.2,0l-0.1,0l-0.2,0l-0.1,0c0,0-0.1,0-0.1,0l-0.1,0
	c0,0-0.1,0-0.1,0l-0.1,0c0,0-0.1,0-0.1,0c0,0-0.1,0-0.1,0l-0.1,0c0,0-0.1,0-0.1,0l-0.1,0c0,0-0.1,0-0.1,0l-0.1,0l-0.1,0l0,0l-0.1,0
	l0,0c-0.5,0.2-0.7,0.3-0.7,0.3c0.1-0.2,0.2-0.3,0.3-0.4c0.1-0.1,0.1-0.2,0.2-0.2v0c0.1-0.2,0.2-0.3,0.3-0.5l0,0v0c0,0,0,0,0-0.1
	c0,0,0,0,0,0c-0.1-0.1-0.1-0.1-0.2-0.2l-0.1-0.1c0,0-0.1-0.1-0.1-0.1c0,0-0.1-0.1-0.1-0.1c0,0-0.1-0.1-0.1-0.1c0,0-0.1-0.1-0.1-0.1
	c0,0-0.1-0.1-0.1-0.1c0,0-0.1-0.1-0.1-0.1c0,0-0.1-0.1-0.1-0.1c0,0-0.1-0.1-0.1-0.1c0,0-0.1-0.1-0.1-0.1c0,0-0.1-0.1-0.1-0.1L13,4.3
	c0,0-0.1-0.1-0.1-0.1l-0.1-0.1c0,0-0.1-0.1-0.1-0.1c0,0-0.1-0.1-0.1-0.1c0,0-0.1-0.1-0.1-0.1c0,0-0.1-0.1-0.1-0.1
	c0,0-0.1-0.1-0.1-0.1c0,0-0.1,0-0.1-0.1c0,0-0.1-0.1-0.1-0.1c0,0-0.1,0-0.1-0.1l-0.1-0.1l-0.1-0.1l-0.1-0.1l-0.1-0.1
	c0,0-0.1-0.1-0.1-0.1c0,0-0.1,0-0.1-0.1c0,0-0.1,0-0.1-0.1L11,2.8c0,0-0.1,0-0.1-0.1c0,0-0.1,0-0.1-0.1c0,0-0.1,0-0.1-0.1
	c0,0-0.1,0-0.1,0s-0.1,0-0.1-0.1c0,0-0.1,0-0.1,0l-0.1,0l-0.1,0c0,0-0.1,0-0.1,0c0,0-0.1,0-0.1,0c0,0-0.1,0-0.1,0l-0.1,0l-0.1,0
	c0,0-0.1,0-0.1,0l-0.1,0l-0.1,0c0,0-0.1,0-0.1,0c0,0-0.1,0-0.1,0L9.3,2L9.2,2L9.1,2L9,2L9,2L8.9,2L8.8,2l-0.1,0l-0.1,0l-0.1,0
	l-0.1,0l-0.1,0c0,0,0,0-0.1,0c0,0,0,0-0.1,0H8.2H8.2H8.1L8,1.9L8,1.9l-0.1,0l-0.1,0l-0.1,0L7.7,2c0,0,0,0-0.1,0L7.6,2L7.5,2L7.5,2
	c0,0,0,0-0.1,0L7.3,2L7.3,2l-0.1,0l-0.1,0l-0.1,0l0,0L7,2.1l0,0l-0.1,0l0,0l-0.1,0l0,0l-0.1,0l0,0l-0.1,0l0,0l-0.1,0l0,0l-0.1,0l0,0
	l-0.1,0l0,0C6.1,2.6,5.9,2.8,5.7,3C5.6,3.1,5.6,3.2,5.5,3.3l0,0v0C5.3,3.6,5,4,4.8,4.5C4.6,4.7,4.5,4.9,4.4,5.2
	C3.6,6.9,3,8.8,2.6,10.8c-0.2,1.2-0.4,2.3-0.5,3.4C2,14.5,2,14.8,2,15.1c0,0.1,0.1,0.1,0.2,0.2c0.1,0.1,0.2,0.1,0.3,0.1
	c0.1,0,0.2,0,0.3,0c0.9-0.2,1-1.4,1-1.4C3.6,9.6,5.5,6.3,6.6,4.8c0.1-0.1,0.1-0.2,0.2-0.2c0.1-0.2,0.4-0.3,0.6-0.4
	c0.2-0.1,0.5,0,0.7,0C8.5,4.4,8.9,4.7,9.2,5l0,0c0.2,0.2,0.3,0.3,0.4,0.5c0,0,0,0,0,0c0.7,0.8,1,1.8,1.1,2.4c0,0.1,0,0.3,0,0.4
	c-0.1,0.1-0.2,0.2-0.3,0.3C9.9,8.9,9.4,9.2,9,9.6c-0.1,0.1-5.8,7.2-5.1,15.5c0,0.1,0,0.3,0,0.4C4,25.8,4,26,4,26.2
	c1.1,0.4,2.3,1.1,4.2,1.7c3.8,1.2,6.9-1,8.4-3.8c1.4-2.7,3.4-2.7,3.4-2.7c0,0,0.5,0,1.2,0.3c0.7,0.3,1.5,1,2.2,2.4
	c1.5,2.8,4.6,5,8.4,3.8c1.9-0.6,3.1-1.4,4.2-1.7c0-0.2,0.1-0.4,0.1-0.6c0-0.1,0-0.3,0-0.4c0.7-8.4-5-15.4-5.1-15.5
	c-0.5-0.4-1-0.7-1.5-0.9c-0.1-0.1-0.2-0.2-0.3-0.3c-0.1-0.1-0.1-0.3,0-0.4c0.2-0.6,0.5-1.6,1.1-2.4c0,0,0,0,0,0
	c0.1-0.2,0.3-0.3,0.4-0.5l0,0c0.3-0.3,0.7-0.6,1.2-0.8c0.2-0.1,0.5-0.1,0.7,0c0.2,0.1,0.4,0.2,0.6,0.4c0.1,0.1,0.1,0.1,0.2,0.2
	c1,1.5,3,4.8,2.9,9.2c0,0,0.1,1.2,1,1.4c0.1,0,0.2,0,0.3,0c0.1,0,0.2-0.1,0.3-0.1c0.1,0,0.1-0.1,0.2-0.2C38,14.8,38,14.5,37.9,14.2z
	"/>
<path class="st0" d="M13.2,15.7c0.2,0.3,0.4,0.6,0.7,0.8c0.7,0.6,1.6,0.8,2.3,0.4c0.9-0.5,1-1.9,0.3-3.1c0,0,0-0.1,0-0.1
	c-0.7-1.2-2-1.7-2.9-1.2c0,0-0.1,0-0.1,0C12.5,13.1,12.4,14.5,13.2,15.7z"/>
<path class="st0" d="M6,11.2c1.4-2.4,3.8-5.7,0.6-6.4c-1,1.5-3,4.8-2.9,9.2C3.7,14,4.6,13.6,6,11.2z"/>
<path class="st0" d="M9.2,5c0.2,0.2,0.3,0.3,0.4,0.5C9.5,5.3,9.4,5.2,9.2,5z"/>
<path class="st2" d="M9,9.6c0.5-0.4,1-0.7,1.5-0.9c0.1-0.1,0.2-0.2,0.3-0.3c0.1-0.1,0.1-0.3,0-0.4c-0.2-0.6-0.5-1.6-1.1-2.4
	c0,0,0,0,0,0C9.5,5.4,9.4,5.2,9.2,5l0,0C8.9,4.7,8.5,4.4,8,4.2c-0.2-0.1-0.5-0.1-0.7,0C7.1,4.2,6.9,4.4,6.7,4.6
	C6.7,4.6,6.6,4.7,6.6,4.8C9.8,5.5,7.4,8.9,6,11.2C4.6,13.6,3.7,14,3.7,14c0,0.6,0.1,1.3,0.2,1.9c0,0.1,0,0.1,0.1,0.1
	c0,0,0.1,0.1,0.1,0.1c0.1,0,0.1,0,0.2,0c0,0,0.1-0.1,0.1-0.1C5,14.5,6.5,11.5,9,9.6L9,9.6z"/>
<path class="st3" d="M3.5,26c0.2,0,0.4,0.1,0.5,0.1C4,26,4,25.8,3.9,25.5c0-0.1,0-0.3,0-0.4C3.1,16.7,8.9,9.7,9,9.6
	c-2.5,1.9-4,4.9-4.6,6.4c0,0-0.1,0.1-0.1,0.1c0,0-0.1,0-0.2,0C4,16.1,4,16.1,4,16c0,0-0.1-0.1-0.1-0.1c-0.1-0.6-0.2-1.3-0.2-1.9
	c0,0-0.1,1.2-1,1.4c-0.1,0-0.2,0-0.3,0c-0.1,0-0.2-0.1-0.3-0.1c-0.1,0-0.1-0.1-0.2-0.2c-0.2,2.2-0.2,4.1-0.2,5.1c0,0.4,0,0.7,0,0.7
	c0,0,0,0.1,0,0.1c0,0,0,0,0,0.1c0,0-0.5,1.7-0.5,4c0,0.3,0,0.5,0,0.8c0,0.2,0,0.4,0,0.6C2.1,26,2.8,25.9,3.5,26z"/>
<path class="st2" d="M16.2,31.8c1.9-0.3,2.9-1,3.3-1.4V29c-0.6-0.1-1.1-0.3-1.6-0.6c0,0-0.1-0.1-0.1-0.1c-0.1-0.1-0.1-0.1-0.2-0.2
	c-0.6-0.5-1-1.2-1.1-1.8c0.2,2.3,2.3,2.9,2.3,2.9s0.1,0.6,0,0.9c-0.1,0.3-0.7,1-2.8,1.3c-2.2,0.3-3.2-0.8-3.2-0.8
	S13.7,32.2,16.2,31.8z"/>
<path class="st4" d="M14,6.8c-0.1,0.1-0.2,0.3-0.3,0.4c0.2-0.1,0.4-0.2,0.7-0.3l0,0l0.1,0l0,0l0.1,0l0.1,0c0,0,0.1,0,0.1,0l0.1,0
	c0,0,0.1,0,0.1,0l0.1,0c0,0,0,0,0.1,0c0,0,0.1,0,0.1,0l0.1,0c0,0,0.1,0,0.1,0l0.1,0c0,0,0.1,0,0.1,0l0.1,0l0.2,0l0.1,0
	c0.1,0,0.1,0,0.2,0l0.1,0c0.1,0,0.1,0,0.2,0l0.1,0c0.1,0,0.1,0,0.2,0l0.1,0c0.1,0,0.1,0,0.2,0l0.1,0c0.1,0,0.1,0,0.2,0l0.1,0
	c0.1,0,0.2,0,0.2,0l0.1,0c0.1,0,0.2,0,0.2,0l0.1,0c0.1,0,0.2,0,0.3,0l0.1,0l0.3,0l0.1,0c0.1,0,0.2,0,0.3,0l0.1,0c0.1,0,0.2,0,0.3,0
	l0.1,0c0.1,0,0.2,0,0.3,0h0.1c0.1,0,0.2,0,0.3,0h0c0.6,0,1.1,0,1.7,0.1c0.6,0,1.2,0.1,1.9,0.2c1.9,0.4,2.8,0.9,2.8,0.9
	c-0.1-0.2-0.2-0.3-0.3-0.4c-0.1-0.1-0.1-0.2-0.2-0.2c0,0-0.3-0.3-1-0.5c-0.9-0.4-2.5-0.9-4.8-0.9c-2.3,0-3.9,0.5-4.8,0.9
	c-0.6,0.3-1,0.5-1,0.5C14.2,6.6,14.1,6.7,14,6.8z"/>
<path class="st4" d="M5.7,3c0.2-0.2,0.4-0.4,0.7-0.6l0,0l0.1,0l0,0l0.1,0l0,0l0.1,0l0,0l0.1,0l0,0l0.1,0l0,0l0.1,0l0,0l0.1,0l0,0
	l0.1,0l0,0l0.1,0l0.1,0l0.1,0l0.1,0l0.1,0c0,0,0,0,0.1,0l0.1,0l0.1,0l0.1,0c0,0,0,0,0.1,0l0.1,0l0.1,0l0.1,0l0.1,0l0.1,0l0.1,0h0.1
	h0.1h0.1c0,0,0.1,0,0.1,0c0,0,0,0,0.1,0l0.1,0l0.1,0l0.1,0l0.1,0l0.1,0l0.1,0L9,2L9,2l0.1,0l0.1,0l0.1,0l0.1,0c0,0,0.1,0,0.1,0
	c0,0,0.1,0,0.1,0l0.1,0l0.1,0c0,0,0.1,0,0.1,0l0.1,0l0.1,0c0,0,0.1,0,0.1,0c0,0,0.1,0,0.1,0c0,0,0.1,0,0.1,0l0.1,0l0.1,0
	c0,0,0.1,0,0.1,0c0,0,0.1,0,0.1,0.1c0,0,0.1,0,0.1,0c0,0,0.1,0,0.1,0.1c0,0,0.1,0,0.1,0.1c0,0,0.1,0,0.1,0.1l0.1,0.1
	c0,0,0.1,0,0.1,0.1c0,0,0.1,0,0.1,0.1c0,0,0.1,0.1,0.1,0.1l0.1,0.1l0.1,0.1l0.1,0.1l0.1,0.1c0,0,0.1,0,0.1,0.1c0,0,0.1,0.1,0.1,0.1
	c0,0,0.1,0,0.1,0.1c0,0,0.1,0.1,0.1,0.1c0,0,0.1,0,0.1,0.1c0,0,0.1,0.1,0.1,0.1c0,0,0.1,0.1,0.1,0.1c0,0,0.1,0.1,0.1,0.1l0.1,0.1
	c0,0,0.1,0.1,0.1,0.1l0.1,0.1c0,0,0.1,0.1,0.1,0.1c0,0,0.1,0.1,0.1,0.1c0,0,0.1,0.1,0.1,0.1c0,0,0.1,0.1,0.1,0.1
	c0,0,0.1,0.1,0.1,0.1c0,0,0.1,0.1,0.1,0.1c0,0,0.1,0.1,0.1,0.1c0,0,0.1,0.1,0.1,0.1c0,0,0.1,0.1,0.1,0.1c0,0,0.1,0.1,0.1,0.1
	l0.1,0.1c0.1,0.1,0.1,0.1,0.2,0.2c0.3-0.4,0.7-0.8,1.1-1.1c-1.4-1.4-2.8-2.5-4.1-3.1c-0.1-0.1-0.2-0.1-0.3-0.1c0,0-0.1,0-0.1-0.1
	c0,0,0,0-0.1,0l-0.1,0c-0.1,0-0.1,0-0.2-0.1c-0.7-0.2-1.3-0.3-1.9-0.3c-0.5,0-1.1,0.2-1.5,0.4C6.8,1.9,6.2,2.4,5.7,3z"/>
<path class="st0" d="M23.8,16.8c0.7,0.4,1.6,0.2,2.3-0.4c0.2-0.2,0.5-0.4,0.6-0.7c0,0,0,0,0-0.1c0.7-1.2,0.6-2.6-0.3-3.2
	c0,0,0,0-0.1,0c-0.9-0.5-2.2,0-2.9,1.2c0,0,0,0,0,0.1C22.8,14.9,22.9,16.3,23.8,16.8z"/>
<path class="st0" d="M34,11.2c1.4,2.3,2.2,2.7,2.3,2.8c0.1-4.4-1.8-7.7-2.9-9.2C30.2,5.5,32.6,8.9,34,11.2z"/>
<path class="st0" d="M30.4,5.5c0.1-0.2,0.3-0.3,0.4-0.5C30.6,5.2,30.5,5.3,30.4,5.5z"/>
<path class="st5" d="M21.8,33.8c0-0.1-0.1-0.2-0.3-0.3c0,0,0,0-0.1,0l0,0l0,0c0,0,0,0,0,0l0,0c0,0,0,0-0.1,0c-0.1,0-0.3-0.1-0.4,0h0
	c0,0,0,0-0.1,0h0l-0.1,0l0,0l0,0l0,0l0,0c0,0,0,0,0,0l0,0c0,0,0,0-0.1,0c-0.1,0-0.2,0.1-0.3,0.2c-0.1,0.1-0.2,0.2-0.2,0.3
	c-0.2-0.4-0.5-0.6-0.9-0.6c-0.3,0-0.6,0.1-0.8,0.3c-0.1,0.1-0.1,0.1-0.1,0.2c0,0.1-0.1,0.2,0,0.4c0,0.1,0.1,0.2,0.2,0.3
	c0.1,0.1,0.2,0.2,0.3,0.2c0.5,0.2,0.9,0.3,1.4,0.2h0c0.5,0,1-0.1,1.4-0.2C21.5,34.7,22,34.4,21.8,33.8z"/>
<path class="st2" d="M35.7,15.9c0,0,0.1,0.1,0.1,0.1c0,0,0.1,0,0.2,0c0.1,0,0.1,0,0.1-0.1c0,0,0.1-0.1,0.1-0.1
	c0.1-0.6,0.2-1.3,0.2-1.9c0,0-0.9-0.4-2.3-2.8c-1.4-2.4-3.8-5.7-0.6-6.4c-0.1-0.1-0.1-0.2-0.2-0.2c-0.1-0.2-0.4-0.3-0.6-0.4
	c-0.2-0.1-0.5,0-0.7,0c-0.4,0.2-0.8,0.5-1.2,0.8l0,0c-0.2,0.2-0.3,0.3-0.4,0.5c0,0,0,0,0,0c-0.7,0.8-1,1.8-1.1,2.4
	c0,0.1,0,0.3,0,0.4s0.2,0.2,0.3,0.3c0.5,0.3,1,0.6,1.5,0.9C33.5,11.5,35,14.5,35.7,15.9z"/>
<path class="st3" d="M38,15.1c0,0.1-0.1,0.1-0.2,0.2c-0.1,0.1-0.2,0.1-0.3,0.1c-0.1,0-0.2,0-0.3,0c-0.8-0.2-1-1.4-1-1.4
	c0,0.6-0.1,1.3-0.2,1.9c0,0.1,0,0.1-0.1,0.1c0,0-0.1,0.1-0.1,0.1c-0.1,0-0.1,0-0.2,0c0,0-0.1-0.1-0.1-0.1c-0.6-1.4-2.1-4.5-4.6-6.4
	c0.1,0.1,5.8,7.2,5.1,15.5c0,0.1,0,0.3,0,0.4c0,0.2-0.1,0.4-0.1,0.6c0.2-0.1,0.4-0.1,0.5-0.1c0.7-0.1,1.4,0,2.2,0.5
	c0-0.2,0-0.4,0-0.6c0-0.3,0-0.5,0-0.8c0-2.3-0.5-4-0.5-4c0,0,0,0,0-0.1c0,0,0-0.1,0-0.1c0,0,0-0.3,0-0.7
	C38.3,19.2,38.2,17.3,38,15.1z"/>
<path class="st2" d="M22.4,28.1c-0.1,0.1-0.1,0.1-0.2,0.2c0,0-0.1,0.1-0.1,0.1c-0.5,0.3-1,0.5-1.6,0.6v1.4c0.5,0.4,1.4,1.1,3.3,1.4
	c2.5,0.3,3.4-1.2,3.4-1.2c0,0-1,1.1-3.2,0.8c-2.2-0.3-2.8-1-2.8-1.3c-0.1-0.3,0-0.9,0-0.9s2.2-0.6,2.3-2.9
	C23.4,26.9,23,27.6,22.4,28.1z"/>
<path class="st4" d="M32.5,2c0.7,0.1,1.4,0.5,1.8,1.1c-0.5-0.6-1.1-1.1-1.7-1.4c-0.5-0.2-1-0.4-1.5-0.4c-0.6,0-1.2,0.1-1.9,0.3
	c-0.1,0-0.1,0-0.2,0.1c0,0,0,0-0.1,0c0,0,0,0-0.1,0c-0.1,0-0.2,0.1-0.3,0.1c0,0-0.1,0-0.1,0c-1.3,0.6-2.7,1.7-4.1,3.1
	c0.4,0.3,0.8,0.6,1.1,1.1C28.7,2.2,31,1.7,32.5,2z"/>
<path class="st6" d="M20,33.1L20,33.1c-1.6-0.6-2.4,0.5-2.6,0.8c0.3,0.3,0.7,0.6,1.2,0.8c-0.1-0.1-0.2-0.1-0.3-0.2
	c-0.1-0.1-0.1-0.2-0.2-0.3c0-0.1,0-0.3,0-0.4c0-0.1,0.1-0.1,0.1-0.2c0.2-0.2,0.5-0.3,0.8-0.3c0.4,0,0.8,0.2,0.9,0.6
	c0-0.1,0.1-0.2,0.2-0.3c0.1-0.1,0.2-0.2,0.3-0.2c0,0,0,0,0.1,0l0,0c0,0,0,0,0,0l0,0l0,0l0,0l0,0l0,0h0c0,0,0,0,0.1,0h0
	c0.1,0,0.3,0,0.4,0c0,0,0,0,0.1,0l0,0c0,0,0,0,0,0l0,0l0,0c0,0,0,0,0.1,0c0.1,0.1,0.2,0.2,0.3,0.3c0.2,0.6-0.3,0.9-0.4,0.9
	c0.4-0.2,0.8-0.4,1.2-0.8C22.4,33.6,21.6,32.6,20,33.1z"/>
<path class="st2" d="M9,36.6c1,0.5,2.1,0.9,3.2,1.2c1.4,0.4,2.8,0.7,4.2,0.8c0.6,0.1,1.2,0.1,1.8,0.2c0.5,0,1,0,1.5,0.1
	c0.1,0,0.2,0,0.3,0h0c0.2,0,0.4,0,0.6,0c0.1,0,0.1,0,0.2,0c0.6,0,1.2,0,1.7-0.1c0.1,0,0.1,0,0.2,0l0.2,0l0.1,0c0.1,0,0.1,0,0.2,0
	c3.4-0.4,6.4-1.3,8.9-2.7h0h0c0,0,0.1,0,0.1-0.1l0.1-0.1c0.9-0.5,1.7-1.1,2.5-1.8c0.6-0.5,1.1-1,1.6-1.6c0.1-0.1,0.1-0.1,0.2-0.2
	c0.3-0.4,0.6-0.8,0.9-1.2c0.4-0.6,0.6-1.3,0.8-2c0.2-0.7,0.4-1.5,0.5-2.2c0-0.1,0-0.2,0-0.3c0,0,0,0,0,0c-0.9-0.5-1.5-0.6-2.2-0.5
	c-0.2,0-0.4,0.1-0.5,0.1c-1.3,7.7-9.4,11.1-16,11.1c-3.3,0-7-0.8-10-2.6c-3-1.8-5.4-4.6-6-8.4c-0.2-0.1-0.4-0.1-0.5-0.1
	c-0.7-0.1-1.4,0-2.2,0.5c0,0,0,0,0,0c0,0.1,0,0.2,0,0.3c0.1,0.8,0.2,1.5,0.5,2.2C1.9,29.5,2,30,2.2,30.4c0.1,0.2,0.2,0.4,0.3,0.7
	c0,0,0,0.1,0.1,0.1c0.2,0.4,0.5,0.8,0.8,1.2C4.9,34.1,6.8,35.5,9,36.6z"/>
<path d="M27.2,30.6c0,0-0.9,1.6-3.4,1.2c-1.9-0.3-2.9-1-3.3-1.4V29c0.6-0.1,1.1-0.3,1.6-0.6c0,0,0.1-0.1,0.1-0.1
	c0.1-0.1,0.1-0.1,0.2-0.2c0.6-0.5,1-1.2,1.1-1.8c0-0.1,0-0.1,0-0.2c0-1.4-1.6-2.5-3.5-2.5c-1.9,0-3.5,1.1-3.5,2.5c0,0.1,0,0.1,0,0.2
	c0.1,0.6,0.5,1.3,1.1,1.8c0.1,0.1,0.1,0.1,0.2,0.2c0,0,0.1,0.1,0.1,0.1c0.5,0.3,1,0.5,1.6,0.6v1.4c-0.5,0.4-1.4,1.1-3.3,1.4
	c-2.5,0.3-3.4-1.2-3.4-1.2c0,0-0.2,2.4,2.7,2.4h0.1c0.2,0.5,0.4,0.9,0.7,1.3c0.6,0.8,1.8,1.8,3.8,1.8c2,0,3.2-1,3.8-1.8
	c0.3-0.4,0.5-0.8,0.7-1.3h0.1C27.4,33,27.2,30.6,27.2,30.6z M21.4,34.7c-0.5,0.2-0.9,0.3-1.4,0.2h0c-0.5,0-1-0.1-1.4-0.2
	c-0.1-0.1-0.2-0.1-0.3-0.2c0.1,0.1,0.2,0.2,0.3,0.2c-0.4-0.2-0.8-0.4-1.2-0.8c0.2-0.3,1-1.3,2.6-0.8h0c1.6-0.6,2.4,0.5,2.6,0.8
	C22.3,34.2,21.9,34.5,21.4,34.7z"/>
<path d="M26.9,38h3.6c0,0-0.5,0.2-0.7,0.3l0,0c-0.2,0.1-0.4,0.1-0.6,0.2c-0.2,0.1-0.4,0.1-0.6,0.2l-0.1,0c-0.2,0.1-0.3,0.1-0.5,0.1
	L27.8,39c-0.1,0-0.3,0.1-0.4,0.1c-0.1,0-0.1,0-0.2,0c-0.2,0-0.4,0.1-0.6,0.1l0,0c-0.2,0-0.4,0.1-0.6,0.1c-0.1,0-0.1,0-0.2,0
	c-0.1,0-0.3,0.1-0.4,0.1l-0.2,0c-0.2,0-0.4,0.1-0.6,0.1c0,0,0,0,0,0c-0.7,0.1-1.5,0.2-2.3,0.2C21.6,39.9,20.8,40,20,40
	c-1.5,0-3.1-0.1-4.6-0.3c-0.2,0-0.4-0.1-0.6-0.1l-0.2,0c-0.1,0-0.3-0.1-0.4-0.1c-0.1,0-0.1,0-0.2,0c-0.2,0-0.4-0.1-0.6-0.1l0,0
	c-0.2,0-0.4-0.1-0.6-0.1c-0.1,0-0.1,0-0.2,0c-0.1,0-0.3-0.1-0.4-0.1L12,38.9c-0.2,0-0.3-0.1-0.5-0.1l-0.1,0
	c-0.4-0.1-0.8-0.3-1.2-0.4l0,0C10,38.2,9.7,38.1,9.5,38h3.6c1.1,0.3,2.2,0.5,3.3,0.6c0.6,0.1,1.2,0.1,1.8,0.2c0.5,0,1,0,1.5,0.1
	c0.1,0,0.2,0,0.3,0h0c0.2,0,0.4,0,0.6,0c0.1,0,0.1,0,0.2,0c0.6,0,1.2,0,1.7-0.1c0.1,0,0.1,0,0.2,0l0.2,0l0.1,0c0.1,0,0.1,0,0.2,0
	C24.5,38.5,25.7,38.3,26.9,38z"/>
<path d="M37.4,33c-1.6,1.9-3.5,3.4-5.9,4.5h-3c1.3-0.4,2.5-0.9,3.6-1.6h0h0c0,0,0.1,0,0.1-0.1l0.1-0.1c0.9-0.5,1.7-1.1,2.5-1.8
	c0.6-0.5,1.1-1,1.6-1.6c0.1-0.1,0.1-0.1,0.2-0.2c0.3-0.4,0.6-0.8,0.9-1.2c0.4-0.6,0.6-1.3,0.8-2c0.2-0.7,0.4-1.5,0.5-2.2
	c0-0.1,0-0.2,0-0.3c0,0,0,0,0,0c0-0.2,0-0.4,0-0.6c0-0.3,0-0.5,0-0.8c0-2.3-0.5-4-0.5-4c0,0,0,0,0-0.1c0,0,0-0.1,0-0.1
	c0,0,0-0.3,0-0.7c0-1,0-2.9-0.2-5.1c0-0.3-0.1-0.6-0.1-0.9c-0.3-3-1-6.4-2.3-9c-0.1-0.2-0.2-0.4-0.3-0.6c-0.2-0.4-0.5-0.9-0.8-1.3
	c0,0,0,0,0,0v0l0,0c-0.1-0.1-0.1-0.1-0.2-0.2c-0.5-0.6-1.1-1.1-1.7-1.4c-0.5-0.2-1-0.4-1.5-0.4c-0.6,0-1.2,0.1-1.9,0.3
	c-0.1,0-0.1,0-0.2,0.1c0,0,0,0-0.1,0c0,0,0,0-0.1,0c-0.1,0-0.2,0.1-0.3,0.1c0,0-0.1,0-0.1,0c-1.3,0.6-2.7,1.7-4.1,3.1
	C24.6,5,24.8,5.2,25,5.4c0.3,0.3,0.5,0.7,0.7,1c0,0.1,0.1,0.1,0.1,0.1c0,0-0.3-0.3-1-0.5c-0.9-0.4-2.5-0.9-4.8-0.9S16.1,5.6,15.2,6
	c-0.6,0.3-1,0.5-1,0.5c0,0,0,0,0,0c0.1-0.2,0.2-0.3,0.3-0.5l0,0v0l0-0.1l0,0c0.3-0.4,0.7-0.8,1.1-1.1c-1.4-1.4-2.8-2.5-4.1-3.1
	c-0.1-0.1-0.2-0.1-0.3-0.1c0,0-0.1,0-0.1-0.1c0,0,0,0-0.1,0l-0.1,0c-0.1,0-0.1,0-0.2-0.1c-0.7-0.2-1.3-0.3-1.9-0.3
	c-0.5,0-1.1,0.2-1.5,0.4C6.8,1.9,6.2,2.4,5.7,3C5.7,3.1,5.6,3.2,5.5,3.3l0,0v0C5.3,3.6,5,4,4.8,4.5C4.6,4.7,4.5,4.9,4.4,5.2
	C3.6,6.9,3,8.8,2.6,10.8c-0.2,1.2-0.4,2.3-0.5,3.4C2,14.5,2,14.8,2,15.1c-0.2,2.2-0.2,4.1-0.2,5.1c0,0.4,0,0.7,0,0.7
	c0,0,0,0.1,0,0.1c0,0,0,0,0,0.1c0,0-0.5,1.7-0.5,4c0,0.3,0,0.5,0,0.8c0,0.2,0,0.4,0,0.6c0,0,0,0,0,0c0,0.1,0,0.2,0,0.3
	c0.1,0.8,0.2,1.5,0.4,2.2C1.9,29.5,2,30,2.2,30.4c0.1,0.2,0.2,0.4,0.3,0.7c0,0,0,0.1,0.1,0.1c0.2,0.4,0.5,0.8,0.8,1.2
	c1.5,1.8,3.4,3.2,5.6,4.3c0.8,0.4,1.6,0.7,2.5,1h-3c-2.3-1.1-4.3-2.7-5.9-4.5C0.9,31,0,28.3,0,25c0-2.1,0.4-3.8,0.6-4.2
	c0-0.5-0.1-3.4,0.3-6.8c0.6-5.1,1.8-9,3.7-11.4C5.8,1,7.2,0.1,8.9,0.1c1.5-0.1,3.2,0.5,5,1.8c1.3,1,2.4,2.1,2.9,2.6
	c0.9-0.2,1.9-0.4,3.3-0.4c1.3,0,2.4,0.2,3.3,0.4c0.5-0.5,1.6-1.6,2.9-2.6c1.8-1.3,3.5-1.9,5-1.8c1.6,0.1,3.1,1,4.2,2.5
	c1.9,2.5,3.1,6.3,3.7,11.4c0.4,3.5,0.3,6.3,0.3,6.8c0.1,0.4,0.5,2.1,0.6,4.2C40,28.3,39.1,31,37.4,33z"/>
<path d="M12.5,24.7c1.6,0,2.9-1.6,2.9-3.7c0-2-1.3-3.7-2.9-3.7s-2.9,1.6-2.9,3.7C9.6,23.1,10.9,24.7,12.5,24.7z"/>
<path d="M27.8,24.7c1.6,0,2.9-1.6,2.9-3.7c0-2-1.3-3.7-2.9-3.7c-1.6,0-2.9,1.6-2.9,3.7C24.8,23.1,26.1,24.7,27.8,24.7z"/>
<path class="st0" d="M13.2,20.9c0.5,0,0.9-0.5,0.9-1.2c0-0.7-0.4-1.2-0.9-1.2c-0.5,0-0.9,0.5-0.9,1.2C12.2,20.3,12.7,20.9,13.2,20.9
	z"/>
<path class="st0" d="M27.2,20.9c0.5,0,0.9-0.5,0.9-1.2c0-0.7-0.4-1.2-0.9-1.2c-0.5,0-0.9,0.5-0.9,1.2C26.2,20.3,26.7,20.9,27.2,20.9
	z"/>
<path d="M31.5,37.6l-1,0.5h-3.6l1.6-0.5"/>
<path d="M9.5,38l-1-0.5h3l1.6,0.5"/>
<path class="st7" d="M23.4,24.1c-0.7-1.4-1.6-2-2.2-2.4c-0.7-0.3-1.2-0.3-1.2-0.3s-2,0-3.4,2.7c-1.5,2.8-4.6,5-8.4,3.8
	c-1.9-0.6-3.1-1.4-4.2-1.7c0.7,3.9,3,6.6,6,8.4c3,1.8,6.7,2.6,10,2.6c6.6,0,14.7-3.4,16-11.1c-1.1,0.4-2.3,1.1-4.2,1.7
	C28,29.1,24.9,26.9,23.4,24.1z M24.5,33L24.5,33c-0.2,0.5-0.5,0.9-0.8,1.3c-0.6,0.8-1.8,1.8-3.8,1.8c-2,0-3.2-1-3.8-1.8
	c-0.3-0.4-0.5-0.8-0.7-1.3h-0.1c-2.9,0-2.7-2.4-2.7-2.4s1,1.1,3.2,0.8c2.2-0.3,2.8-1,2.8-1.3c0.1-0.3,0-0.9,0-0.9s-2.2-0.6-2.3-2.9
	c0-0.1,0-0.1,0-0.2c0-1.4,1.6-2.5,3.5-2.5c1.9,0,3.5,1.1,3.5,2.5c0,0.1,0,0.1,0,0.2c-0.2,2.3-2.3,2.9-2.3,2.9s-0.1,0.6,0,0.9
	c0.1,0.3,0.7,1,2.8,1.3s3.2-0.8,3.2-0.8S27.4,33,24.5,33L24.5,33z"/>
<path d="M21.3,33.4c-0.1,0-0.3-0.1-0.4,0C21,33.3,21.2,33.3,21.3,33.4z"/>
<path d="M18.3,33.6c0.2-0.2,0.5-0.3,0.8-0.3C18.8,33.3,18.5,33.4,18.3,33.6z"/>
<path class="st8" d="M37.9,14.2c-0.3-3-1-6.4-2.3-9c-0.1-0.2-0.2-0.4-0.3-0.6c-0.2-0.4-0.5-0.9-0.8-1.3c0,0,0,0,0,0v0l0,0
	c-0.1-0.1-0.1-0.1-0.2-0.2c-0.5-0.5-1.1-0.9-1.9-1.1c-1.5-0.3-3.8,0.2-7,4c0.1,0.1,0.2,0.3,0.2,0.4l0,0c0,0.1,0.1,0.1,0.1,0.1
	c0.1,0.1,0.1,0.1,0.2,0.2c0.1,0.1,0.2,0.3,0.3,0.4c0,0-0.8-0.6-2.8-0.9c-0.6-0.1-1.2-0.2-1.9-0.2C21.2,6,20.6,6,20,6h0
	c-0.1,0-0.2,0-0.3,0h-0.1c-0.1,0-0.2,0-0.3,0l-0.1,0c-0.1,0-0.2,0-0.3,0l-0.1,0c-0.1,0-0.2,0-0.3,0l-0.1,0l-0.3,0l-0.1,0
	c-0.1,0-0.2,0-0.3,0l-0.1,0c-0.1,0-0.2,0-0.2,0l-0.1,0c-0.1,0-0.2,0-0.2,0l-0.1,0c-0.1,0-0.2,0-0.2,0l-0.1,0c-0.1,0-0.1,0-0.2,0
	l-0.1,0c-0.1,0-0.1,0-0.2,0l-0.1,0c-0.1,0-0.1,0-0.2,0l-0.1,0c-0.1,0-0.1,0-0.2,0l-0.1,0l-0.2,0l-0.1,0c0,0-0.1,0-0.1,0l-0.1,0
	c0,0-0.1,0-0.1,0l-0.1,0c0,0-0.1,0-0.1,0c0,0-0.1,0-0.1,0l-0.1,0c0,0-0.1,0-0.1,0l-0.1,0c0,0-0.1,0-0.1,0l-0.1,0l-0.1,0l0,0l-0.1,0
	l0,0c-0.5,0.2-0.7,0.3-0.7,0.3c0.1-0.2,0.2-0.3,0.3-0.4c0.1-0.1,0.1-0.2,0.2-0.2v0c0.1-0.2,0.2-0.3,0.3-0.5l0,0v0c0,0,0,0,0-0.1
	c0,0,0,0,0,0c-0.1-0.1-0.1-0.1-0.2-0.2l-0.1-0.1c0,0-0.1-0.1-0.1-0.1c0,0-0.1-0.1-0.1-0.1c0,0-0.1-0.1-0.1-0.1c0,0-0.1-0.1-0.1-0.1
	c0,0-0.1-0.1-0.1-0.1c0,0-0.1-0.1-0.1-0.1c0,0-0.1-0.1-0.1-0.1c0,0-0.1-0.1-0.1-0.1c0,0-0.1-0.1-0.1-0.1c0,0-0.1-0.1-0.1-0.1L13,4.3
	c0,0-0.1-0.1-0.1-0.1l-0.1-0.1c0,0-0.1-0.1-0.1-0.1c0,0-0.1-0.1-0.1-0.1c0,0-0.1-0.1-0.1-0.1c0,0-0.1-0.1-0.1-0.1
	c0,0-0.1-0.1-0.1-0.1c0,0-0.1,0-0.1-0.1c0,0-0.1-0.1-0.1-0.1c0,0-0.1,0-0.1-0.1l-0.1-0.1l-0.1-0.1l-0.1-0.1l-0.1-0.1
	c0,0-0.1-0.1-0.1-0.1c0,0-0.1,0-0.1-0.1c0,0-0.1,0-0.1-0.1L11,2.8c0,0-0.1,0-0.1-0.1c0,0-0.1,0-0.1-0.1c0,0-0.1,0-0.1-0.1
	c0,0-0.1,0-0.1,0s-0.1,0-0.1-0.1c0,0-0.1,0-0.1,0l-0.1,0l-0.1,0c0,0-0.1,0-0.1,0c0,0-0.1,0-0.1,0c0,0-0.1,0-0.1,0l-0.1,0l-0.1,0
	c0,0-0.1,0-0.1,0l-0.1,0l-0.1,0c0,0-0.1,0-0.1,0c0,0-0.1,0-0.1,0L9.3,2L9.2,2L9.1,2L9,2L9,2L8.9,2L8.8,2l-0.1,0l-0.1,0l-0.1,0
	l-0.1,0l-0.1,0c0,0,0,0-0.1,0c0,0,0,0-0.1,0H8.2H8.2H8.1L8,1.9L8,1.9l-0.1,0l-0.1,0l-0.1,0L7.7,2c0,0,0,0-0.1,0L7.6,2L7.5,2L7.5,2
	c0,0,0,0-0.1,0L7.3,2L7.3,2l-0.1,0l-0.1,0l-0.1,0l0,0L7,2.1l0,0l-0.1,0l0,0l-0.1,0l0,0l-0.1,0l0,0l-0.1,0l0,0l-0.1,0l0,0l-0.1,0l0,0
	l-0.1,0l0,0C6.1,2.6,5.9,2.8,5.7,3C5.6,3.1,5.6,3.2,5.5,3.3l0,0v0C5.3,3.6,5,4,4.8,4.5C4.6,4.7,4.5,4.9,4.4,5.2
	C3.6,6.9,3,8.8,2.6,10.8c-0.2,1.2-0.4,2.3-0.5,3.4C2,14.5,2,14.8,2,15.1c0,0.1,0.1,0.1,0.2,0.2c0.1,0.1,0.2,0.1,0.3,0.1
	c0.1,0,0.2,0,0.3,0c0.9-0.2,1-1.4,1-1.4C3.6,9.6,5.5,6.3,6.6,4.8c0.1-0.1,0.1-0.2,0.2-0.2c0.1-0.2,0.4-0.3,0.6-0.4
	c0.2-0.1,0.5,0,0.7,0C8.5,4.4,8.9,4.7,9.2,5l0,0c0.2,0.2,0.3,0.3,0.4,0.5c0,0,0,0,0,0c0.7,0.8,1,1.8,1.1,2.4c0,0.1,0,0.3,0,0.4
	c-0.1,0.1-0.2,0.2-0.3,0.3C9.9,8.9,9.4,9.2,9,9.6c-0.1,0.1-5.8,7.2-5.1,15.5c0,0.1,0,0.3,0,0.4C4,25.8,4,26,4,26.2
	c1.1,0.4,2.3,1.1,4.2,1.7c3.8,1.2,6.9-1,8.4-3.8c1.4-2.7,3.4-2.7,3.4-2.7c0,0,0.5,0,1.2,0.3c0.7,0.3,1.5,1,2.2,2.4
	c1.5,2.8,4.6,5,8.4,3.8c1.9-0.6,3.1-1.4,4.2-1.7c0-0.2,0.1-0.4,0.1-0.6c0-0.1,0-0.3,0-0.4c0.7-8.4-5-15.4-5.1-15.5
	c-0.5-0.4-1-0.7-1.5-0.9c-0.1-0.1-0.2-0.2-0.3-0.3c-0.1-0.1-0.1-0.3,0-0.4c0.2-0.6,0.5-1.6,1.1-2.4c0,0,0,0,0,0
	c0.1-0.2,0.3-0.3,0.4-0.5l0,0c0.3-0.3,0.7-0.6,1.2-0.8c0.2-0.1,0.5-0.1,0.7,0c0.2,0.1,0.4,0.2,0.6,0.4c0.1,0.1,0.1,0.1,0.2,0.2
	c1,1.5,3,4.8,2.9,9.2c0,0,0.1,1.2,1,1.4c0.1,0,0.2,0,0.3,0c0.1,0,0.2-0.1,0.3-0.1c0.1,0,0.1-0.1,0.2-0.2C38,14.8,38,14.5,37.9,14.2z
	"/>
<path class="st7" d="M13.2,15.7c0.2,0.3,0.4,0.6,0.7,0.8c0.7,0.6,1.6,0.8,2.3,0.4c0.9-0.5,1-1.9,0.3-3.1c0,0,0-0.1,0-0.1
	c-0.7-1.2-2-1.7-2.9-1.2c0,0-0.1,0-0.1,0C12.5,13.1,12.4,14.5,13.2,15.7z"/>
<path class="st7" d="M6,11.2c1.4-2.4,3.8-5.7,0.6-6.4c-1,1.5-3,4.8-2.9,9.2C3.7,14,4.6,13.6,6,11.2z"/>
<path class="st7" d="M9.2,5c0.2,0.2,0.3,0.3,0.4,0.5C9.5,5.3,9.4,5.2,9.2,5z"/>
<path class="st2" d="M9,9.6c0.5-0.4,1-0.7,1.5-0.9c0.1-0.1,0.2-0.2,0.3-0.3c0.1-0.1,0.1-0.3,0-0.4c-0.2-0.6-0.5-1.6-1.1-2.4
	c0,0,0,0,0,0C9.5,5.4,9.4,5.2,9.2,5l0,0C8.9,4.7,8.5,4.4,8,4.2c-0.2-0.1-0.5-0.1-0.7,0C7.1,4.2,6.9,4.4,6.7,4.6
	C6.7,4.6,6.6,4.7,6.6,4.8C9.8,5.5,7.4,8.9,6,11.2C4.6,13.6,3.7,14,3.7,14c0,0.6,0.1,1.3,0.2,1.9c0,0.1,0,0.1,0.1,0.1
	c0,0,0.1,0.1,0.1,0.1c0.1,0,0.1,0,0.2,0c0,0,0.1-0.1,0.1-0.1C5,14.5,6.5,11.5,9,9.6L9,9.6z"/>
<path class="st9" d="M3.5,26c0.2,0,0.4,0.1,0.5,0.1C4,26,4,25.8,3.9,25.5c0-0.1,0-0.3,0-0.4C3.1,16.7,8.9,9.7,9,9.6
	c-2.5,1.9-4,4.9-4.6,6.4c0,0-0.1,0.1-0.1,0.1c0,0-0.1,0-0.2,0C4,16.1,4,16.1,4,16c0,0-0.1-0.1-0.1-0.1c-0.1-0.6-0.2-1.3-0.2-1.9
	c0,0-0.1,1.2-1,1.4c-0.1,0-0.2,0-0.3,0c-0.1,0-0.2-0.1-0.3-0.1c-0.1,0-0.1-0.1-0.2-0.2c-0.2,2.2-0.2,4.1-0.2,5.1c0,0.4,0,0.7,0,0.7
	c0,0,0,0.1,0,0.1c0,0,0,0,0,0.1c0,0-0.5,1.7-0.5,4c0,0.3,0,0.5,0,0.8c0,0.2,0,0.4,0,0.6C2.1,26,2.8,25.9,3.5,26z"/>
<path class="st2" d="M16.2,31.8c1.9-0.3,2.9-1,3.3-1.4V29c-0.6-0.1-1.1-0.3-1.6-0.6c0,0-0.1-0.1-0.1-0.1c-0.1-0.1-0.1-0.1-0.2-0.2
	c-0.6-0.5-1-1.2-1.1-1.8c0.2,2.3,2.3,2.9,2.3,2.9s0.1,0.6,0,0.9c-0.1,0.3-0.7,1-2.8,1.3c-2.2,0.3-3.2-0.8-3.2-0.8
	S13.7,32.2,16.2,31.8z"/>
<path class="st10" d="M14,6.8c-0.1,0.1-0.2,0.3-0.3,0.4c0.2-0.1,0.4-0.2,0.7-0.3l0,0l0.1,0l0,0l0.1,0l0.1,0c0,0,0.1,0,0.1,0l0.1,0
	c0,0,0.1,0,0.1,0l0.1,0c0,0,0,0,0.1,0c0,0,0.1,0,0.1,0l0.1,0c0,0,0.1,0,0.1,0l0.1,0c0,0,0.1,0,0.1,0l0.1,0l0.2,0l0.1,0
	c0.1,0,0.1,0,0.2,0l0.1,0c0.1,0,0.1,0,0.2,0l0.1,0c0.1,0,0.1,0,0.2,0l0.1,0c0.1,0,0.1,0,0.2,0l0.1,0c0.1,0,0.1,0,0.2,0l0.1,0
	c0.1,0,0.2,0,0.2,0l0.1,0c0.1,0,0.2,0,0.2,0l0.1,0c0.1,0,0.2,0,0.3,0l0.1,0l0.3,0l0.1,0c0.1,0,0.2,0,0.3,0l0.1,0c0.1,0,0.2,0,0.3,0
	l0.1,0c0.1,0,0.2,0,0.3,0h0.1c0.1,0,0.2,0,0.3,0h0c0.6,0,1.1,0,1.7,0.1c0.6,0,1.2,0.1,1.9,0.2c1.9,0.4,2.8,0.9,2.8,0.9
	c-0.1-0.2-0.2-0.3-0.3-0.4c-0.1-0.1-0.1-0.2-0.2-0.2c0,0-0.3-0.3-1-0.5c-0.9-0.4-2.5-0.9-4.8-0.9c-2.3,0-3.9,0.5-4.8,0.9
	c-0.6,0.3-1,0.5-1,0.5C14.2,6.6,14.1,6.7,14,6.8z"/>
<path class="st10" d="M5.7,3c0.2-0.2,0.4-0.4,0.7-0.6l0,0l0.1,0l0,0l0.1,0l0,0l0.1,0l0,0l0.1,0l0,0l0.1,0l0,0l0.1,0l0,0l0.1,0l0,0
	l0.1,0l0,0l0.1,0l0.1,0l0.1,0l0.1,0l0.1,0c0,0,0,0,0.1,0l0.1,0l0.1,0l0.1,0c0,0,0,0,0.1,0l0.1,0l0.1,0l0.1,0l0.1,0l0.1,0l0.1,0h0.1
	h0.1h0.1c0,0,0.1,0,0.1,0c0,0,0,0,0.1,0l0.1,0l0.1,0l0.1,0l0.1,0l0.1,0l0.1,0L9,2L9,2l0.1,0l0.1,0l0.1,0l0.1,0c0,0,0.1,0,0.1,0
	c0,0,0.1,0,0.1,0l0.1,0l0.1,0c0,0,0.1,0,0.1,0l0.1,0l0.1,0c0,0,0.1,0,0.1,0c0,0,0.1,0,0.1,0c0,0,0.1,0,0.1,0l0.1,0l0.1,0
	c0,0,0.1,0,0.1,0c0,0,0.1,0,0.1,0.1c0,0,0.1,0,0.1,0c0,0,0.1,0,0.1,0.1c0,0,0.1,0,0.1,0.1c0,0,0.1,0,0.1,0.1l0.1,0.1
	c0,0,0.1,0,0.1,0.1c0,0,0.1,0,0.1,0.1c0,0,0.1,0.1,0.1,0.1l0.1,0.1l0.1,0.1l0.1,0.1l0.1,0.1c0,0,0.1,0,0.1,0.1c0,0,0.1,0.1,0.1,0.1
	c0,0,0.1,0,0.1,0.1c0,0,0.1,0.1,0.1,0.1c0,0,0.1,0,0.1,0.1c0,0,0.1,0.1,0.1,0.1c0,0,0.1,0.1,0.1,0.1c0,0,0.1,0.1,0.1,0.1l0.1,0.1
	c0,0,0.1,0.1,0.1,0.1l0.1,0.1c0,0,0.1,0.1,0.1,0.1c0,0,0.1,0.1,0.1,0.1c0,0,0.1,0.1,0.1,0.1c0,0,0.1,0.1,0.1,0.1
	c0,0,0.1,0.1,0.1,0.1c0,0,0.1,0.1,0.1,0.1c0,0,0.1,0.1,0.1,0.1c0,0,0.1,0.1,0.1,0.1c0,0,0.1,0.1,0.1,0.1c0,0,0.1,0.1,0.1,0.1
	l0.1,0.1c0.1,0.1,0.1,0.1,0.2,0.2c0.3-0.4,0.7-0.8,1.1-1.1c-1.4-1.4-2.8-2.5-4.1-3.1c-0.1-0.1-0.2-0.1-0.3-0.1c0,0-0.1,0-0.1-0.1
	c0,0,0,0-0.1,0l-0.1,0c-0.1,0-0.1,0-0.2-0.1c-0.7-0.2-1.3-0.3-1.9-0.3c-0.5,0-1.1,0.2-1.5,0.4C6.8,1.9,6.2,2.4,5.7,3z"/>
<path class="st7" d="M23.8,16.8c0.7,0.4,1.6,0.2,2.3-0.4c0.2-0.2,0.5-0.4,0.6-0.7c0,0,0,0,0-0.1c0.7-1.2,0.6-2.6-0.3-3.2
	c0,0,0,0-0.1,0c-0.9-0.5-2.2,0-2.9,1.2c0,0,0,0,0,0.1C22.8,14.9,22.9,16.3,23.8,16.8z"/>
<path class="st7" d="M34,11.2c1.4,2.3,2.2,2.7,2.3,2.8c0.1-4.4-1.8-7.7-2.9-9.2C30.2,5.5,32.6,8.9,34,11.2z"/>
<path class="st7" d="M30.4,5.5c0.1-0.2,0.3-0.3,0.4-0.5C30.6,5.2,30.5,5.3,30.4,5.5z"/>
<path class="st5" d="M21.8,33.8c0-0.1-0.1-0.2-0.3-0.3c0,0,0,0-0.1,0l0,0l0,0c0,0,0,0,0,0l0,0c0,0,0,0-0.1,0c-0.1,0-0.3-0.1-0.4,0h0
	c0,0,0,0-0.1,0h0l-0.1,0l0,0l0,0l0,0l0,0c0,0,0,0,0,0l0,0c0,0,0,0-0.1,0c-0.1,0-0.2,0.1-0.3,0.2c-0.1,0.1-0.2,0.2-0.2,0.3
	c-0.2-0.4-0.5-0.6-0.9-0.6c-0.3,0-0.6,0.1-0.8,0.3c-0.1,0.1-0.1,0.1-0.1,0.2c0,0.1-0.1,0.2,0,0.4c0,0.1,0.1,0.2,0.2,0.3
	c0.1,0.1,0.2,0.2,0.3,0.2c0.5,0.2,0.9,0.3,1.4,0.2h0c0.5,0,1-0.1,1.4-0.2C21.5,34.7,22,34.4,21.8,33.8z"/>
<path class="st2" d="M35.7,15.9c0,0,0.1,0.1,0.1,0.1c0,0,0.1,0,0.2,0c0.1,0,0.1,0,0.1-0.1c0,0,0.1-0.1,0.1-0.1
	c0.1-0.6,0.2-1.3,0.2-1.9c0,0-0.9-0.4-2.3-2.8c-1.4-2.4-3.8-5.7-0.6-6.4c-0.1-0.1-0.1-0.2-0.2-0.2c-0.1-0.2-0.4-0.3-0.6-0.4
	c-0.2-0.1-0.5,0-0.7,0c-0.4,0.2-0.8,0.5-1.2,0.8l0,0c-0.2,0.2-0.3,0.3-0.4,0.5c0,0,0,0,0,0c-0.7,0.8-1,1.8-1.1,2.4
	c0,0.1,0,0.3,0,0.4s0.2,0.2,0.3,0.3c0.5,0.3,1,0.6,1.5,0.9C33.5,11.5,35,14.5,35.7,15.9z"/>
<path class="st9" d="M38,15.1c0,0.1-0.1,0.1-0.2,0.2c-0.1,0.1-0.2,0.1-0.3,0.1c-0.1,0-0.2,0-0.3,0c-0.8-0.2-1-1.4-1-1.4
	c0,0.6-0.1,1.3-0.2,1.9c0,0.1,0,0.1-0.1,0.1c0,0-0.1,0.1-0.1,0.1c-0.1,0-0.1,0-0.2,0c0,0-0.1-0.1-0.1-0.1c-0.6-1.4-2.1-4.5-4.6-6.4
	c0.1,0.1,5.8,7.2,5.1,15.5c0,0.1,0,0.3,0,0.4c0,0.2-0.1,0.4-0.1,0.6c0.2-0.1,0.4-0.1,0.5-0.1c0.7-0.1,1.4,0,2.2,0.5
	c0-0.2,0-0.4,0-0.6c0-0.3,0-0.5,0-0.8c0-2.3-0.5-4-0.5-4c0,0,0,0,0-0.1c0,0,0-0.1,0-0.1c0,0,0-0.3,0-0.7
	C38.3,19.2,38.2,17.3,38,15.1z"/>
<path class="st2" d="M22.4,28.1c-0.1,0.1-0.1,0.1-0.2,0.2c0,0-0.1,0.1-0.1,0.1c-0.5,0.3-1,0.5-1.6,0.6v1.4c0.5,0.4,1.4,1.1,3.3,1.4
	c2.5,0.3,3.4-1.2,3.4-1.2c0,0-1,1.1-3.2,0.8c-2.2-0.3-2.8-1-2.8-1.3c-0.1-0.3,0-0.9,0-0.9s2.2-0.6,2.3-2.9
	C23.4,26.9,23,27.6,22.4,28.1z"/>
<path class="st10" d="M32.5,2c0.7,0.1,1.4,0.5,1.8,1.1c-0.5-0.6-1.1-1.1-1.7-1.4c-0.5-0.2-1-0.4-1.5-0.4c-0.6,0-1.2,0.1-1.9,0.3
	c-0.1,0-0.1,0-0.2,0.1c0,0,0,0-0.1,0c0,0,0,0-0.1,0c-0.1,0-0.2,0.1-0.3,0.1c0,0-0.1,0-0.1,0c-1.3,0.6-2.7,1.7-4.1,3.1
	c0.4,0.3,0.8,0.6,1.1,1.1C28.7,2.2,31,1.7,32.5,2z"/>
<path class="st6" d="M20,33.1L20,33.1c-1.6-0.6-2.4,0.5-2.6,0.8c0.3,0.3,0.7,0.6,1.2,0.8c-0.1-0.1-0.2-0.1-0.3-0.2
	c-0.1-0.1-0.1-0.2-0.2-0.3c0-0.1,0-0.3,0-0.4c0-0.1,0.1-0.1,0.1-0.2c0.2-0.2,0.5-0.3,0.8-0.3c0.4,0,0.8,0.2,0.9,0.6
	c0-0.1,0.1-0.2,0.2-0.3c0.1-0.1,0.2-0.2,0.3-0.2c0,0,0,0,0.1,0l0,0c0,0,0,0,0,0l0,0l0,0l0,0l0,0l0,0h0c0,0,0,0,0.1,0h0
	c0.1,0,0.3,0,0.4,0c0,0,0,0,0.1,0l0,0c0,0,0,0,0,0l0,0l0,0c0,0,0,0,0.1,0c0.1,0.1,0.2,0.2,0.3,0.3c0.2,0.6-0.3,0.9-0.4,0.9
	c0.4-0.2,0.8-0.4,1.2-0.8C22.4,33.6,21.6,32.6,20,33.1z"/>
<path class="st2" d="M9,36.6c1,0.5,2.1,0.9,3.2,1.2c1.4,0.4,2.8,0.7,4.2,0.8c0.6,0.1,1.2,0.1,1.8,0.2c0.5,0,1,0,1.5,0.1
	c0.1,0,0.2,0,0.3,0h0c0.2,0,0.4,0,0.6,0c0.1,0,0.1,0,0.2,0c0.6,0,1.2,0,1.7-0.1c0.1,0,0.1,0,0.2,0l0.2,0l0.1,0c0.1,0,0.1,0,0.2,0
	c3.4-0.4,6.4-1.3,8.9-2.7h0h0c0,0,0.1,0,0.1-0.1l0.1-0.1c0.9-0.5,1.7-1.1,2.5-1.8c0.6-0.5,1.1-1,1.6-1.6c0.1-0.1,0.1-0.1,0.2-0.2
	c0.3-0.4,0.6-0.8,0.9-1.2c0.4-0.6,0.6-1.3,0.8-2c0.2-0.7,0.4-1.5,0.5-2.2c0-0.1,0-0.2,0-0.3c0,0,0,0,0,0c-0.9-0.5-1.5-0.6-2.2-0.5
	c-0.2,0-0.4,0.1-0.5,0.1c-1.3,7.7-9.4,11.1-16,11.1c-3.3,0-7-0.8-10-2.6c-3-1.8-5.4-4.6-6-8.4c-0.2-0.1-0.4-0.1-0.5-0.1
	c-0.7-0.1-1.4,0-2.2,0.5c0,0,0,0,0,0c0,0.1,0,0.2,0,0.3c0.1,0.8,0.2,1.5,0.5,2.2C1.9,29.5,2,30,2.2,30.4c0.1,0.2,0.2,0.4,0.3,0.7
	c0,0,0,0.1,0.1,0.1c0.2,0.4,0.5,0.8,0.8,1.2C4.9,34.1,6.8,35.5,9,36.6z"/>
<path d="M27.2,30.6c0,0-0.9,1.6-3.4,1.2c-1.9-0.3-2.9-1-3.3-1.4V29c0.6-0.1,1.1-0.3,1.6-0.6c0,0,0.1-0.1,0.1-0.1
	c0.1-0.1,0.1-0.1,0.2-0.2c0.6-0.5,1-1.2,1.1-1.8c0-0.1,0-0.1,0-0.2c0-1.4-1.6-2.5-3.5-2.5c-1.9,0-3.5,1.1-3.5,2.5c0,0.1,0,0.1,0,0.2
	c0.1,0.6,0.5,1.3,1.1,1.8c0.1,0.1,0.1,0.1,0.2,0.2c0,0,0.1,0.1,0.1,0.1c0.5,0.3,1,0.5,1.6,0.6v1.4c-0.5,0.4-1.4,1.1-3.3,1.4
	c-2.5,0.3-3.4-1.2-3.4-1.2c0,0-0.2,2.4,2.7,2.4h0.1c0.2,0.5,0.4,0.9,0.7,1.3c0.6,0.8,1.8,1.8,3.8,1.8c2,0,3.2-1,3.8-1.8
	c0.3-0.4,0.5-0.8,0.7-1.3h0.1C27.4,33,27.2,30.6,27.2,30.6z M21.4,34.7c-0.5,0.2-0.9,0.3-1.4,0.2h0c-0.5,0-1-0.1-1.4-0.2
	c-0.1-0.1-0.2-0.1-0.3-0.2c0.1,0.1,0.2,0.2,0.3,0.2c-0.4-0.2-0.8-0.4-1.2-0.8c0.2-0.3,1-1.3,2.6-0.8h0c1.6-0.6,2.4,0.5,2.6,0.8
	C22.3,34.2,21.9,34.5,21.4,34.7z"/>
<path d="M26.9,38h3.6c0,0-0.5,0.2-0.7,0.3l0,0c-0.2,0.1-0.4,0.1-0.6,0.2c-0.2,0.1-0.4,0.1-0.6,0.2l-0.1,0c-0.2,0.1-0.3,0.1-0.5,0.1
	L27.8,39c-0.1,0-0.3,0.1-0.4,0.1c-0.1,0-0.1,0-0.2,0c-0.2,0-0.4,0.1-0.6,0.1l0,0c-0.2,0-0.4,0.1-0.6,0.1c-0.1,0-0.1,0-0.2,0
	c-0.1,0-0.3,0.1-0.4,0.1l-0.2,0c-0.2,0-0.4,0.1-0.6,0.1c0,0,0,0,0,0c-0.7,0.1-1.5,0.2-2.3,0.2C21.6,39.9,20.8,40,20,40
	c-1.5,0-3.1-0.1-4.6-0.3c-0.2,0-0.4-0.1-0.6-0.1l-0.2,0c-0.1,0-0.3-0.1-0.4-0.1c-0.1,0-0.1,0-0.2,0c-0.2,0-0.4-0.1-0.6-0.1l0,0
	c-0.2,0-0.4-0.1-0.6-0.1c-0.1,0-0.1,0-0.2,0c-0.1,0-0.3-0.1-0.4-0.1L12,38.9c-0.2,0-0.3-0.1-0.5-0.1l-0.1,0
	c-0.4-0.1-0.8-0.3-1.2-0.4l0,0C10,38.2,9.7,38.1,9.5,38h3.6c1.1,0.3,2.2,0.5,3.3,0.6c0.6,0.1,1.2,0.1,1.8,0.2c0.5,0,1,0,1.5,0.1
	c0.1,0,0.2,0,0.3,0h0c0.2,0,0.4,0,0.6,0c0.1,0,0.1,0,0.2,0c0.6,0,1.2,0,1.7-0.1c0.1,0,0.1,0,0.2,0l0.2,0l0.1,0c0.1,0,0.1,0,0.2,0
	C24.5,38.5,25.7,38.3,26.9,38z"/>
<path d="M37.4,33c-1.6,1.9-3.5,3.4-5.9,4.5h-3c1.3-0.4,2.5-0.9,3.6-1.6h0h0c0,0,0.1,0,0.1-0.1l0.1-0.1c0.9-0.5,1.7-1.1,2.5-1.8
	c0.6-0.5,1.1-1,1.6-1.6c0.1-0.1,0.1-0.1,0.2-0.2c0.3-0.4,0.6-0.8,0.9-1.2c0.4-0.6,0.6-1.3,0.8-2c0.2-0.7,0.4-1.5,0.5-2.2
	c0-0.1,0-0.2,0-0.3c0,0,0,0,0,0c0-0.2,0-0.4,0-0.6c0-0.3,0-0.5,0-0.8c0-2.3-0.5-4-0.5-4c0,0,0,0,0-0.1c0,0,0-0.1,0-0.1
	c0,0,0-0.3,0-0.7c0-1,0-2.9-0.2-5.1c0-0.3-0.1-0.6-0.1-0.9c-0.3-3-1-6.4-2.3-9c-0.1-0.2-0.2-0.4-0.3-0.6c-0.2-0.4-0.5-0.9-0.8-1.3
	c0,0,0,0,0,0v0l0,0c-0.1-0.1-0.1-0.1-0.2-0.2c-0.5-0.6-1.1-1.1-1.7-1.4c-0.5-0.2-1-0.4-1.5-0.4c-0.6,0-1.2,0.1-1.9,0.3
	c-0.1,0-0.1,0-0.2,0.1c0,0,0,0-0.1,0c0,0,0,0-0.1,0c-0.1,0-0.2,0.1-0.3,0.1c0,0-0.1,0-0.1,0c-1.3,0.6-2.7,1.7-4.1,3.1
	C24.6,5,24.8,5.2,25,5.4c0.3,0.3,0.5,0.7,0.7,1c0,0.1,0.1,0.1,0.1,0.1c0,0-0.3-0.3-1-0.5c-0.9-0.4-2.5-0.9-4.8-0.9S16.1,5.6,15.2,6
	c-0.6,0.3-1,0.5-1,0.5c0,0,0,0,0,0c0.1-0.2,0.2-0.3,0.3-0.5l0,0v0l0-0.1l0,0c0.3-0.4,0.7-0.8,1.1-1.1c-1.4-1.4-2.8-2.5-4.1-3.1
	c-0.1-0.1-0.2-0.1-0.3-0.1c0,0-0.1,0-0.1-0.1c0,0,0,0-0.1,0l-0.1,0c-0.1,0-0.1,0-0.2-0.1c-0.7-0.2-1.3-0.3-1.9-0.3
	c-0.5,0-1.1,0.2-1.5,0.4C6.8,1.9,6.2,2.4,5.7,3C5.7,3.1,5.6,3.2,5.5,3.3l0,0v0C5.3,3.6,5,4,4.8,4.5C4.6,4.7,4.5,4.9,4.4,5.2
	C3.6,6.9,3,8.8,2.6,10.8c-0.2,1.2-0.4,2.3-0.5,3.4C2,14.5,2,14.8,2,15.1c-0.2,2.2-0.2,4.1-0.2,5.1c0,0.4,0,0.7,0,0.7
	c0,0,0,0.1,0,0.1c0,0,0,0,0,0.1c0,0-0.5,1.7-0.5,4c0,0.3,0,0.5,0,0.8c0,0.2,0,0.4,0,0.6c0,0,0,0,0,0c0,0.1,0,0.2,0,0.3
	c0.1,0.8,0.2,1.5,0.4,2.2C1.9,29.5,2,30,2.2,30.4c0.1,0.2,0.2,0.4,0.3,0.7c0,0,0,0.1,0.1,0.1c0.2,0.4,0.5,0.8,0.8,1.2
	c1.5,1.8,3.4,3.2,5.6,4.3c0.8,0.4,1.6,0.7,2.5,1h-3c-2.3-1.1-4.3-2.7-5.9-4.5C0.9,31,0,28.3,0,25c0-2.1,0.4-3.8,0.6-4.2
	c0-0.5-0.1-3.4,0.3-6.8c0.6-5.1,1.8-9,3.7-11.4C5.8,1,7.2,0.1,8.9,0.1c1.5-0.1,3.2,0.5,5,1.8c1.3,1,2.4,2.1,2.9,2.6
	c0.9-0.2,1.9-0.4,3.3-0.4c1.3,0,2.4,0.2,3.3,0.4c0.5-0.5,1.6-1.6,2.9-2.6c1.8-1.3,3.5-1.9,5-1.8c1.6,0.1,3.1,1,4.2,2.5
	c1.9,2.5,3.1,6.3,3.7,11.4c0.4,3.5,0.3,6.3,0.3,6.8c0.1,0.4,0.5,2.1,0.6,4.2C40,28.3,39.1,31,37.4,33z"/>
<path d="M12.5,24.7c1.6,0,2.9-1.6,2.9-3.7c0-2-1.3-3.7-2.9-3.7s-2.9,1.6-2.9,3.7C9.6,23.1,10.9,24.7,12.5,24.7z"/>
<path d="M27.8,24.7c1.6,0,2.9-1.6,2.9-3.7c0-2-1.3-3.7-2.9-3.7c-1.6,0-2.9,1.6-2.9,3.7C24.8,23.1,26.1,24.7,27.8,24.7z"/>
<path class="st7" d="M13.2,20.9c0.5,0,0.9-0.5,0.9-1.2c0-0.7-0.4-1.2-0.9-1.2c-0.5,0-0.9,0.5-0.9,1.2C12.2,20.3,12.7,20.9,13.2,20.9
	z"/>
<path class="st7" d="M27.2,20.9c0.5,0,0.9-0.5,0.9-1.2c0-0.7-0.4-1.2-0.9-1.2c-0.5,0-0.9,0.5-0.9,1.2C26.2,20.3,26.7,20.9,27.2,20.9
	z"/>
<path d="M31.5,37.6l-1,0.5h-3.6l1.6-0.5"/>
<path d="M9.5,38l-1-0.5h3l1.6,0.5"/>
<path class="st8" d="M135.1,15.3v3.6h8.8v5.3h-8.8V31H128V10h17.1v5.3H135.1z M147.3,10h7.1v15.5h9.5V31h-16.6V10z M176.6,31.5
	c-2.3,0-4.3-0.5-6.1-1.4s-3.2-2.2-4.2-3.9c-1-1.7-1.5-3.6-1.5-5.7s0.5-4,1.5-5.6c1-1.7,2.4-3,4.2-3.9c1.8-0.9,3.8-1.4,6.1-1.4
	c2.3,0,4.3,0.5,6.1,1.4c1.8,0.9,3.2,2.2,4.2,3.9c1,1.7,1.5,3.5,1.5,5.6s-0.5,4-1.5,5.7c-1,1.7-2.4,3-4.2,3.9
	C180.9,31,178.8,31.5,176.6,31.5z M176.6,25.8c0.9,0,1.7-0.2,2.4-0.6c0.7-0.4,1.3-1.1,1.7-1.8c0.4-0.8,0.6-1.7,0.6-2.8
	s-0.2-2-0.6-2.8c-0.4-0.8-1-1.4-1.7-1.8c-0.7-0.4-1.5-0.7-2.4-0.7c-0.9,0-1.7,0.2-2.4,0.7c-0.7,0.4-1.3,1-1.7,1.8
	c-0.4,0.8-0.6,1.7-0.6,2.8s0.2,2,0.6,2.8c0.4,0.8,1,1.4,1.7,1.8C174.9,25.5,175.7,25.8,176.6,25.8z M199.5,24l-1.6,1.8V31h-7V10h7
	v7.6l6.9-7.6h7.7l-8.4,9.2L213,31h-8.2L199.5,24z M213.9,10h7.1v21h-7.1V10z"/>
<g>
	<g>
		<polygon points="107.1,31 107.1,10 123.3,10 123.3,15.4 113.2,15.4 113.2,17.7 122.1,17.7 122.1,23 113.2,23 113.2,25.6 
			123.6,25.6 123.6,31 		"/>
		<path d="M122.7,26.5v3.6H108V10.9h14.4v3.6h-10v4.2h8.8v3.5h-8.8v4.4H122.7z"/>
	</g>
	<g>
		<path d="M92.5,31c-6.3,0-10.1-3.6-10.1-9.5V10H89v11.3c0,3.7,1.9,4.2,3.5,4.2c1.7,0,3.5-0.5,3.5-4.2V10h6.5v11.5
			C102.6,27.4,98.8,31,92.5,31z"/>
		<path d="M85.1,21v-9.6h3.8v9.4c0,3.2,1.4,4.6,3.6,4.6c2.3,0,3.6-1.3,3.6-4.6v-9.4h3.7V21c0,5-2.8,7.8-7.4,7.8
			C87.9,28.9,85.1,26.1,85.1,21z"/>
	</g>
	<g>
		<polygon points="64,31 64,20.5 64,10 67.2,10 70.5,10 70.5,17.8 70.5,25.6 75.5,25.6 80.5,25.6 80.5,28.3 80.5,31 72.2,31 		"/>
		<path d="M66.9,10h2h2v8.1v8.1h4.3h4.3v1.9v1.9h-6.3h-6.3V20V10z"/>
	</g>
	<g>
		<path d="M44.4,31V10h8.7c4.3,0,6.9,2.2,6.9,5.9c0,1.6-0.5,3-1.4,4c1.4,1,2.2,2.8,2.2,4.9c0,3.9-2.6,6.1-7.3,6.1H44.4z M53.3,25.8
			c2.2,0,2.2-1,2.2-1.4c0-0.4,0-1.5-2.2-1.5h-3.6v2.9H53.3z M52.6,17.9c2.1,0,2.1-1,2.1-1.4c0-0.4,0-1.3-2.1-1.3h-3v2.7H52.6z"/>
		<path d="M60,24.9c0,3.3-2.2,5.2-6.5,5.2h-8.4V10.9h7.9c4.1,0,6.1,2,6.1,5c0,1.9-0.8,3.4-2.2,4.2C58.9,20.8,60,22.4,60,24.9z
			 M48.9,14.3v4.5h3.7c1.8,0,2.8-0.8,2.8-2.3s-1-2.2-2.8-2.2H48.9z M56.3,24.4c0-1.6-1-2.4-3-2.4h-4.4v4.7h4.4
			C55.2,26.7,56.3,26,56.3,24.4z"/>
	</g>
</g>
</svg>
