<svg width="540" height="599" viewBox="0 0 540 599" fill="none" xmlns="http://www.w3.org/2000/svg">
<path d="M270.07 594.279C418.979 594.279 539.695 473.564 539.695 324.654C539.695 175.744 418.979 55.0288 270.07 55.0288C121.16 55.0288 0.444336 175.744 0.444336 324.654C0.444336 473.564 121.16 594.279 270.07 594.279Z" fill="#FF9C1A"/>
<path d="M462.642 460.862C458.028 457.868 452.958 455.645 447.631 454.282C438.52 460.647 428.498 465.596 417.905 468.959C418.132 469.158 418.368 469.343 418.585 469.547C423.749 474.343 427.799 480.212 430.45 486.742C446.585 480.185 456.524 470.389 462.642 460.862Z" fill="#113CFC"/>
<path d="M441.791 453.092C431.952 457.776 421.682 461.495 411.126 464.198C412.31 464.843 413.456 465.555 414.559 466.331L414.721 466.451C415.23 466.812 415.735 467.187 416.239 467.58C416.743 467.974 417.354 468.478 417.905 468.968C428.498 465.605 438.52 460.656 447.63 454.291C445.707 453.784 443.758 453.383 441.791 453.092Z" fill="#1597E5"/>
<path d="M462.641 460.861C467.037 454.002 470.091 446.371 471.641 438.373C471.324 437.652 470.75 437.075 470.031 436.753C469.486 436.494 468.878 436.399 468.28 436.481C467.682 436.564 467.121 436.819 466.667 437.216C458.926 443.801 450.236 449.002 441.791 453.074C443.758 453.362 445.708 453.759 447.631 454.263C452.959 455.632 458.03 457.861 462.641 460.861Z" fill="white"/>
<path d="M434.777 511.266C454.077 496.977 463.868 480.629 468.426 465.368C466.621 463.714 464.687 462.207 462.642 460.861C456.525 470.389 446.585 480.203 430.45 486.742C433.474 494.135 434.959 502.067 434.814 510.054C434.809 510.461 434.791 510.863 434.777 511.266Z" fill="#193498"/>
<path d="M468.426 465.378C470.893 457.013 472.062 448.319 471.891 439.599C471.887 439.181 471.802 438.768 471.642 438.382C470.091 446.38 467.037 454.011 462.642 460.871C464.687 462.217 466.621 463.724 468.426 465.378Z" fill="#DBBDBF"/>
<path d="M202.544 545.661C203.72 543.902 205.293 541.38 206.986 538.206C210.472 531.683 213.227 524.794 215.2 517.666C215.357 517.097 215.514 516.527 215.662 515.94C216.07 514.343 216.431 512.701 216.754 510.966C220.456 491.314 219.022 465.41 219.022 465.41C211.466 449.104 214.811 432.242 219.068 420.776C219.48 419.661 219.901 418.606 220.317 417.601C204.543 414.117 191.379 409.023 182.263 402.891C178.018 401.543 173.846 400.089 169.746 398.528L169.367 398.38C165.202 405.538 148.544 436.786 148.938 479C151.885 505.542 161.76 530.904 178.473 554.762C184.877 549.673 193.28 546.332 202.535 545.684L202.544 545.661Z" fill="#113CFC"/>
<path d="M321.071 420.753C325.328 432.219 328.673 449.081 321.117 465.387C321.117 465.387 319.673 491.3 323.384 510.942C323.708 512.654 324.069 514.32 324.476 515.917C324.634 516.55 324.805 517.166 324.976 517.767C326.919 524.761 329.614 531.524 333.014 537.938C334.763 541.232 336.387 543.842 337.59 545.647C346.872 546.294 355.262 549.631 361.652 554.725C378.361 530.867 388.235 505.51 391.188 478.963C391.581 436.754 374.932 405.501 370.758 398.343L370.374 398.491C368.329 399.274 366.262 400.029 364.174 400.754C362.085 401.478 359.98 402.179 357.857 402.854C348.746 408.985 335.582 414.08 319.808 417.564C320.238 418.582 320.659 419.637 321.071 420.753Z" fill="#113CFC"/>
<path d="M305.084 250.211C297.745 236.07 288.99 228.99 282.072 225.455C275.155 221.92 270.069 221.92 270.069 221.92C270.069 221.92 249.709 221.92 235.055 250.211C219.831 279.571 187.889 302.267 149.113 290.042C129.396 283.842 116.995 275.661 105.807 271.959C112.664 312.082 136.809 340.905 167.71 359.65C198.611 378.395 236.24 387.177 270.069 387.177C337.729 387.177 420.612 352.209 434.337 271.959C423.148 275.624 410.738 283.828 391.03 290.042C352.249 302.281 320.307 279.585 305.084 250.211ZM316.499 343.001H315.953C314.245 347.868 311.813 352.449 308.739 356.591C302.492 364.92 290.693 374.892 270.069 374.892C249.423 374.892 237.646 364.939 231.399 356.591C228.332 352.449 225.908 347.867 224.209 343.001H223.663C193.766 342.793 196.251 317.861 196.251 317.861C196.251 317.861 206.468 328.865 228.868 325.728C251.269 322.59 257.298 315.381 258.085 312.498C258.871 309.616 258.085 303.457 258.085 303.457C258.085 303.457 235.758 297.654 234.148 273.306C234.058 272.538 234.011 271.765 234.009 270.992C234.009 256.809 250.163 245.315 270.102 245.315C290.027 245.315 306.194 256.809 306.194 270.992C306.193 271.765 306.145 272.538 306.051 273.306C304.441 297.654 282.114 303.457 282.114 303.457C282.114 303.457 281.327 309.616 282.114 312.498C282.901 315.381 288.925 322.586 311.326 325.728C333.726 328.87 343.948 317.861 343.948 317.861C343.948 317.861 346.396 342.807 316.499 343.015V343.001Z" fill="white"/>
<path d="M283.558 346.796C282.146 346.395 280.677 346.238 279.213 346.333C280.677 346.238 282.146 346.395 283.558 346.796Z" fill="black"/>
<path d="M252.606 349.067C254.406 347.179 257.525 346.198 260.681 346.328C257.525 346.184 254.402 347.17 252.606 349.067Z" fill="black"/>
<path d="M160.918 558.103C140.456 531.918 139.341 493.655 139.336 493.488C138.836 490.916 138.411 488.334 138.036 485.742C137.897 484.785 137.758 483.831 137.633 482.874C131.299 489.056 121.614 501.998 119.235 524.727C120.215 528.256 121.47 531.703 122.988 535.036C125.536 540.609 128.718 545.869 132.469 550.714C146.425 548.969 151.839 554.216 153.01 555.595C155.725 556.152 158.375 556.994 160.913 558.108L160.918 558.103Z" fill="#113CFC"/>
<path d="M454.299 147.486C450.837 116.743 443.975 81.3442 430.505 53.4373C429.481 51.3149 428.417 49.2388 427.312 47.209C424.841 42.6199 422.069 38.199 419.016 33.975C418.937 33.8594 418.858 33.7437 418.775 33.6326V33.6049L418.692 33.4938C418.137 32.7411 417.575 32.0054 417.008 31.2866C412.067 25.5968 405.375 21.7099 397.985 20.2367C382.858 17.1689 358.922 22.7632 326.263 61.484C327.22 62.9646 328.072 64.5109 328.812 66.1113L329.016 66.574C329.349 67.3283 329.534 67.828 329.585 67.9622C330.182 68.6748 330.797 69.4568 331.436 70.2758C332.549 71.7376 333.572 73.2659 334.499 74.8522C334.499 74.8522 325.795 68.9756 306.116 65.2553C299.821 64.0866 293.465 63.2756 287.079 62.8259C281.883 62.4465 276.242 62.2383 270.097 62.2707H270.009C268.922 62.2707 267.857 62.2707 266.798 62.2707H265.507C264.557 62.2707 263.62 62.2907 262.698 62.3308L261.532 62.3586C260.607 62.3894 259.681 62.4265 258.756 62.4696L257.701 62.5159C256.775 62.5622 255.85 62.6177 254.971 62.6732L254.017 62.7334L251.343 62.937L250.473 63.011C249.589 63.0851 248.728 63.1684 247.872 63.2563L247.076 63.3349C246.22 63.4275 245.388 63.5247 244.564 63.6218L243.814 63.7098C242.995 63.8162 242.195 63.9226 241.403 64.0337L240.7 64.1308C239.913 64.2419 239.15 64.3622 238.387 64.4825L237.711 64.5889C236.966 64.7092 236.244 64.8342 235.527 64.9637L234.851 65.1211C234.143 65.2506 233.463 65.3802 232.788 65.5144L232.154 65.6393C231.492 65.7735 230.858 65.9123 230.224 66.0511L229.59 66.1853C228.979 66.3241 228.392 66.4583 227.804 66.6018L227.165 66.7498L225.537 67.1617L224.875 67.3329C224.375 67.4624 223.894 67.5966 223.413 67.7308L222.723 67.9252C222.261 68.0501 221.849 68.1797 221.423 68.3046L220.701 68.5221C220.312 68.6378 219.942 68.7581 219.572 68.8784C219.318 68.957 219.058 69.0357 218.813 69.119L217.865 69.4383C217.592 69.5308 217.319 69.6188 217.059 69.7113L216.296 69.9843C216.005 70.0907 215.708 70.1925 215.431 70.299L214.866 70.5118L213.941 70.8681L213.594 71.0116L212.571 71.4234L212.451 71.4743C207.824 73.4038 205.667 74.8707 205.667 74.8707C206.588 73.297 207.601 71.7797 208.703 70.3267C209.327 69.4984 209.952 68.7072 210.554 67.9853V67.9205C211.261 66.0791 212.135 64.3058 213.163 62.6223L213.261 62.4604V62.4373C213.381 62.2429 213.501 62.0439 213.631 61.8403C213.705 61.72 213.774 61.6044 213.853 61.484C213.2 60.7113 212.557 59.9663 211.914 59.2213L211.252 58.4486C210.817 57.9488 210.387 57.4722 209.957 56.9864C209.526 56.5005 209.096 56.01 208.675 55.538C208.254 55.066 207.916 54.7097 207.537 54.2979C207.074 53.7843 206.611 53.2614 206.148 52.7617C205.788 52.3776 205.436 52.0167 205.084 51.6372C204.621 51.1329 204.122 50.6146 203.645 50.1241C203.303 49.7678 202.965 49.4301 202.622 49.083C202.16 48.5925 201.655 48.0928 201.179 47.6162C200.846 47.283 200.517 46.9684 200.184 46.6398C199.721 46.1771 199.226 45.7144 198.754 45.2516L197.782 44.3262C197.32 43.8635 196.857 43.4285 196.366 42.9935L195.404 42.1236C194.941 41.7025 194.479 41.2768 194.016 40.8696C193.697 40.5874 193.382 40.319 193.09 40.046C192.628 39.648 192.165 39.2455 191.702 38.866C191.388 38.5977 191.077 38.3432 190.777 38.084C190.314 37.7139 189.884 37.339 189.439 36.9781C189.129 36.7236 188.819 36.4876 188.514 36.2424C188.051 35.8907 187.639 35.5437 187.205 35.2059C186.894 34.9653 186.589 34.7432 186.279 34.5072L185.011 33.5493L184.086 32.883L182.85 31.9992L181.925 31.3745C181.522 31.0969 181.12 30.8239 180.722 30.5601C180.416 30.3565 180.111 30.1622 179.796 29.9678C179.408 29.7133 179.019 29.4588 178.63 29.2182L177.705 28.663C177.325 28.4316 176.951 28.2002 176.576 27.9827C176.27 27.8023 175.97 27.6357 175.65 27.4599C175.331 27.284 174.919 27.0434 174.554 26.8444C174.188 26.6455 173.952 26.5159 173.651 26.3586C173.351 26.2013 172.943 25.9791 172.592 25.7987C172.24 25.6182 171.985 25.4933 171.666 25.336L170.644 24.8362L169.718 24.4198C169.385 24.2671 169.056 24.1144 168.733 23.957C168.409 23.7997 168.131 23.6979 167.835 23.573C167.539 23.448 167.196 23.3046 166.877 23.1797L165.989 22.8326L165.063 22.4856C164.762 22.3745 164.466 22.2727 164.17 22.1709L163.286 21.8702L162.402 21.5925C162.116 21.5046 161.833 21.4167 161.551 21.338C161.269 21.2594 160.963 21.1714 160.672 21.0928L159.853 20.8753L158.978 20.6671L158.192 20.4866L157.326 20.3108L156.567 20.1673L155.711 20.0239L154.98 19.9128L154.143 19.8064L153.43 19.7231L152.607 19.6491L151.922 19.5935L151.112 19.5519C150.89 19.5519 150.668 19.5426 150.446 19.5241C150.224 19.5056 149.96 19.5056 149.654 19.5241H149.108H148.299H147.688L146.901 19.5704L146.304 19.6121L145.55 19.6815L144.958 19.7462L144.236 19.8434L143.653 19.9313C143.421 19.9637 143.19 20.0054 142.963 20.047L142.385 20.1534L141.733 20.2876L141.159 20.4172C140.951 20.4635 140.742 20.5144 140.539 20.5699L139.965 20.718L139.391 20.8799L138.817 21.0511L138.281 21.2223L137.702 21.4121L137.239 21.5879L136.656 21.8054L136.194 21.9812L135.601 22.2218L135.213 22.393L134.607 22.6614L134.269 22.8234L133.653 23.1195L133.366 23.263L132.737 23.5915L132.51 23.7164L131.863 24.0773L131.696 24.1745L131.03 24.5725L130.919 24.6419L130.234 25.0722L130.192 25.1C127.559 26.7883 125.189 28.8558 123.159 31.2357C122.588 31.9514 122.027 32.6871 121.474 33.4429L121.386 33.554V33.5817C118.507 37.5336 115.88 41.6631 113.52 45.9457C112.172 48.3673 110.881 50.8552 109.647 53.4095C101.202 70.919 95.3582 91.3761 91.3186 111.778C88.9263 123.878 87.1541 135.96 85.8724 147.407C85.5176 150.585 85.1952 153.71 84.9053 156.782C85.412 157.389 85.9971 157.926 86.6451 158.379C87.5224 158.979 88.5207 159.38 89.5696 159.552C90.6186 159.725 91.6926 159.666 92.7161 159.378C101.452 157.282 102.739 145.228 102.739 145.228C101.559 99.3488 121.382 64.7139 132.071 49.4948C132.654 48.6712 133.205 47.8984 133.727 47.1812C135.207 45.1537 137.332 43.6894 139.754 43.0286C142.175 42.3677 144.749 42.5495 147.054 43.5442C151.546 45.5224 155.643 48.2989 159.145 51.739L159.182 51.7761C160.828 53.3867 162.358 55.1107 163.763 56.9355C163.787 56.9614 163.808 56.9893 163.828 57.0187C170.597 65.8105 174.008 75.9905 175.581 82.0337C175.953 83.4835 175.811 85.0173 175.18 86.3746C174.549 87.7319 173.468 88.8288 172.12 89.4789C166.666 92.1636 161.503 95.4011 156.711 99.1406C155.846 100.214 96.7418 173.681 104.423 261.025C104.553 262.52 104.715 263.991 104.886 265.453C105.154 267.647 105.464 269.812 105.811 271.931C117 275.596 129.41 283.8 149.118 290.015C187.894 302.24 219.836 279.543 235.06 250.183C249.723 221.897 270.06 221.892 270.074 221.892C270.088 221.892 275.164 221.892 282.077 225.428C288.99 228.963 297.749 236.042 305.088 250.183C320.312 279.543 352.254 302.24 391.03 290.015C410.747 283.8 423.148 275.596 434.337 271.931C434.698 269.803 435.006 267.643 435.262 265.453C435.443 263.991 435.604 262.52 435.725 261.025C443.415 173.681 384.311 100.214 383.437 99.1406C378.646 95.4012 373.485 92.1637 368.033 89.4789C366.684 88.8296 365.601 87.733 364.969 86.3756C364.337 85.0183 364.195 83.484 364.567 82.0337C366.14 75.9673 369.551 65.8105 376.325 57.0187C376.343 56.9882 376.364 56.9602 376.39 56.9355C377.793 55.1096 379.324 53.3855 380.971 51.7761L381.008 51.739C384.511 48.3024 388.609 45.5304 393.103 43.5581C395.408 42.5643 397.982 42.3829 400.403 43.0437C402.824 43.7045 404.949 45.1683 406.43 47.1951C406.953 47.9077 407.503 48.6804 408.086 49.5087C418.775 64.7463 438.598 99.3627 437.414 145.242C437.414 145.242 438.7 157.296 447.432 159.392C448.456 159.68 449.531 159.74 450.581 159.567C451.63 159.394 452.629 158.993 453.507 158.393C454.155 157.94 454.74 157.403 455.247 156.796C454.979 153.747 454.646 150.628 454.299 147.486Z" fill="#113CFC"/>
<path d="M208.013 582.512C224.486 583.067 229.919 576.293 231.46 570.018C231.191 569.556 230.9 569.125 230.594 568.695L230.557 568.639C230.502 568.556 230.432 568.477 230.372 568.394C227.677 564.854 224.122 562.062 220.044 560.283C215.591 558.291 210.763 557.274 205.885 557.298C200.25 557.253 194.694 558.617 189.722 561.268C186.357 563.059 183.443 565.591 181.199 568.672C180.573 569.551 180.019 570.48 179.542 571.448C179.704 576.95 184.609 581.73 208.013 582.512Z" fill="white"/>
<path d="M124.325 575.89C126.389 587.639 141.835 585.654 154.833 581.073C169.358 575.955 160.936 558.145 160.917 558.108C158.379 556.994 155.73 556.151 153.014 555.595C153.181 555.799 153.259 555.915 153.259 555.915C132.34 556.035 125.533 565.928 124.325 575.89Z" fill="white"/>
<path d="M199.8 162.858C201.722 165.979 204.14 168.766 206.959 171.108C214.478 177.318 223.825 179.104 230.743 174.81C239.937 169.114 241.432 154.816 234.26 142.563C234.107 142.299 233.959 142.04 233.797 141.781C226.338 129.75 213.099 124.345 203.72 129.315C203.411 129.478 203.115 129.65 202.831 129.828C193.466 135.65 192.101 150.438 199.8 162.858Z" fill="white"/>
<path d="M125.875 116.599C140.219 91.7923 164.933 57.1759 132.043 49.5039C121.354 64.7414 101.531 99.3579 102.711 145.237C102.974 145.121 111.766 141.008 125.875 116.599Z" fill="white"/>
<path d="M159.154 51.79C160.829 53.5607 162.356 55.2805 163.735 56.9494C162.331 55.1247 160.8 53.4007 159.154 51.79Z" fill="white"/>
<path d="M156.683 99.1544C161.475 95.4149 166.639 92.1774 172.092 89.4927C173.44 88.8426 174.522 87.7457 175.153 86.3884C175.784 85.0311 175.925 83.4972 175.553 82.0474C173.98 75.9811 170.57 65.8243 163.8 57.0325C163.781 57.0031 163.759 56.9752 163.735 56.9493C162.353 55.2834 160.826 53.5637 159.154 51.7899L159.117 51.7528C155.615 48.3127 151.519 45.5362 147.026 43.558C144.722 42.5633 142.147 42.3815 139.726 43.0424C137.304 43.7032 135.179 45.1675 133.7 47.195C133.177 47.9076 132.626 48.6804 132.043 49.5086C164.934 57.1806 140.206 91.7971 125.875 116.604C111.766 141.008 102.975 145.121 102.711 145.237C102.883 151.861 103.48 158.467 104.497 165.014C104.582 165.56 104.843 166.063 105.24 166.446C105.637 166.83 106.149 167.074 106.697 167.14C107.245 167.207 107.8 167.093 108.278 166.815C108.755 166.537 109.129 166.111 109.342 165.602C115.593 150.67 131.09 118.95 156.669 99.1683L156.683 99.1544Z" fill="#DBBDBF"/>
<path d="M100.328 270.571C102.184 270.907 104.015 271.371 105.807 271.959C105.441 269.83 105.131 267.665 104.882 265.481C104.701 264.018 104.539 262.547 104.419 261.052C96.7006 173.708 155.804 100.241 156.651 99.168C131.053 118.949 115.575 150.669 109.324 165.601C109.111 166.111 108.737 166.537 108.26 166.815C107.782 167.092 107.227 167.207 106.679 167.14C106.131 167.074 105.619 166.83 105.222 166.446C104.825 166.062 104.564 165.559 104.479 165.014C103.462 158.466 102.865 151.861 102.693 145.237C102.693 145.237 101.406 157.291 92.6702 159.387C91.6469 159.676 90.5727 159.736 89.5235 159.563C88.4744 159.39 87.4761 158.989 86.5993 158.388C85.9513 157.935 85.3662 157.398 84.8595 156.791C82.6523 180.163 82.3561 199.862 82.3839 209.944C82.3839 214.414 82.4764 217.001 82.4857 217.172C82.4927 217.616 82.4509 218.06 82.3608 218.496C82.3237 218.671 82.3006 218.852 82.2497 219.028C82.1988 219.203 77.0533 237.199 76.7803 260.673C76.7525 263.306 76.7803 266.087 76.9098 268.97C76.9978 271.144 77.1273 273.375 77.3217 275.661C86.0579 270.339 93.1515 269.247 100.328 270.571Z" fill="#193498"/>
<path d="M230.895 330.697C250.292 327.921 260.445 320.767 265.076 316.293V301.231C259.085 300.376 253.378 298.124 248.418 294.656C248.02 294.378 247.627 294.096 247.243 293.809C246.475 293.23 245.73 292.629 245.017 292.004C238.942 286.711 234.921 279.885 234.143 273.31C235.754 297.659 258.08 303.461 258.08 303.461C258.08 303.461 258.867 309.62 258.08 312.503C257.293 315.386 251.269 322.59 228.864 325.732C206.458 328.874 196.246 317.866 196.246 317.866C196.246 317.866 205.639 334.325 230.895 330.697Z" fill="#DBBDBF"/>
<path d="M154.43 537.374C150.604 529.755 147.338 521.868 144.657 513.775C143.115 509.117 141.782 504.414 140.659 499.666C140.197 497.616 139.734 495.566 139.336 493.498C139.336 493.665 140.456 531.904 160.917 558.113C164.311 559.593 167.473 561.555 170.306 563.939C170.338 563.892 170.362 563.846 170.389 563.804C170.417 563.763 170.389 563.763 170.422 563.74C164.401 555.389 159.053 546.572 154.43 537.374Z" fill="#193498"/>
<path d="M219.026 465.378C219.026 465.503 220.456 491.328 216.754 510.929C216.43 512.641 216.069 514.306 215.662 515.903C215.514 516.49 215.357 517.06 215.199 517.629C213.23 524.766 210.475 531.662 206.986 538.192C205.293 541.367 203.719 543.888 202.544 545.647C203.645 545.568 204.756 545.522 205.876 545.522C208.731 545.52 211.581 545.78 214.39 546.299L214.547 546.332C215.408 546.494 216.259 546.674 217.101 546.882C217.888 540.339 219.438 529.539 222.464 514.399C226.832 492.563 219.831 468.127 219.086 465.6C219.049 465.47 219.026 465.392 219.022 465.383L219.026 465.378Z" fill="#193498"/>
<path d="M234.019 577.973C234.019 577.973 234.019 577.936 234.019 577.922C233.851 575.769 233.288 573.665 232.358 571.717C232.093 571.14 231.798 570.578 231.474 570.032C229.933 576.298 224.501 583.072 208.028 582.526C184.614 581.744 179.709 576.973 179.542 571.42C178.339 573.834 177.706 576.492 177.691 579.189C177.694 581.604 178.205 583.991 179.191 586.195H232.566C232.566 586.153 232.598 586.112 232.617 586.07C233.565 583.906 234.058 581.571 234.065 579.208C234.065 578.995 234.065 578.782 234.065 578.569C234.065 578.357 234.033 578.162 234.019 577.973Z" fill="#DBBDBF"/>
<path d="M154.832 581.059C141.834 585.64 126.388 587.625 124.325 575.876C124.283 576.242 124.26 576.603 124.228 576.968C124.163 577.778 124.121 578.588 124.121 579.388C124.12 581.723 124.592 584.034 125.509 586.181H166.831C166.59 585.214 166.405 584.228 166.261 583.243C166.057 581.897 165.952 580.537 165.947 579.176C165.951 576.934 166.221 574.7 166.752 572.522C167.487 569.484 168.689 566.579 170.315 563.91C167.482 561.53 164.319 559.571 160.926 558.094C160.935 558.145 169.357 575.969 154.832 581.059Z" fill="#DBBDBF"/>
<path d="M208.699 70.3033C207.597 71.7563 206.584 73.2736 205.663 74.8472C207.821 73.5227 210.091 72.3894 212.447 71.4601L212.567 71.4092L213.59 70.9974L213.937 70.8539L214.862 70.4976L215.427 70.2848C215.704 70.1783 216 70.0765 216.292 69.9701L217.055 69.6971C217.314 69.6046 217.588 69.5166 217.861 69.4241L218.809 69.1048C219.054 69.0215 219.313 68.9429 219.568 68.8642C219.938 68.7439 220.308 68.6236 220.697 68.5079L221.419 68.2904C221.845 68.1655 222.275 68.0359 222.719 67.911L223.409 67.7166C223.871 67.5824 224.371 67.4483 224.871 67.3187L225.532 67.1475L227.161 66.7357L227.8 66.5876C228.388 66.4442 228.975 66.31 229.586 66.1711L230.225 66.0462C230.858 65.9074 231.492 65.7686 232.154 65.6344L232.788 65.5094C233.464 65.3753 234.144 65.2457 234.852 65.1161L235.5 65.0004C236.217 64.8709 236.939 64.7459 237.684 64.6256L238.359 64.5192C239.113 64.3989 239.877 64.2786 240.673 64.1675L241.376 64.0704C242.167 63.9593 242.968 63.8529 243.787 63.7465L244.537 63.6585C245.36 63.5614 246.193 63.4642 247.049 63.3717L247.845 63.293C248.701 63.2051 249.562 63.1218 250.446 63.0477L251.316 62.9737L253.99 62.7701L254.943 62.71C255.841 62.6544 256.748 62.5989 257.673 62.5526L258.728 62.5064C259.654 62.4663 260.579 62.4292 261.505 62.3953L262.671 62.3675C263.596 62.3398 264.532 62.3197 265.48 62.3074H266.771C267.83 62.3074 268.894 62.3074 269.982 62.3074H270.07C276.215 62.275 281.855 62.4832 287.052 62.8627C293.438 63.3123 299.794 64.1234 306.088 65.292C325.662 68.9938 334.379 74.8195 334.467 74.8796C333.54 73.2934 332.517 71.7651 331.404 70.3033C330.784 69.4843 330.164 68.693 329.553 67.9897C329.322 67.7999 325.962 65.329 319.331 62.4786C309.809 58.3881 293.535 53.5156 270.051 53.5156C246.568 53.5156 230.317 58.3789 220.794 62.4693C214.149 65.3197 210.781 67.7999 210.549 67.9897C209.957 68.6699 209.328 69.4704 208.699 70.3033Z" fill="#1597E5"/>
<path d="M123.154 31.2631C125.184 28.8831 127.554 26.8157 130.188 25.1273L130.229 25.0996L130.914 24.6692L131.025 24.5998L131.692 24.2019L131.858 24.1047L132.506 23.7438L132.733 23.6188L133.362 23.2903L133.649 23.1469L134.264 22.8507L134.602 22.6888L135.208 22.4204L135.597 22.2492L136.189 22.0086L136.652 21.8327L137.217 21.6245L137.679 21.4487L138.258 21.2589L138.794 21.0877L139.368 20.9165L139.942 20.7546L140.516 20.6065C140.719 20.551 140.928 20.5001 141.136 20.4538L141.71 20.3242L142.362 20.1901L142.94 20.0836C143.167 20.042 143.403 20.0003 143.63 19.968L144.213 19.88L144.935 19.7829L145.527 19.7181L146.281 19.6487L146.878 19.607L147.665 19.5608H148.276H149.085H149.724C149.986 19.5608 150.25 19.5608 150.515 19.5608C150.781 19.5608 151.003 19.57 151.182 19.5885L151.991 19.6302L152.676 19.6857L153.5 19.7597L154.212 19.843L155.05 19.9494L155.781 20.0605L156.637 20.2039L157.396 20.3474L158.261 20.5232L159.048 20.7037L159.922 20.9119L160.741 21.1294C161.033 21.208 161.324 21.2867 161.621 21.3746C161.917 21.4625 162.185 21.5412 162.472 21.6291L163.356 21.9068L164.24 22.2075C164.536 22.3093 164.832 22.4111 165.133 22.5222L166.058 22.8692L166.947 23.2163C167.266 23.3412 167.585 23.4754 167.904 23.6096C168.224 23.7438 168.501 23.8595 168.802 23.9937C169.103 24.1278 169.455 24.2852 169.788 24.4564L170.713 24.8728L171.736 25.3726C172.037 25.5206 172.337 25.6687 172.661 25.8353C172.985 26.0019 173.365 26.2055 173.721 26.3952C174.077 26.5849 174.322 26.7098 174.623 26.8811C174.924 27.0523 175.354 27.2883 175.72 27.4965C176.085 27.7047 176.326 27.8389 176.645 28.0194C177.02 28.2368 177.395 28.4821 177.774 28.6996L178.7 29.2548C179.089 29.4954 179.477 29.7499 179.866 30.0044C180.171 30.1988 180.477 30.3931 180.791 30.5967C181.189 30.8605 181.592 31.1335 181.994 31.4111L182.92 32.0358L184.155 32.9196L185.081 33.5859L186.265 34.4882C186.575 34.7196 186.881 34.951 187.191 35.187C187.626 35.5248 188.061 35.8718 188.5 36.2235C188.806 36.4687 189.116 36.6862 189.426 36.9592C189.888 37.3201 190.314 37.6949 190.763 38.0651C191.073 38.3242 191.383 38.5787 191.688 38.8471C192.151 39.2266 192.614 39.6291 193.077 40.0271C193.391 40.3001 193.706 40.5685 194.002 40.8507C194.465 41.2579 194.928 41.6836 195.39 42.1047L196.353 42.9746C196.815 43.4096 197.278 43.8631 197.769 44.3073L198.74 45.2327C199.203 45.6954 199.694 46.1582 200.17 46.6209C200.503 46.9494 200.832 47.2641 201.165 47.5972C201.628 48.06 202.128 48.5736 202.609 49.0641C202.951 49.4111 203.289 49.7489 203.631 50.1052C204.094 50.5957 204.589 51.114 205.071 51.6183C205.422 51.9978 205.774 52.3587 206.135 52.7427C206.597 53.2425 207.06 53.7654 207.523 54.279C207.902 54.6908 208.277 55.0934 208.661 55.5191C209.045 55.9448 209.517 56.4816 209.943 56.9674C210.369 57.4533 210.804 57.9299 211.239 58.4296L211.9 59.2024C212.544 59.9474 213.187 60.6924 213.839 61.4651C216.688 56.9534 220.533 53.1545 225.079 50.3597C210.383 35.2795 196.251 24.4471 183.17 18.1448C182.073 17.6219 180.981 17.1176 179.903 16.6548C179.44 16.4559 178.977 16.2662 178.492 16.0764C178.242 15.9793 177.996 15.8682 177.747 15.7757L177.159 15.5536C176.622 15.35 176.085 15.1464 175.553 14.9613C168.733 12.5505 162.241 11.4955 156.16 11.8518C150.658 12.1863 145.292 13.7013 140.428 16.2939C134.255 19.5392 128.497 24.5289 123.154 31.2631Z" fill="#1597E5"/>
<path d="M402.506 482.878C402.381 483.846 402.238 484.813 402.094 485.78C401.719 488.357 401.298 490.93 400.803 493.489C400.803 493.683 399.679 531.927 379.222 558.104C381.762 556.99 384.413 556.148 387.13 555.591C388.291 554.203 393.714 548.965 407.665 550.709C411.502 545.759 414.741 540.373 417.313 534.662C418.76 531.445 419.96 528.122 420.904 524.723C418.525 501.998 408.836 489.06 402.506 482.878Z" fill="#113CFC"/>
<path d="M332.116 582.512C355.53 581.73 360.435 576.959 360.597 571.407C360.086 570.364 359.484 569.368 358.797 568.431L358.727 568.343C356.501 565.402 353.658 562.983 350.398 561.254C345.426 558.604 339.87 557.239 334.235 557.284C329.331 557.26 324.479 558.289 320.007 560.301C316 562.055 312.499 564.789 309.827 568.251C309.401 568.825 308.994 569.412 308.633 570.014C310.211 576.293 315.643 583.067 332.116 582.512Z" fill="white"/>
<path d="M385.306 581.059C398.304 585.64 413.75 587.625 415.809 575.876C414.606 565.914 407.794 556.021 386.879 555.905C386.879 555.905 386.958 555.79 387.124 555.586C384.407 556.143 381.757 556.985 379.216 558.099C379.221 558.145 370.781 575.969 385.306 581.059Z" fill="white"/>
<path d="M309.391 174.81C316.332 179.122 325.753 177.299 333.296 171.016C335.862 168.861 338.09 166.334 339.908 163.519C340.052 163.302 340.2 163.084 340.338 162.858C348.038 150.438 346.673 135.649 337.284 129.828C337.03 129.671 336.775 129.528 336.516 129.366C327.151 124.276 313.843 129.676 306.342 141.762C306.18 142.021 306.027 142.28 305.879 142.544C298.707 154.816 300.202 169.114 309.391 174.81Z" fill="white"/>
<path d="M414.264 116.599C428.363 141.012 437.155 145.121 437.4 145.237C438.585 99.3579 418.762 64.7229 408.073 49.5039C375.205 57.1759 399.934 91.7923 414.264 116.599Z" fill="white"/>
<path d="M376.403 56.9494C377.792 55.2836 379.305 53.5623 380.984 51.79C379.337 53.3995 377.807 55.1236 376.403 56.9494Z" fill="white"/>
<path d="M288.806 351.15C288.3 349.76 287.316 348.595 286.029 347.864C285.849 347.753 285.659 347.652 285.47 347.55L285.183 347.416L284.863 347.263C284.703 347.192 284.536 347.127 284.364 347.069L284.229 347.018C284.017 346.939 283.794 346.87 283.572 346.805C282.161 346.404 280.691 346.248 279.227 346.342H279.195C278.987 346.342 278.774 346.374 278.566 346.398H278.431L277.918 346.476L277.668 346.518L277.279 346.601L276.909 346.68L276.65 346.754C276.483 346.8 276.321 346.842 276.187 346.897L276.048 346.944C275.849 347.008 275.65 347.078 275.452 347.156C274.243 347.607 273.143 348.308 272.224 349.213C271.304 350.118 270.586 351.207 270.116 352.408C268.566 348.373 264.624 346.486 260.728 346.31C257.572 346.18 254.453 347.161 252.653 349.049C252.08 349.64 251.645 350.351 251.381 351.131C250.923 352.355 250.81 353.681 251.055 354.965C251.3 356.249 251.893 357.44 252.769 358.41C253.509 359.259 254.389 359.975 255.369 360.529C260.055 362.276 265.019 363.152 270.019 363.116H270.241C275.224 363.159 280.173 362.285 284.84 360.538C285.289 360.312 290.842 357.193 288.806 351.15Z" fill="#FF9C9C"/>
<path d="M430.792 165.601C431.005 166.111 431.379 166.537 431.856 166.815C432.334 167.092 432.889 167.207 433.437 167.14C433.985 167.074 434.497 166.83 434.894 166.446C435.291 166.062 435.552 165.559 435.637 165.014C436.656 158.467 437.253 151.861 437.423 145.237C437.155 145.121 428.363 141.012 414.287 116.599C399.942 91.7921 375.228 57.1756 408.119 49.5036C407.536 48.68 406.985 47.9072 406.462 47.19C404.982 45.1632 402.857 43.6994 400.436 43.0386C398.014 42.3778 395.44 42.5592 393.136 43.553C388.642 45.53 384.546 48.3067 381.045 51.7479L381.008 51.7849C379.328 53.5571 377.81 55.2784 376.427 56.9443C376.402 56.969 376.38 56.997 376.362 57.0276C369.588 65.8193 366.182 75.9993 364.604 82.0425C364.232 83.4928 364.375 85.0271 365.007 86.3844C365.638 87.7418 366.721 88.8384 368.07 89.4877C373.522 92.1724 378.684 95.41 383.474 99.1494C409.063 118.949 424.569 150.669 430.792 165.601Z" fill="#DBBDBF"/>
<path d="M455.266 156.801C454.759 157.408 454.174 157.944 453.526 158.397C452.648 158.999 451.649 159.4 450.599 159.573C449.549 159.746 448.474 159.686 447.45 159.397C438.719 157.301 437.432 145.247 437.432 145.247C437.262 151.87 436.666 158.476 435.646 165.023C435.561 165.569 435.3 166.072 434.903 166.456C434.506 166.84 433.994 167.083 433.446 167.15C432.898 167.216 432.343 167.102 431.866 166.824C431.388 166.547 431.015 166.121 430.801 165.611C424.555 150.679 409.053 118.959 383.479 99.1777C384.344 100.251 443.448 173.718 435.766 261.062C435.637 262.557 435.475 264.028 435.304 265.49C435.035 267.684 434.727 269.843 434.378 271.968C436.159 271.385 437.977 270.921 439.82 270.58C447.011 269.266 454.109 270.349 462.845 275.67C463.044 273.384 463.169 271.154 463.262 268.979C463.377 266.096 463.419 263.315 463.391 260.683C463.118 237.204 457.973 219.204 457.922 219.037C457.871 218.871 457.848 218.681 457.811 218.505C457.721 218.07 457.679 217.626 457.686 217.182C457.686 217.006 457.774 214.336 457.788 209.713C457.764 199.557 457.45 179.983 455.266 156.801Z" fill="#193498"/>
<path d="M295.135 292.004C294.418 292.629 293.678 293.23 292.905 293.809C292.521 294.096 292.132 294.378 291.734 294.656C286.774 298.124 281.068 300.376 275.076 301.231V316.293C279.703 320.767 289.86 327.912 309.253 330.697C334.513 334.325 343.92 317.88 343.92 317.875C343.92 317.87 333.699 328.879 311.298 325.741C288.898 322.604 282.873 315.395 282.086 312.512C281.3 309.629 282.086 303.47 282.086 303.47C282.086 303.47 304.413 297.668 306.023 273.319C305.232 279.885 301.211 286.711 295.135 292.004Z" fill="#DBBDBF"/>
<path d="M379.222 558.103C399.679 531.927 400.799 493.683 400.803 493.488C400.396 495.557 399.957 497.607 399.48 499.656C398.36 504.401 397.028 509.104 395.482 513.765C392.781 521.92 389.486 529.867 385.621 537.54C381.018 546.673 375.699 555.428 369.713 563.721C369.727 563.741 369.739 563.763 369.75 563.786C369.775 563.832 369.803 563.877 369.833 563.92C372.667 561.541 375.829 559.584 379.222 558.108V558.103Z" fill="#193498"/>
<path d="M337.576 545.661C336.373 543.856 334.749 541.246 333 537.952C329.598 531.539 326.903 524.776 324.962 517.782C324.791 517.166 324.62 516.551 324.463 515.931C324.055 514.334 323.695 512.692 323.371 510.956C319.669 491.351 321.089 465.526 321.099 465.406C321.099 465.406 321.071 465.498 321.034 465.632C321.034 465.683 321.001 465.734 320.983 465.799C319.983 469.232 313.399 493.072 317.661 514.385C320.691 529.526 322.242 540.325 323.028 546.868C323.87 546.66 324.722 546.48 325.578 546.318L325.735 546.285C328.545 545.766 331.396 545.506 334.254 545.508C335.378 545.536 336.489 545.582 337.576 545.661Z" fill="#193498"/>
<path d="M332.116 582.512C315.643 583.067 310.211 576.293 308.67 570.019C308.33 570.586 308.021 571.172 307.744 571.772C306.835 573.702 306.285 575.781 306.12 577.908C306.118 577.925 306.118 577.942 306.12 577.959C306.12 578.149 306.12 578.343 306.12 578.537C306.12 578.732 306.12 578.963 306.12 579.176C306.125 581.557 306.623 583.91 307.582 586.089C307.582 586.121 307.605 586.154 307.619 586.181H360.981C361.969 583.978 362.48 581.591 362.48 579.176C362.467 576.478 361.834 573.82 360.629 571.407C360.435 576.95 355.53 581.73 332.116 582.512Z" fill="#DBBDBF"/>
<path d="M385.307 581.059C370.782 575.941 379.199 558.131 379.217 558.094C375.826 559.572 372.665 561.531 369.833 563.91C371.454 566.571 372.653 569.466 373.387 572.494C373.923 574.681 374.196 576.924 374.201 579.176C374.196 580.537 374.091 581.897 373.886 583.243C373.743 584.228 373.558 585.214 373.317 586.181H414.639C415.556 584.034 416.028 581.723 416.027 579.388C416.027 578.588 415.985 577.773 415.916 576.959C415.888 576.598 415.865 576.237 415.819 575.876C413.75 587.639 398.305 585.654 385.307 581.059Z" fill="#DBBDBF"/>
<path d="M397.986 20.2366C405.366 21.7121 412.049 25.5952 416.985 31.2772C411.659 24.5492 405.88 19.5517 399.693 16.2988C394.829 13.7052 389.463 12.1901 383.96 11.8566C377.885 11.5003 371.393 12.5553 364.572 14.9661C364.04 15.1512 363.503 15.3548 362.967 15.5584C362.772 15.6325 362.573 15.7019 362.379 15.7805C362.185 15.8592 362.023 15.924 361.847 15.9934C360.755 16.433 359.654 16.9188 358.543 17.4047C358.187 17.5667 357.83 17.7332 357.479 17.9044C344.249 24.1466 329.937 35.0854 315.047 50.3646C319.592 53.1593 323.437 56.9583 326.286 61.47C358.922 22.7492 382.859 17.1548 397.986 20.2366Z" fill="#1597E5"/>
<path d="M270.07 571.93C258.16 571.837 249.354 569.616 243.172 567.136C244.911 570.908 245.816 575.012 245.823 579.167C245.819 581.53 245.521 583.883 244.935 586.172H295.205C294.618 583.883 294.318 581.53 294.312 579.167C294.322 575.012 295.228 570.908 296.968 567.136C293.315 568.591 289.531 569.696 285.669 570.435C280.527 571.415 275.305 571.915 270.07 571.93Z" fill="#193498"/>
<path d="M270.092 344.644H270.046C253.85 338.823 245.239 349.613 243.254 352.454C246.613 356.024 250.733 358.79 255.308 360.547C254.333 359.993 253.459 359.277 252.726 358.428C251.85 357.459 251.257 356.267 251.012 354.983C250.767 353.7 250.88 352.374 251.338 351.15C251.602 350.37 252.037 349.658 252.61 349.067C254.406 347.17 257.529 346.185 260.685 346.328C264.581 346.504 268.523 348.392 270.073 352.427C270.543 351.225 271.261 350.137 272.181 349.232C273.1 348.327 274.2 347.626 275.409 347.175C275.608 347.096 275.807 347.027 276.006 346.962L276.144 346.916C276.302 346.86 276.464 346.818 276.607 346.772L276.866 346.698L277.236 346.619L277.625 346.536L277.875 346.495L278.389 346.416H278.523C278.731 346.416 278.944 346.374 279.152 346.36H279.185C280.649 346.266 282.118 346.422 283.529 346.823C283.752 346.888 283.992 346.957 284.187 347.036L284.321 347.087C284.49 347.149 284.657 347.213 284.82 347.281L285.14 347.434L285.427 347.568C285.616 347.67 285.806 347.772 285.987 347.883C287.273 348.613 288.257 349.778 288.763 351.168C290.78 357.211 285.228 360.33 284.784 360.566C289.361 358.81 293.483 356.043 296.842 352.473C294.899 349.613 286.292 338.823 270.092 344.644Z" fill="#E06E6E"/>
<path d="M157.516 380.315C167.991 385.369 178.859 389.562 190.013 392.855C204.181 397.031 218.68 399.986 233.352 401.688C239.253 402.398 245.269 402.93 251.398 403.285C256.581 403.593 261.843 403.767 267.186 403.807C268.149 403.807 269.107 403.807 270.069 403.807H270.481C272.646 403.807 274.803 403.808 276.959 403.738C277.672 403.738 278.347 403.692 279.078 403.673C285.156 403.507 291.137 403.178 297.023 402.688C297.638 402.637 298.244 402.572 298.874 402.512L300.498 402.355L301.951 402.216C302.483 402.169 303.02 402.123 303.547 402.063C338.062 398.361 368.884 388.815 394.63 373.985H394.662H394.699C395.162 373.73 395.569 373.467 396.004 373.208L396.888 372.68C405.879 367.338 414.369 361.194 422.255 354.324C428.038 349.286 433.45 343.838 438.45 338.022C439.015 337.356 439.584 336.694 440.139 336.023C443.487 331.975 446.471 327.64 449.056 323.067C452.703 316.55 455.624 309.653 457.764 302.498C460.03 294.956 461.593 287.22 462.433 279.39C462.556 278.267 462.668 277.155 462.766 276.054C462.766 275.929 462.766 275.799 462.799 275.679C454.062 270.334 446.964 269.252 439.773 270.589C437.93 270.928 436.112 271.392 434.332 271.977C420.612 352.214 337.729 387.196 270.064 387.196C236.235 387.196 198.597 378.455 167.705 359.682C136.814 340.909 112.664 312.095 105.806 271.959C104.014 271.371 102.184 270.907 100.328 270.57C93.1509 269.261 86.0573 270.353 77.335 275.688C77.335 275.809 77.3627 275.938 77.372 276.063C77.4707 277.164 77.5817 278.276 77.7051 279.399C78.5433 287.227 80.1063 294.96 82.374 302.498C83.7608 307.092 85.4615 311.585 87.464 315.945C88.5236 318.259 89.6758 320.526 90.9391 322.775C91.1612 323.173 91.4018 323.571 91.6239 323.969C94.0808 328.201 96.8805 332.225 99.9946 336C115.2 354.324 134.648 369.214 157.516 380.315Z" fill="#DBBDBF"/>
<path d="M343.907 317.875C343.907 317.875 334.5 334.325 309.24 330.697C289.847 327.921 279.695 320.767 275.063 316.293V301.231C281.054 300.376 286.761 298.124 291.721 294.656C292.119 294.378 292.508 294.096 292.892 293.809C293.664 293.23 294.405 292.629 295.122 292.004C301.197 286.711 305.219 279.885 305.991 273.31C306.086 272.542 306.134 271.77 306.135 270.996C306.135 256.814 289.981 245.32 270.042 245.32C250.117 245.32 233.95 256.814 233.95 270.996C233.952 271.77 233.998 272.542 234.088 273.31C234.866 279.885 238.887 286.729 244.963 292.004C245.675 292.629 246.42 293.23 247.188 293.809C247.572 294.096 247.966 294.378 248.364 294.656C253.324 298.124 259.03 300.376 265.022 301.231V316.293C260.394 320.767 250.214 327.912 230.84 330.697C205.585 334.325 196.177 317.88 196.177 317.875C196.177 317.875 193.693 342.807 223.589 343.015H224.135C225.842 347.882 228.274 352.464 231.349 356.605C237.596 364.934 249.395 374.906 270.019 374.906C290.666 374.906 302.442 364.953 308.689 356.605C311.762 352.463 314.194 347.882 315.903 343.015H316.449C346.396 342.807 343.907 317.875 343.907 317.875ZM284.826 360.548C280.159 362.294 275.21 363.168 270.227 363.125H270.019C265.01 363.168 260.036 362.294 255.341 360.548C254.361 359.994 253.481 359.277 252.741 358.428C253.474 359.277 254.348 359.993 255.323 360.548C250.744 358.797 246.62 356.037 243.255 352.473C245.24 349.632 253.847 338.841 270.047 344.662H270.093C286.288 338.841 294.9 349.632 296.885 352.473C293.523 356.037 289.402 358.797 284.826 360.548Z" fill="black"/>
<path d="M391.067 443.274C388.457 420.6 381.572 403.345 377.926 395.456C375.57 396.45 373.197 397.427 370.781 398.352C374.946 405.511 391.604 436.758 391.211 478.973C392.511 467.106 392.463 455.13 391.067 443.274Z" fill="#1597E5"/>
<path d="M410.645 478.228C408.551 476.249 406.112 474.67 403.45 473.568C403.225 476.684 402.916 479.785 402.524 482.873C408.859 489.055 418.544 501.993 420.922 524.722C422.268 519.898 422.991 514.922 423.074 509.915C423.282 491.753 414.453 481.707 410.645 478.228Z" fill="#1597E5"/>
<path d="M162.204 395.46C158.557 403.327 151.667 420.614 149.058 443.278C147.669 455.137 147.625 467.114 148.928 478.982C148.535 436.773 165.184 405.52 169.357 398.362C166.951 397.432 164.577 396.455 162.204 395.46Z" fill="#1597E5"/>
<path d="M137.633 482.873C137.235 479.788 136.927 476.687 136.708 473.568C134.045 474.669 131.606 476.248 129.512 478.228C125.704 481.707 116.875 491.758 117.102 509.906C117.183 514.913 117.906 519.889 119.254 524.713C121.613 501.998 131.298 489.055 137.633 482.873Z" fill="#1597E5"/>
<path d="M483.649 439.391C483.602 436.562 482.751 433.805 481.196 431.441C479.641 429.077 477.446 427.204 474.868 426.04C472.289 424.876 469.432 424.469 466.631 424.867C463.829 425.264 461.199 426.45 459.046 428.286C439.982 444.481 413.5 451.667 403.681 453.879C403.5 449.715 403.186 445.55 402.691 441.386C399.845 417.356 392.677 399.241 388.642 390.56C412.746 378.742 433.064 362.963 449.185 343.492C466.588 322.475 475.56 293.675 475.098 260.201C474.806 237.99 470.54 220.809 469.425 216.663C469.573 211.069 470.086 181.765 466.001 145.746C459.985 92.6115 447.274 52.5395 428.256 26.6361C416.049 10.0012 401.358 1.06596 384.621 0.0896057C368.81 -0.835844 351.527 5.41095 333.259 18.6588C319.534 28.612 308.646 40.1338 303.584 45.557C294.644 43.2942 283.571 41.7071 270.069 41.7071C256.567 41.7071 245.494 43.2942 236.554 45.557C231.492 40.1338 220.604 28.612 206.879 18.6588C188.611 5.41095 171.328 -0.835844 155.517 0.0896057C138.775 1.06596 124.089 10.0012 111.877 26.6361C92.8638 52.5487 80.1667 92.6115 74.1374 145.746C70.0515 181.765 70.5652 211.069 70.7132 216.663C69.5934 220.828 65.3317 238.009 65.0356 260.201C64.5729 293.675 73.5497 322.475 90.9482 343.492C107.079 362.963 127.388 378.742 151.496 390.56C147.461 399.241 140.293 417.356 137.447 441.386C136.662 448.028 136.266 454.71 136.263 461.399C131.316 462.491 126.199 465.295 121.553 469.533C111.04 479.144 105.121 493.905 105.32 510.04C105.593 531.788 116.343 548.988 122.515 557.081C116.236 562.819 112.335 570.699 112.335 579.389C112.349 585.003 113.966 590.496 116.995 595.223C117.525 596.058 118.258 596.745 119.126 597.221C119.993 597.697 120.966 597.945 121.955 597.944H418.136C419.125 597.945 420.099 597.696 420.966 597.22C421.833 596.745 422.566 596.058 423.097 595.223C426.126 590.496 427.743 585.003 427.756 579.389C427.756 570.699 423.874 562.819 417.576 557.081C422.037 551.227 428.885 540.631 432.439 527.004C451.689 515.033 465.755 500.059 474.274 482.439C480.751 469.03 483.963 454.279 483.649 439.391ZM100.013 336C96.8958 332.228 94.096 328.204 91.6423 323.969C91.4109 323.571 91.1795 323.173 90.9574 322.775C89.6942 320.527 88.542 318.241 87.4824 315.946C85.4791 311.586 83.7784 307.093 82.3924 302.499C80.1242 294.957 78.5611 287.221 77.7235 279.39C77.6001 278.267 77.4891 277.155 77.3903 276.054C77.3903 275.929 77.3903 275.8 77.3533 275.679C77.159 273.393 77.0294 271.163 76.9415 268.988C76.8258 266.106 76.7795 263.325 76.8119 260.692C77.0803 237.213 82.2304 219.218 82.2813 219.046C82.3322 218.875 82.3554 218.69 82.3924 218.514C82.4825 218.079 82.5244 217.635 82.5173 217.191C82.5173 217.02 82.4294 214.415 82.4155 209.963C82.3831 199.88 82.6839 180.182 84.8911 156.81C85.178 153.741 85.5004 150.616 85.8582 147.435C87.1492 135.997 88.9122 123.915 91.3045 111.805C95.3441 91.3991 101.188 70.9467 109.633 53.4372C110.867 50.8829 112.158 48.395 113.506 45.9734C115.866 41.6908 118.493 37.5613 121.372 33.6094V33.5816L121.456 33.4706C122.016 32.7117 122.575 31.9806 123.14 31.2634C128.477 24.5292 134.248 19.5364 140.455 16.285C145.32 13.6924 150.686 12.1773 156.188 11.8428C162.268 11.4865 168.76 12.5415 175.581 14.9523C176.113 15.1374 176.649 15.341 177.186 15.5446L177.774 15.7667C178.024 15.8593 178.269 15.9703 178.519 16.0675C178.982 16.2572 179.444 16.4469 179.93 16.6459C181.008 17.1086 182.1 17.613 183.197 18.1359C196.278 24.4197 210.41 35.2567 225.106 50.3508C220.56 53.1455 216.716 56.9445 213.866 61.4562L213.644 61.8125L213.274 62.4094V62.4325L213.177 62.5945C212.147 64.2793 211.272 66.0542 210.563 67.8973C210.565 67.9157 210.565 67.9344 210.563 67.9528C210.794 67.7631 214.163 65.2876 220.807 62.4372C230.33 58.3467 246.6 53.4834 270.064 53.4834C293.529 53.4834 309.822 58.3559 319.345 62.4464C325.975 65.2968 329.335 67.7631 329.566 67.9528C329.515 67.814 329.33 67.3143 328.997 66.5647C328.201 64.8003 327.273 63.0988 326.221 61.4747C323.371 56.963 319.527 53.164 314.981 50.3693C329.872 35.0994 344.184 24.1513 357.413 17.9091C357.765 17.7379 358.121 17.5714 358.477 17.4094C359.588 16.905 360.689 16.4377 361.781 15.9981C361.957 15.9287 362.137 15.85 362.313 15.7852C362.489 15.7205 362.706 15.6372 362.901 15.5631C363.438 15.3595 363.974 15.1559 364.506 14.9708C371.327 12.56 377.819 11.505 383.895 11.8613C389.397 12.1948 394.763 13.7099 399.627 16.3035C405.812 19.558 411.578 24.5508 416.924 31.2819C417.488 31.9991 418.048 32.7302 418.608 33.4891L418.687 33.6002V33.6279C418.77 33.739 418.849 33.8546 418.928 33.9703C421.983 38.1928 424.755 42.6139 427.224 47.2043C428.326 49.2341 429.39 51.3102 430.417 53.4325C443.887 81.3395 450.749 116.738 454.21 147.481C454.565 150.649 454.887 153.762 455.177 156.819C457.366 180.002 457.676 199.575 457.653 209.732C457.653 214.359 457.56 217.024 457.551 217.2C457.544 217.645 457.586 218.088 457.676 218.524C457.713 218.699 457.736 218.88 457.787 219.056C457.838 219.231 462.984 237.227 463.257 260.701C463.284 263.334 463.257 266.115 463.127 268.998C463.034 271.172 462.91 273.403 462.711 275.689C462.711 275.809 462.711 275.938 462.678 276.063C462.579 277.165 462.468 278.277 462.345 279.4C461.533 287.224 460 294.957 457.764 302.499C455.616 309.642 452.691 316.529 449.042 323.035C446.454 327.607 443.469 331.942 440.12 335.991C439.565 336.662 438.996 337.324 438.431 337.99C433.432 343.806 428.019 349.254 422.236 354.292C414.336 361.164 405.833 367.309 396.828 372.653L395.944 373.175C395.509 373.435 395.079 373.698 394.639 373.953H394.602H394.57C368.819 388.76 338.002 398.329 303.482 402.036C302.955 402.091 302.423 402.137 301.891 402.184L300.438 402.322L298.813 402.48C298.203 402.545 297.596 402.605 296.963 402.66C291.081 403.16 285.089 403.475 279.013 403.641C278.305 403.641 277.625 403.692 276.894 403.706C274.752 403.752 272.595 403.771 270.416 403.775H270.013C269.051 403.775 268.093 403.775 267.131 403.775C261.797 403.729 256.534 403.555 251.343 403.253C245.216 402.901 239.201 402.369 233.296 401.656C218.624 399.954 204.125 396.998 189.957 392.823C178.804 389.53 167.936 385.338 157.46 380.288C134.648 369.215 115.195 354.324 100.013 336ZM170.389 563.786C170.361 563.827 170.338 563.874 170.305 563.92C168.68 566.589 167.478 569.494 166.743 572.531C166.212 574.71 165.942 576.943 165.937 579.185C165.943 580.547 166.048 581.906 166.252 583.253C166.395 584.238 166.581 585.224 166.821 586.191H125.5C124.582 584.044 124.11 581.733 124.112 579.398C124.112 578.598 124.153 577.788 124.218 576.978C124.25 576.612 124.274 576.247 124.315 575.886C125.523 565.924 132.33 556.03 153.245 555.91C153.245 555.91 153.166 555.794 153 555.591C151.829 554.203 146.415 548.965 132.459 550.709C128.707 545.865 125.526 540.604 122.978 535.032C121.46 531.7 120.206 528.255 119.225 524.727C117.878 519.904 117.155 514.927 117.074 509.92C116.847 491.772 125.676 481.721 129.484 478.242C131.578 476.262 134.016 474.683 136.679 473.582C136.908 476.698 137.216 479.8 137.605 482.888C137.73 483.845 137.868 484.799 138.007 485.756C138.387 488.348 138.808 490.93 139.308 493.502C139.71 495.571 140.154 497.621 140.631 499.671C141.748 504.415 143.08 509.118 144.629 513.779C147.309 521.872 150.575 529.759 154.402 537.378C159.026 546.57 164.373 555.38 170.393 563.726C170.39 563.745 170.388 563.766 170.389 563.786ZM234.064 579.208C234.06 581.577 233.567 583.92 232.616 586.089C232.616 586.131 232.579 586.172 232.565 586.214H179.199C178.213 584.01 177.702 581.623 177.7 579.208C177.715 576.511 178.348 573.853 179.551 571.439C180.027 570.471 180.581 569.542 181.207 568.663C183.45 565.581 186.365 563.049 189.731 561.259C194.703 558.608 200.259 557.244 205.894 557.289C210.772 557.265 215.6 558.282 220.053 560.274C224.139 562.05 227.7 564.846 230.395 568.394C230.455 568.478 230.525 568.556 230.58 568.64L230.617 568.695C230.922 569.126 231.214 569.57 231.482 570.019C231.806 570.564 232.101 571.127 232.366 571.703C233.296 573.652 233.859 575.755 234.027 577.908C234.027 577.908 234.027 577.94 234.027 577.959C234.027 578.149 234.027 578.343 234.027 578.537C234.027 578.732 234.027 578.963 234.027 579.176L234.064 579.208ZM296.967 567.177C295.226 570.95 294.32 575.054 294.311 579.208C294.317 581.572 294.617 583.925 295.204 586.214H244.934C245.52 583.925 245.818 581.571 245.822 579.208C245.814 575.054 244.91 570.95 243.171 567.177C240.237 560.773 235.055 555.304 228.438 551.473C229.011 545.962 231.677 534.546 233.99 516.768C235.577 504.737 234.027 494.706 231.418 486.788C227.012 473.425 219.567 466.105 219.017 465.447C219.017 465.475 219.049 465.554 219.077 465.66C219.822 468.168 226.823 492.623 222.455 514.459C219.428 529.6 217.878 540.4 217.092 546.943C216.249 546.734 215.398 546.554 214.537 546.392L214.38 546.359C211.572 545.841 208.722 545.58 205.866 545.582C204.741 545.582 203.631 545.628 202.534 545.707C193.252 546.355 184.863 549.691 178.473 554.786C161.759 530.928 151.884 505.566 148.937 479.024C147.634 467.156 147.678 455.178 149.066 443.32C151.676 420.646 158.566 403.391 162.212 395.502C164.568 396.497 166.941 397.473 169.357 398.399L169.736 398.547C173.836 400.111 178.008 401.565 182.253 402.91L182.924 403.114C184.627 403.65 186.344 404.164 188.074 404.669L190.018 405.219C191.403 405.608 192.791 405.986 194.182 406.353C194.816 406.524 195.45 406.691 196.089 406.853C198.06 407.357 200.036 407.843 202.03 408.301L202.391 408.38C204.303 408.815 206.227 409.229 208.161 409.624C208.79 409.754 209.424 409.874 210.058 409.999C211.567 410.308 213.081 410.595 214.602 410.86L216.476 411.198C218.568 411.559 220.641 411.906 222.778 412.22C238.42 414.53 254.212 415.67 270.023 415.63C278.213 415.63 286.247 415.347 294.126 414.779C302.005 414.211 309.717 413.362 317.262 412.229C317.262 412.229 317.262 412.229 317.29 412.229C319.405 411.915 321.501 411.568 323.588 411.207L325.462 410.869C326.983 410.598 328.499 410.311 330.01 410.008C330.644 409.883 331.278 409.763 331.908 409.634C333.842 409.236 335.765 408.821 337.678 408.389L338.034 408.31C340.033 407.847 342.009 407.385 343.975 406.862C344.619 406.7 345.253 406.533 345.886 406.362C347.275 405.997 348.663 405.617 350.051 405.228L351.999 404.678C353.727 404.178 355.44 403.66 357.14 403.123L357.815 402.919C359.941 402.244 362.046 401.544 364.132 400.819C366.217 400.094 368.284 399.339 370.332 398.556L370.716 398.408C373.132 397.482 375.505 396.506 377.861 395.511C381.507 403.378 388.392 420.665 391.002 443.329C392.395 455.187 392.44 467.165 391.136 479.033C388.184 505.58 378.31 530.937 361.601 554.795C355.197 549.705 346.793 546.364 337.539 545.716C336.442 545.638 335.332 545.591 334.207 545.591C331.35 545.59 328.498 545.85 325.689 546.369L325.531 546.401C324.671 546.563 323.819 546.744 322.982 546.952C322.195 540.409 320.668 529.609 317.614 514.469C313.352 493.142 319.928 469.302 320.936 465.882C320.936 465.818 320.969 465.767 320.987 465.716L321.052 465.494C320.501 466.151 313.056 473.471 308.651 486.835C306.041 494.752 304.486 504.788 306.078 516.815C308.392 534.597 311.071 546.013 311.631 551.519C305.083 555.262 299.901 560.732 296.967 567.136V567.177ZM360.934 586.237H307.573C307.573 586.209 307.55 586.177 307.536 586.145C306.573 583.967 306.075 581.612 306.074 579.232C306.074 579.019 306.074 578.806 306.074 578.593C306.074 578.38 306.074 578.204 306.074 578.015C306.071 577.998 306.071 577.981 306.074 577.964C306.238 575.837 306.789 573.758 307.698 571.828C307.975 571.227 308.284 570.642 308.623 570.074C308.984 569.473 309.391 568.885 309.817 568.311C312.49 564.849 315.99 562.115 319.997 560.362C324.469 558.349 329.322 557.321 334.226 557.345C339.86 557.299 345.417 558.664 350.389 561.315C353.65 563.04 356.494 565.46 358.718 568.404L358.787 568.492C359.474 569.428 360.076 570.424 360.587 571.467C361.792 573.88 362.425 576.539 362.438 579.236C362.43 581.636 361.918 584.007 360.934 586.195V586.237ZM420.903 524.773C419.962 528.172 418.761 531.493 417.313 534.708C414.74 540.419 411.502 545.805 407.665 550.755C393.714 549.011 388.291 554.258 387.129 555.637C386.963 555.841 386.884 555.956 386.884 555.956C407.804 556.077 414.61 565.97 415.818 575.932C415.86 576.293 415.883 576.654 415.911 577.015C415.98 577.829 416.022 578.644 416.022 579.444C416.023 581.779 415.551 584.09 414.634 586.237H373.312C373.553 585.27 373.738 584.284 373.881 583.299C374.084 581.952 374.188 580.593 374.191 579.232C374.188 576.98 373.916 574.737 373.382 572.55C372.647 569.522 371.449 566.627 369.828 563.966C369.797 563.923 369.77 563.878 369.745 563.832C369.735 563.81 369.722 563.79 369.708 563.772C375.693 555.479 381.013 546.724 385.616 537.591C389.48 529.918 392.776 521.972 395.477 513.816C397.019 509.158 398.352 504.455 399.475 499.708C399.937 497.658 400.4 495.608 400.798 493.539C401.293 490.981 401.723 488.408 402.089 485.83C402.232 484.863 402.376 483.896 402.501 482.925C402.899 479.84 403.207 476.738 403.426 473.619C406.089 474.721 408.527 476.3 410.622 478.279C414.43 481.758 423.259 491.809 423.032 509.957C422.953 514.952 422.238 519.917 420.903 524.732V524.773ZM430.449 486.784C427.798 480.254 423.749 474.385 418.585 469.589C418.358 469.385 418.122 469.2 417.905 469.001C417.356 468.52 416.801 468.057 416.239 467.613C415.735 467.22 415.23 466.845 414.721 466.484L414.559 466.364C413.456 465.588 412.31 464.876 411.126 464.23C421.682 461.528 431.952 457.808 441.791 453.125C450.236 449.053 458.912 443.871 466.667 437.267C467.121 436.87 467.682 436.615 468.28 436.533C468.877 436.451 469.486 436.545 470.031 436.805C470.75 437.126 471.324 437.704 471.641 438.424C471.802 438.81 471.887 439.223 471.891 439.641C472.062 448.361 470.893 457.055 468.425 465.42C463.867 480.69 454.081 497.028 434.776 511.317C434.776 510.915 434.808 510.512 434.813 510.105C434.965 502.101 433.48 494.151 430.449 486.742V486.784Z" fill="black"/>
<path d="M306.134 516.74C304.547 504.71 306.097 494.678 308.707 486.76C313.112 473.397 320.557 466.077 321.108 465.42C328.664 449.113 325.319 432.251 321.062 420.785C320.65 419.67 320.229 418.615 319.812 417.611C305.107 420.85 288.134 422.701 270.06 422.701C251.986 422.701 235.013 420.85 220.308 417.611C219.892 418.615 219.47 419.67 219.059 420.785C214.802 432.251 211.456 449.113 219.012 465.42C219.563 466.077 227.008 473.397 231.413 486.76C234.023 494.678 235.578 504.714 233.986 516.74C231.673 534.523 228.993 545.938 228.433 551.445C235.05 555.276 240.233 560.746 243.167 567.15C249.349 569.648 258.154 571.851 270.065 571.944C275.299 571.929 280.521 571.429 285.663 570.449C289.526 569.71 293.31 568.605 296.963 567.15C299.897 560.746 305.079 555.276 311.692 551.445C311.127 545.92 308.471 534.504 306.134 516.74Z" fill="white"/>
<path d="M222.82 412.165C220.706 411.85 218.61 411.503 216.518 411.142L214.644 410.804C213.123 410.533 211.609 410.246 210.1 409.943C209.466 409.818 208.832 409.698 208.203 409.569C206.269 409.171 204.345 408.756 202.433 408.324L202.072 408.245C200.077 407.783 198.102 407.32 196.13 406.797C195.492 406.635 194.858 406.468 194.224 406.297C192.823 405.933 191.435 405.555 190.059 405.163L188.116 404.613C186.385 404.109 184.669 403.595 182.966 403.058L182.295 402.854C191.411 408.986 204.575 414.08 220.349 417.565C221.173 415.533 222.025 413.719 222.82 412.165Z" fill="#193498"/>
<path d="M357.871 402.868L357.196 403.072C355.496 403.608 353.782 404.127 352.055 404.626L350.107 405.177C348.718 405.566 347.33 405.945 345.942 406.311C345.308 406.482 344.674 406.649 344.031 406.811C342.064 407.315 340.089 407.801 338.09 408.259L337.733 408.338C335.824 408.773 333.9 409.187 331.963 409.582C331.334 409.712 330.7 409.832 330.066 409.957C328.558 410.266 327.041 410.552 325.517 410.818L323.643 411.156C321.556 411.516 319.479 411.864 317.346 412.178C318.118 413.719 318.974 415.533 319.831 417.578C335.596 414.094 348.76 408.999 357.871 402.868Z" fill="#193498"/>
<path d="M270.07 422.682C288.144 422.682 305.116 420.831 319.822 417.592C318.966 415.547 318.11 413.733 317.337 412.192C317.337 412.192 317.337 412.192 317.309 412.192C309.767 413.318 302.055 414.168 294.173 414.742C286.291 415.316 278.257 415.6 270.07 415.593C254.257 415.627 238.463 414.481 222.821 412.165C222.043 413.705 221.192 415.519 220.336 417.565C235.023 420.827 251.972 422.682 270.07 422.682Z" fill="#DBBDBF"/>
<path d="M193.355 257.138C210.002 257.138 223.497 240.115 223.497 219.116C223.497 198.117 210.002 181.094 193.355 181.094C176.708 181.094 163.213 198.117 163.213 219.116C163.213 240.115 176.708 257.138 193.355 257.138Z" fill="black"/>
<path d="M349.75 257.138C366.397 257.138 379.892 240.115 379.892 219.116C379.892 198.117 366.397 181.094 349.75 181.094C333.103 181.094 319.608 198.117 319.608 219.116C319.608 240.115 333.103 257.138 349.75 257.138Z" fill="black"/>
<path d="M199.874 216.936C205.123 216.936 209.378 211.214 209.378 204.156C209.378 197.097 205.123 191.375 199.874 191.375C194.624 191.375 190.369 197.097 190.369 204.156C190.369 211.214 194.624 216.936 199.874 216.936Z" fill="white"/>
<path d="M343.647 216.936C348.896 216.936 353.151 211.214 353.151 204.156C353.151 197.097 348.896 191.375 343.647 191.375C338.398 191.375 334.143 197.097 334.143 204.156C334.143 211.214 338.398 216.936 343.647 216.936Z" fill="white"/>
</svg>
